<?xml version="1.0" encoding="utf-8"?>
<!-- Generator: Adobe Illustrator 24.0.0, SVG Export Plug-In . SVG Version: 6.00 Build 0)  -->
<svg version="1.1" id="圖層_1" xmlns="http://www.w3.org/2000/svg" xmlns:xlink="http://www.w3.org/1999/xlink" x="0px" y="0px"
	 viewBox="0 0 136.4 166.4" style="enable-background:new 0 0 136.4 166.4;" xml:space="preserve">
<style type="text/css">
	.st0{fill:#5AC0C2;}
</style>
<title>coffeeBean</title>
<g id="圖層_2_1_">
	<g id="圖層_1-2">
		<path class="st0" d="M92.7,1.8c-3,1.2-5.1,2-7.2,2.9C69.3,11.8,60.3,23.9,60,41.8c-0.2,13.6-0.1,27.3-0.8,40.9
			c-1.1,22.9-5.3,44.7-24.7,61c23.1-6.9,41-29.6,42.6-53.4C78,76,78.4,61.7,79.3,47.4C79.9,36,84.1,26,93.1,18.6
			c12.9-10.6,26.5-8.2,34.7,6.3c6.3,11.1,8.3,23.5,8.6,36.1c0.6,26.4-5.3,50.8-22.4,71.7c-13.4,16.3-29.5,28.4-50.7,32.5
			c-32.7,6.3-56.7-10-61.7-42.8c-6-39.7,5.9-74.6,32.6-104C49.5,1.3,69.5-2.9,92.7,1.8z"/>
	</g>
</g>
</svg>
