<?xml version="1.0" encoding="utf-8"?>
<!-- Generator: Adobe Illustrator 24.0.0, SVG Export Plug-In . SVG Version: 6.00 Build 0)  -->
<svg version="1.1" id="Capa_1" xmlns="http://www.w3.org/2000/svg" xmlns:xlink="http://www.w3.org/1999/xlink" x="0px" y="0px"
	 viewBox="0 0 512 512" style="enable-background:new 0 0 512 512;" xml:space="preserve">
<style type="text/css">
	.st0{fill:#88897D;}
	.st1{fill:#FFFFFF;}
</style>
<path class="st0" d="M361,497c0-8.3-6.7-15-15-15H166c-8.3,0-15,6.7-15,15s6.7,15,15,15h180C354.3,512,361,505.3,361,497z"/>
<path class="st0" d="M256,0C165,0,91,74,91,165c0,124.8,148.1,276.3,154.4,282.6c2.9,2.9,6.8,4.4,10.6,4.4c3.8,0,7.7-1.5,10.6-4.4
	C272.9,441.3,421,289.8,421,165C421,74,347,0,256,0z"/>
<g id="XMLID_1_">
	<g>
		<path class="st1" d="M354.3,122.5c6.9,4.6,8.8,13.9,4.2,20.8c-4.5,6.8-13.8,8.8-20.8,4.2L331,143v82c0,8.3-6.7,15-15,15H196
			c-8.3,0-15-6.7-15-15v-82l-6.7,4.5c-6.9,4.6-16.2,2.7-20.8-4.2c-4.6-6.9-2.7-16.2,4.2-20.8l90-60c5-3.4,11.6-3.4,16.6,0
			L354.3,122.5z"/>
	</g>
	<g>
	</g>
</g>
<path class="st0" d="M211,138v87h90v-87l-45-30L211,138z"/>
<g>
	<path class="st1" d="M175.1,316.4c-6,0-10.6-1.3-14.1-4c-2.9-2.2-4.3-4.7-4.3-7.6c0-1.5,0.4-2.7,1.3-3.7c0.9-1,2.1-1.5,3.7-1.5
		c2.1,0,3.7,1.1,4.6,3.2c1.3,2.9,4.4,4.3,9.1,4.3c4,0,7.9-0.9,11.7-2.6c3.9-1.8,5.9-3.8,5.9-5.9c0-3-1.2-4.9-3.7-5.8
		c-1.7-0.7-5.2-1.1-10.4-1.2c-4.1-0.1-7.7-0.9-10.9-2.3c-4.3-1.9-6.5-4.7-6.4-8.4c0.1-4.6,2.5-8.8,7.3-12.6
		c4.8-3.8,10.1-5.7,15.9-5.7c2.3,0,5.1,0.5,8.5,1.6c4.2,1.3,6.3,2.8,6.3,4.5c0,1.2-0.4,2.3-1.3,3.2c-0.9,1.1-2.1,1.6-3.6,1.6
		c-1.1,0-2.7-0.2-4.9-0.7c-2.2-0.5-3.8-0.7-5-0.7c-3,0-5.9,0.8-8.6,2.2c-2.8,1.5-4.2,3-4.2,4.7c0,0.9,0.4,1.6,1.3,2.2
		c0.9,0.6,2.1,1,3.8,1.2c3,0.2,6,0.3,9,0.5c5.2,0.4,9.3,1.9,12.3,4.4c3.3,2.8,5,6.7,5,11.7c0,6-3.4,10.6-10.3,13.7
		C187.8,315.2,181.8,316.4,175.1,316.4z"/>
	<path class="st1" d="M233.3,286c-0.5,0-1.1,0-1.7-0.1s-1.2-0.1-1.7-0.1c-1,0-2.1,0.1-3.3,0.3c0.4,9.5,0.6,15.7,0.6,18.6
		c0,0.3,0,0.9,0,1.7c0,0.8,0,1.5,0,2c0,5.4-1.7,8.1-5.1,8.1c-1.3,0-2.4-0.4-3.3-1.2c-1-0.8-1.5-1.9-1.5-3.2c0-0.8,0-2.1,0.1-3.8
		s0.1-3,0.1-3.8c0-2.8-0.2-8.9-0.6-18.2c-1.5-0.1-3.7-0.3-6.6-0.6c-2.9-0.3-4.4-1.8-4.4-4.6c0-1.3,0.4-2.4,1.3-3.3
		c0.9-0.9,2-1.4,3.4-1.4c0.9,0,2.9,0.1,6,0.4c0-0.8-0.1-2-0.2-3.7c-0.1-1.5-0.1-2.7-0.1-3.5c0-1.3,0.5-2.4,1.4-3.3
		c1-0.9,2.1-1.3,3.5-1.3c3.5,0,5.2,2.9,5.2,8.8l-0.1,2.9c1.5-0.2,2.6-0.3,3.6-0.3c2.7,0,4.5,0.2,5.5,0.5c1.9,0.7,2.8,2.1,2.8,4.3
		c0,1.3-0.5,2.4-1.4,3.3S234.7,286,233.3,286z"/>
	<path class="st1" d="M256.9,316.3c-4.3,0-8.1-1.5-11.2-4.5c-3.4-3.3-5.2-7.6-5.4-13c-0.2-5.2,1.3-9.8,4.3-13.9
		c3.6-4.8,8.5-7.2,14.9-7.2c4.7,0,8.4,1.9,11.2,5.6c2.5,3.4,3.7,7.6,3.7,12.6c0,5.4-1.5,10.1-4.4,13.9
		C266.8,314.2,262.4,316.3,256.9,316.3z M259,287.1c-2.9,0-5.2,1.3-6.8,3.9c-1.4,2.2-2.1,4.8-2.1,7.8c0,2.8,0.8,5,2.4,6.5
		c1.3,1.2,2.7,1.8,4.4,1.8c2,0,3.8-0.7,5.3-2.1c1.7-1.6,2.6-3.8,2.7-6.6C265.3,290.9,263.3,287.1,259,287.1z"/>
	<path class="st1" d="M309.8,288.9c-0.2,3.6-1.8,5.4-4.9,5.4c-3,0-4.4-1.5-4.4-4.6l-0.2-3.6c-5.3,0.8-9,3.6-11.3,8.1l0,17.7
		c0,1.3-0.5,2.4-1.4,3.3s-2.1,1.3-3.5,1.3c-1.5,0-2.6-0.5-3.4-1.4c-0.8-0.8-1.1-1.9-1.1-3.2v-23c0-0.7,0-1.8,0.1-3.3
		s0.1-2.5,0.1-3.3c0-1.3,0.4-2.4,1.2-3.3s1.9-1.3,3.4-1.3c2.6,0,4.1,1.3,4.6,4c4.1-3.1,8.8-4.6,13.8-4.6c4.7,0,7,3.1,7,9.4
		C309.8,287.8,309.8,288.6,309.8,288.9z"/>
	<path class="st1" d="M332.6,315.9c-5.6,0-10.2-1.3-13.7-4c-3.9-3-5.9-7.1-5.9-12.5c0-5.9,1.6-10.9,4.7-15c3.5-4.5,8.1-6.8,14-6.8
		c4.1,0,7.5,0.7,10.2,2c3.5,1.7,5.3,4.4,5.3,8.1c0,2.6-1.4,4.9-4.3,6.9c-1.3,0.9-3.9,2.2-7.9,4l-11.8,5.2c1.1,1.2,2.5,2.1,4.1,2.7
		s3.4,0.9,5.5,0.9c3.1,0,5.8-0.6,8-1.9c1.9-1.1,3.5-1.7,4.7-1.7c2.4,0,3.7,1.2,3.7,3.6c0,2.7-2,4.9-5.9,6.5
		C339.8,315.2,336.3,315.9,332.6,315.9z M331.7,286c-2.2,0-4,0.7-5.6,2.2s-2.8,3.6-3.7,6.5c2.6-1.1,5.3-2.3,7.9-3.4
		c3.2-1.4,5.7-2.8,7.6-4C336.2,286.5,334.2,286,331.7,286z"/>
</g>
</svg>
