<svg xmlns="http://www.w3.org/2000/svg" viewBox="0 0 86.45 86.45"><defs><style>.cls-1{fill:#297172;}</style></defs><title>資產 13</title><g id="圖層_2" data-name="圖層 2"><g id="圖層_2-2" data-name="圖層 2"><g id="_13-smoking" data-name=" 13-smoking"><g id="Gyph"><path class="cls-1" d="M43.22,0A43.23,43.23,0,1,0,86.45,43.22,43.22,43.22,0,0,0,43.22,0Zm36,43.22A35.88,35.88,0,0,1,71.1,66l-8.38-8.38h5.72A3.6,3.6,0,0,0,72,54V46.82a3.6,3.6,0,0,0-3.6-3.6H48.32L20.44,15.35a36,36,0,0,1,58.8,27.87ZM64.83,54V46.82h3.61V54ZM7.2,43.22a35.84,35.84,0,0,1,8.15-22.78L38.13,43.22H32.42V57.63H52.54L66,71.1A36,36,0,0,1,7.2,43.22Z"/><path class="cls-1" d="M54,28.82h7.2a3.6,3.6,0,0,1,3.6,3.6V36H72v-3.6A10.82,10.82,0,0,0,61.23,21.61H54a3.6,3.6,0,0,1-3.6-3.6v-3.6H43.22V18A10.83,10.83,0,0,0,54,28.82Z"/><path class="cls-1" d="M14.41,46.82V54a3.6,3.6,0,0,0,3.6,3.6H28.82V43.22H18A3.6,3.6,0,0,0,14.41,46.82Z"/></g></g></g></g></svg>