<svg xmlns="http://www.w3.org/2000/svg" viewBox="0 0 81.42 76.67"><defs><style>.cls-1{fill:#297172;stroke:#297172;stroke-miterlimit:10;}</style></defs><title>資產 9</title><g id="圖層_2" data-name="圖層 2"><g id="圖層_2-2" data-name="圖層 2"><path class="cls-1" d="M24.1,53.79v4.56c0,4.84,0,9.69,0,14.54,0,2.3-.85,3.1-3.17,3.11-2.69,0-5.39,0-8.08,0-2.07,0-2.95-.89-2.95-3,0-9.76-.08-19.51.06-29.26,0-2.15.83-4.29,1.32-6.65L9.45,37A9.42,9.42,0,0,1,9.87,18.2c2.21,0,4.43,0,6.64,0,1.77,0,2.8.9,2.82,2.32s-1,2.33-2.78,2.35c-2.09,0-4.19,0-6.28,0A4.85,4.85,0,0,0,5.2,27.61c0,2.66,2.12,4.63,5.08,4.67,3.15,0,6.26.21,9.22-1.45A10.19,10.19,0,0,1,24.21,30c6.22-.09,12.45-.05,18.67,0a6.49,6.49,0,0,1,2.27.39c5.27,1.93,10.51,4,15.81,5.85,1.4.5,1.65,1.15,1.32,2.49-.56,2.33-.82,4.73-1.45,7-1.34,4.93-1.12,10-1.1,15q0,6.2,0,12.39c0,2.27-.75,3-3,3q-4,0-8.08,0c-2.27,0-3-.77-3-3.05,0-5.2-.07-10.41,0-15.61,0-1.49-.47-1.91-1.91-2C37.27,55,30.85,54.39,24.1,53.79Z"/><path class="cls-1" d="M63.42,32.17,45.61,25.53l4.71-12.72c1.25-3.36,2.52-6.71,3.76-10.07C54.54,1.49,55.13.4,56.7.51s2.14,1.25,2.38,2.67c.28,1.64.72,3.27,1,4.92.15,1,.54,1.36,1.51,1.3s1.8,0,2.69,0a7,7,0,0,1,6.88,5,1.7,1.7,0,0,0,2,1.41c1.61-.08,3.23-.06,4.84,0,2.16.06,3,1,2.91,3.16A11.83,11.83,0,0,1,69.47,30c-1.07.05-2.15,0-3.23,0C64.15,30,64.15,30,63.42,32.17Z"/></g></g></svg>