<svg xmlns="http://www.w3.org/2000/svg" viewBox="0 0 87.74 87.07"><defs><style>.cls-1{fill:#297172;stroke:#297172;stroke-miterlimit:10;}</style></defs><title>資產 10</title><g id="圖層_2" data-name="圖層 2"><g id="圖層_2-2" data-name="圖層 2"><path class="cls-1" d="M19.48,68.17a7.13,7.13,0,0,0-5.08-2.11,7.22,7.22,0,0,0-3.21.76,40.24,40.24,0,0,1,.08-46.21,1.7,1.7,0,0,0-2.76-2A43.43,43.43,0,0,0,8.6,69a7.18,7.18,0,1,0,10.88-.85Zm-2.4,7.75a3.79,3.79,0,1,1,0-5.36A3.79,3.79,0,0,1,17.08,75.92Z"/><path class="cls-1" d="M69.61,76.6a1.69,1.69,0,0,0-2.36-.39A39.44,39.44,0,0,1,51.07,83.1a4.63,4.63,0,0,1-5.48-4.55V66.14h.14a3.57,3.57,0,0,0,3.56-3.56V59.72a15.27,15.27,0,0,0,9.83-14.25v-8a6.44,6.44,0,0,0-.85-12.59V14.29a5.08,5.08,0,0,0-10.16,0V24.8H39.63V14.29a5.08,5.08,0,0,0-10.16,0V24.86a6.44,6.44,0,0,0-.85,12.59v8a15.27,15.27,0,0,0,9.83,14.25v2.86A3.56,3.56,0,0,0,42,66.14h.19V78.55a8,8,0,0,0,8,8,7.9,7.9,0,0,0,1.45-.13A42.85,42.85,0,0,0,69.23,79,1.69,1.69,0,0,0,69.61,76.6ZM51.49,14.29a1.7,1.7,0,0,1,3.39,0V24.8H51.49Zm-18.63,0a1.7,1.7,0,0,1,3.39,0V24.8H32.86Zm-5.59,17a3,3,0,0,1,3.05-3h27.1a3.05,3.05,0,0,1,0,6.1H30.32A3.06,3.06,0,0,1,27.27,31.24ZM32,45.47v-7.8H55.73v7.8a11.86,11.86,0,0,1-23.72,0ZM43.93,62.75H42a.17.17,0,0,1-.17-.17v-2a15.91,15.91,0,0,0,4.06,0v2a.17.17,0,0,1-.17.17Z"/><path class="cls-1" d="M74.49,72a1.69,1.69,0,0,0-2.35,0l0,0a1.69,1.69,0,0,0,.08,2.39,1.67,1.67,0,0,0,1.15.46,1.71,1.71,0,0,0,1.21-.5l0,0A1.69,1.69,0,0,0,74.49,72Z"/><path class="cls-1" d="M87.12,40.61A43.46,43.46,0,0,0,18.76,8.42a1.7,1.7,0,0,0,2,2.77A40.43,40.43,0,0,1,72.14,15.5a39.75,39.75,0,0,1,4,51.84,1.68,1.68,0,0,0,.36,2.36,1.73,1.73,0,0,0,1,.33,1.69,1.69,0,0,0,1.37-.69A43.33,43.33,0,0,0,87.12,40.61Z"/><path class="cls-1" d="M15.39,13.3a1.69,1.69,0,0,0-2.39,0l0,0a1.69,1.69,0,0,0,1.2,2.89,1.73,1.73,0,0,0,1.21-.5l0,0A1.69,1.69,0,0,0,15.39,13.3Z"/><path class="cls-1" d="M47.69,44.84A1.69,1.69,0,0,0,46.23,44H45l2.23-2.82a1.69,1.69,0,0,0-2.66-2.1l-4.41,5.56A1.71,1.71,0,0,0,40,46.43a1.68,1.68,0,0,0,1.52,1h1.81l-2.08,3.66a1.69,1.69,0,1,0,2.95,1.67l3.51-6.19A1.7,1.7,0,0,0,47.69,44.84Z"/></g></g></svg>