<svg xmlns="http://www.w3.org/2000/svg" viewBox="0 0 81.29 61.84"><defs><style>.cls-1{fill:#297172;}</style></defs><title>資產 11</title><g id="圖層_2" data-name="圖層 2"><g id="圖層_2-2" data-name="圖層 2"><path class="cls-1" d="M40.63,47.8a7,7,0,1,0,7,7A7,7,0,0,0,40.63,47.8Z"/><path class="cls-1" d="M57.82,38.23a24.34,24.34,0,0,0-34.34,0,4.74,4.74,0,0,0,6.71,6.7,14.81,14.81,0,0,1,20.9,0,4.77,4.77,0,0,0,6.72,0A4.73,4.73,0,0,0,57.82,38.23Z"/><path class="cls-1" d="M79.9,16.22a55.66,55.66,0,0,0-78.51,0,4.74,4.74,0,0,0,6.71,6.7,46.12,46.12,0,0,1,65.08,0,4.74,4.74,0,1,0,6.72-6.69Z"/><path class="cls-1" d="M68.58,27.5a39.59,39.59,0,0,0-55.86,0,4.74,4.74,0,0,0,6.71,6.7,30.08,30.08,0,0,1,42.43,0,4.74,4.74,0,1,0,6.72-6.69Z"/></g></g></svg>