<svg xmlns="http://www.w3.org/2000/svg" viewBox="0 0 144.94 219.46"><defs><style>.cls-1{fill:#fff;}.cls-2{fill:#297172;}</style></defs><title>資產 5</title><g id="圖層_2" data-name="圖層 2"><g id="圖層_1-2" data-name="圖層 1"><path class="cls-1" d="M113.06,17.44a10.24,10.24,0,0,1-1.42-.95C97.42,2.5,80.4-2.13,60.86.88,38.79,4.28,22,19.13,16.52,40.51a70.23,70.23,0,0,0,.67,36.31C20.53,89.07,25.6,100.5,34.24,110c3.27,3.61,4.3,3.49,7.92-.36l3,3.58a20.59,20.59,0,0,0-12.73,5.83,6.23,6.23,0,0,1-3.51,1.27c-9.81,1.08-15.17,5.84-16.93,15.33Q6.1,167.19.34,198.71C-1.72,210,5.84,219.35,17.4,219.38q55.13.16,110.25,0c11.71,0,19.12-9.61,16.88-21.19-1.52-7.84-2.95-15.71-4.41-23.56q-3.77-20.2-7.53-40.4a15.81,15.81,0,0,0-10.38-12.62c-3.06-1.15-5.88-2-7.85-5-1.68-2.61-4.82-3.12-7.89-3.07-2,0-4-.09-7-.17,6.23-6.58,10.39-12.9,12.57-20.45.38-1.31,1.71-2.35,2.63-3.49,6.57-8.22,10.93-17.4,11.87-28,.41-4.66.48-9.35.7-14C141.21,43,142.85,30.9,139.23,23.28,134.69,13.75,124.38,11.32,113.06,17.44Z"/><path class="cls-2" d="M113.06,17.44c11.32-6.12,21.63-3.69,26.17,5.84,3.63,7.62,2,19.77-11.95,24.11-.22,4.66-.28,9.35-.7,14-.94,10.58-5.3,19.76-11.87,28-.91,1.14-2.25,2.18-2.63,3.49-2.18,7.54-6.34,13.87-12.57,20.45,3,.08,5,.2,7,.17,3.08,0,6.21.46,7.89,3.07,2,3,4.79,3.89,7.85,5a15.81,15.81,0,0,1,10.38,12.62q3.76,20.2,7.53,40.4c1.46,7.85,2.89,15.72,4.41,23.56,2.24,11.57-5.17,21.15-16.88,21.19q-55.13.17-110.25,0C5.84,219.35-1.72,210,.34,198.71q5.72-31.53,11.61-63c1.76-9.49,7.12-14.25,16.93-15.33a6.23,6.23,0,0,0,3.51-1.27,20.59,20.59,0,0,1,12.73-5.83l-3-3.58c-3.61,3.85-4.65,4-7.92.36-8.64-9.53-13.72-21-17.05-33.22a70.23,70.23,0,0,1-.67-36.31C22,19.13,38.79,4.28,60.86.88c19.54-3,36.56,1.62,50.79,15.61A10.24,10.24,0,0,0,113.06,17.44Zm.43,60.73,1.13,0c.49-.82,1-1.61,1.46-2.47C124.53,59,121.73,37,109.15,23c-14.39-16-32.33-20-52.61-14.65C37.75,13.3,26,25.36,22,44.44c-4.08,19.45,1.16,37.14,11.1,53.77.17.28.71.33,1.36.61.07-1.08.15-1.88.16-2.67,0-5.88,0-11.76.06-17.64.05-3.57,1.18-5.2,3.33-5,3.19.35,3.07,2.84,3.07,5.17,0,4.08.34,8.2-.08,12.24-.6,5.76,1.74,10.21,5.48,14.05a53.43,53.43,0,0,0,8.25,6.85,10.61,10.61,0,0,0,5.48,1.58q12.25.25,24.5,0a11.1,11.1,0,0,0,5.49-1.5c10.67-6.75,16.7-16.32,16.84-29.16.11-10.13,0-20.26,0-30.38,0-1.26-.2-2.52-.32-3.92-1.74.19-3.21.25-4.64.52C88,51.64,73.85,54.19,59.79,57c-3.44.69-6.33.49-9.25-1.51-2.77-1.9-5.79-3.44-9.42-5.56,0,4.44,0,8,0,11.57,0,2.26-.91,4-3.38,3.86-2.3-.09-2.83-2-2.82-3.88,0-5.39,0-10.78.26-16.17.17-4,2-5,5.44-3.06,3.85,2.14,7.72,4.3,11.33,6.81,2.82,2,5.59,2.14,8.79,1.52,15.53-3,31.08-5.88,46.62-8.8,4.94-.93,6.08,0,6.12,5.16.06,8.82,0,17.64,0,26.46Q113.49,75.79,113.49,78.17ZM69.62,196v0c9.8,0,19.6,0,29.4,0,4.83,0,8.68-1.65,10.94-6,2.17-4.2,1.16-8.26-1.31-12-1-1.49-2.32-2.75-3.32-4.24-1.54-2.29-1-3.91,1.47-5.07.58-.27,1.51-.15,1.83-.57.91-1.2,2.31-2.66,2.16-3.85s-1.78-2.44-3.05-3.17c-.88-.51-2.23-.23-3.37-.23-3.43,0-6.86,0-10.29,0-1.95,0-3.7-.53-3.78-2.88-.09-2.69,1.8-3.15,4-3.17,1.47,0,2.94,0,4.41-.06a22.31,22.31,0,0,0,3.89-.36,10.58,10.58,0,0,0-.75-20.86,33.85,33.85,0,0,0-4.89-.18h-48c-1.31,0-2.76.32-3.87-.16a5,5,0,0,1-2.74-2.74c-.46-1.91,1-3,2.88-3.09,1.63-.1,3.26-.1,4.9-.1l52.43,0c1.31,0,2.62.06,3.92,0,3.15-.24,4.66-1.57,4.6-3.93s-1.55-3.48-4.82-3.72c-.65,0-1.31,0-2,0-18.78,0-37.57,0-56.35,0a22,22,0,0,0-6.27.79,10.42,10.42,0,0,0,.12,19.9A22.86,22.86,0,0,0,48,141c16.33.05,32.67,0,49,0,1.46,0,3.07-.2,4.35.32a3.83,3.83,0,0,1,2.12,2.78,3.88,3.88,0,0,1-2.28,2.63,12.61,12.61,0,0,1-4.36.3q-27.44,0-54.88,0c-1.62,0-3.46-.22-4.8.46a5.26,5.26,0,0,0-2.57,3.57c-.09,1,1.31,2.59,2.43,3.17s2.85.47,4.31.47c7.68,0,15.35,0,23,0,2.38,0,5.25-.55,5.8,2.91.36,2.24-1.44,3.13-6,3.16-5.55,0-11.11,0-16.66,0a21.88,21.88,0,0,0-5.32.6,10.6,10.6,0,0,0-7.83,10.09,10.77,10.77,0,0,0,8.22,10.31,22.39,22.39,0,0,0,4.86.37q10.29.06,20.58,0c2.25,0,4,.74,3.93,3.25-.1,2.22-1.87,2.85-3.86,2.86l-5.39,0c-7.35,0-14.7-.05-22.05,0-4.36,0-6.26,1.26-6.23,3.86s2,3.74,6.31,3.75C50.34,196,60,196,69.62,196ZM36.5,212.9c-.47-1.67-.8-2.58-1-3.52-.94-4.62-2.66-7.39-5.12-11.13-1.75-2.67-3.78-3.26-6.55-3a14.9,14.9,0,0,1-2,0c-2.13-.07-4.1-.58-4-3.2.1-2.23,1.83-2.87,3.82-2.88H28l4.54-6c-6-8.06-5.35-15.93.14-23.63-2.76-2.55-4.92-5.29-4.23-8.75.63-3.19,2.24-6.2,3.59-9.71-3.29-3.67-4-8.76-3.65-14.1-5.8.62-8.78,3-9.85,8.3-1.94,9.59-3.63,19.22-5.4,28.84-2.25,12.18-4.55,24.36-6.67,36.57-1,6,2.73,11.64,8.58,12.08C21.94,213.3,28.94,212.9,36.5,212.9Zm76.27-80.5c6.6,8.13,5.91,15.9.64,22.71,1.56,3.59,3.8,6.49,3.81,9.39,0,3.09-2.1,6.18-3.06,8.7L118.54,189c.86,0,2.14.13,3.42.18,3.53.15,5.35,1.19,5.06,3.17-.46,3.17-3,2.87-5.31,2.91-1.79,0-3.6-.07-5.38,0a7.07,7.07,0,0,0-6.44,6.63c-.22,3.53-.46,7-.71,10.85,7.11,0,14.41.4,21.63-.14,4.6-.35,7.94-5.06,7.95-9.8a35.59,35.59,0,0,0-.84-6.29c-1.13-6.25-2.33-12.49-3.49-18.73-2.59-13.94-5.14-27.88-7.78-41.81-1.07-5.63-3.72-8.09-9.5-9.06-.6.84-1.23,1.78-1.93,2.66S113.74,131.28,112.77,132.4ZM126.1,40.83c5.78-1.94,8.17-4.69,8.4-9.55s-1.87-8.38-6-10.27a9.16,9.16,0,0,0-10.86,1.9ZM41.69,202.47c-1.08,7.27,1.51,10.48,8.38,10.69a44.17,44.17,0,0,0,4.88-.06c6-.48,8.52-4.35,6.9-10.63Zm41.07,0c-.55,7.69,1.83,10.5,8.48,10.72,1.46,0,2.93.06,4.4,0,6.35-.36,9-4,7.53-11-5.22,0-10.57,0-15.91,0C85.82,202.18,84.39,202.34,82.76,202.44ZM67.63,212.82h9.74L76,202.49H69.11Z"/><path class="cls-1" d="M113.49,78.17q0-2.38,0-4.76c0-8.82,0-17.64,0-26.46,0-5.19-1.17-6.09-6.12-5.16-15.54,2.92-31.1,5.8-46.62,8.8-3.2.62-6,.44-8.79-1.52-3.61-2.51-7.48-4.66-11.33-6.81-3.42-1.9-5.26-.9-5.44,3.06-.24,5.38-.24,10.78-.26,16.17,0,1.91.53,3.79,2.82,3.88,2.47.1,3.37-1.61,3.38-3.86,0-3.56,0-7.13,0-11.57,3.63,2.12,6.65,3.67,9.42,5.56,2.93,2,5.81,2.2,9.25,1.51,14.07-2.83,28.19-5.38,42.29-8,1.43-.27,2.89-.33,4.64-.52.12,1.39.32,2.65.32,3.92,0,10.13.09,20.26,0,30.38-.14,12.84-6.17,22.41-16.84,29.16a11.1,11.1,0,0,1-5.49,1.5q-12.25.23-24.5,0a10.61,10.61,0,0,1-5.48-1.58A53.43,53.43,0,0,1,46.46,105C42.72,101.16,40.38,96.71,41,91c.42-4,.09-8.16.08-12.24,0-2.33.12-4.82-3.07-5.17-2.15-.23-3.27,1.4-3.33,5-.09,5.88,0,11.76-.06,17.64,0,.8-.09,1.59-.16,2.67-.65-.28-1.19-.33-1.36-.61C23.15,81.58,17.91,63.89,22,44.44,26,25.36,37.75,13.3,56.55,8.39,76.82,3.09,94.76,7.06,109.15,23c12.57,14,15.38,35.93,6.93,52.71-.43.85-1,1.65-1.46,2.47ZM72.57,89.3c-3.1,0-6.21-.12-9.3,0-3.4.17-4.64,1.83-4.16,5.13,1,6.94,6.52,11.49,13.72,11.36,7-.13,12.07-4.66,12.9-11.61.38-3.21-.66-4.68-3.85-4.86S75.67,89.3,72.57,89.3Zm-2.26-12c1.69-2.56,3.16-4.68,4.51-6.87.94-1.53,1.08-3.2-.5-4.34-1.75-1.25-3.45-.71-4.64,1a99.57,99.57,0,0,0-6.13,9.35c-.62,1.14-.59,3.75.16,4.29a34.41,34.41,0,0,0,8.14,4.17c.81.3,2.88-.64,3.11-1.4a5,5,0,0,0-.89-3.77C73.38,78.77,72,78.33,70.32,77.31ZM58.4,70.23c0-3.22-1.12-4.73-3.19-4.71s-3.22,1.7-3.1,5c.1,2.81,1.41,4.58,3.38,4.27C58.22,74.36,58.36,72.18,58.4,70.23Zm34.43,0c-.06-3.2-1.21-4.85-3.27-4.68-2.79.24-3.13,2.28-3.12,4.54,0,3.16,1.32,5.06,3.47,4.69C92.63,74.32,92.82,72.16,92.84,70.22Z"/><path class="cls-1" d="M69.62,196c-9.64,0-19.27,0-28.91,0-4.27,0-6.28-1.26-6.31-3.75s1.86-3.83,6.23-3.86c7.35,0,14.7,0,22.05,0l5.39,0c2,0,3.76-.65,3.86-2.86.11-2.51-1.67-3.25-3.93-3.25q-10.29,0-20.58,0a22.39,22.39,0,0,1-4.86-.37,10.77,10.77,0,0,1-8.22-10.31,10.6,10.6,0,0,1,7.83-10.09,21.88,21.88,0,0,1,5.32-.6c5.55-.07,11.11,0,16.66,0,4.57,0,6.37-.92,6-3.16-.56-3.46-3.43-2.9-5.8-2.91-7.68,0-15.35,0-23,0-1.46,0-3.11.15-4.31-.47s-2.52-2.15-2.43-3.17a5.26,5.26,0,0,1,2.57-3.57c1.33-.68,3.18-.46,4.8-.46q27.44,0,54.88,0a12.61,12.61,0,0,0,4.36-.3,3.88,3.88,0,0,0,2.28-2.63,3.83,3.83,0,0,0-2.12-2.78c-1.28-.53-2.88-.32-4.35-.32-16.33,0-32.67,0-49,0a22.86,22.86,0,0,1-6.28-.7,10.42,10.42,0,0,1-.12-19.9,22,22,0,0,1,6.27-.79c18.78-.06,37.57,0,56.35,0,.65,0,1.31,0,2,0,3.26.24,4.76,1.4,4.82,3.72s-1.45,3.69-4.6,3.93c-1.3.1-2.61,0-3.92,0l-52.43,0c-1.63,0-3.27,0-4.9.1-1.91.12-3.33,1.17-2.88,3.09A5,5,0,0,0,45,133.17c1.11.48,2.57.16,3.87.16h48a33.85,33.85,0,0,1,4.89.18,10.58,10.58,0,0,1,.75,20.86,22.31,22.31,0,0,1-3.89.36c-1.47.07-2.94,0-4.41.06-2.15,0-4,.48-4,3.17.08,2.36,1.83,2.86,3.78,2.88,3.43,0,6.86,0,10.29,0,1.14,0,2.5-.27,3.37.23,1.27.73,2.9,2,3.05,3.17s-1.25,2.65-2.16,3.85c-.31.41-1.25.3-1.83.57-2.5,1.15-3,2.78-1.47,5.07,1,1.48,2.33,2.74,3.32,4.24,2.47,3.76,3.49,7.81,1.31,12-2.26,4.36-6.11,6-10.94,6-9.8-.07-19.6,0-29.4,0Zm27.52-24.44c-1.8-1.33-2.84-2.66-4.12-3-4.4-1-6.58-4-7.78-7.95-.66-2.15-.51-4.57-1.27-6.67a4.57,4.57,0,0,0-3.07-2.45c-.75-.13-2.15,1.29-2.6,2.3-.58,1.28-.41,2.88-.71,4.31-1.07,5-3,9.25-8.75,10.53a4.1,4.1,0,0,0-2.68,2.79,4,4,0,0,0,2.49,2.91c6.21,1.37,8.08,6,9,11.38.2,1.12,0,2.45.54,3.34.68,1.09,2,2.55,3,2.5s2.1-1.6,2.86-2.7c.4-.58.12-1.59.25-2.39,1-5.72,2.65-10.82,9.42-12.14C94.73,174.18,95.54,172.93,97.14,171.57Zm-45.36-3v0c-2.12,0-4.24,0-6.36,0-1.83.05-3.17.85-3.26,2.88a2.73,2.73,0,0,0,3,3.08c4.23.08,8.49.18,12.7-.14a4.13,4.13,0,0,0,2.72-2.71c.42-1.9-1.06-3-2.93-3.05S53.73,168.58,51.77,168.58ZM96.61,182.4v-.07c-1.46,0-2.93-.08-4.38,0-1.88.12-3.32,1.19-2.88,3.08a4.18,4.18,0,0,0,2.7,2.71,34,34,0,0,0,8.72,0c1.06-.14,2.67-1.74,2.68-2.68s-1.4-2.47-2.52-2.93S98.07,182.4,96.61,182.4Z"/><path class="cls-1" d="M36.5,212.9c-7.56,0-14.56.39-21.5-.12-5.85-.44-9.61-6.09-8.58-12.08,2.12-12.21,4.42-24.38,6.67-36.57,1.77-9.62,3.46-19.26,5.4-28.84,1.07-5.29,4-7.68,9.85-8.3-.39,5.34.36,10.43,3.65,14.1-1.34,3.51-3,6.51-3.59,9.71-.69,3.46,1.47,6.2,4.23,8.75-5.49,7.7-6.17,15.57-.14,23.63l-4.54,6H21.74c-2,0-3.72.65-3.82,2.88-.12,2.62,1.85,3.13,4,3.2a14.9,14.9,0,0,0,2,0c2.77-.27,4.79.32,6.55,3,2.46,3.74,4.18,6.52,5.12,11.13C35.71,210.32,36,211.23,36.5,212.9Z"/><path class="cls-1" d="M112.77,132.4c1-1.11,1.73-1.93,2.42-2.81s1.33-1.82,1.93-2.66c5.79,1,8.44,3.43,9.5,9.06,2.64,13.93,5.19,27.87,7.78,41.81,1.16,6.24,2.36,12.48,3.49,18.73a35.59,35.59,0,0,1,.84,6.29c0,4.74-3.35,9.46-7.95,9.8-7.22.54-14.51.14-21.63.14.25-3.8.5-7.32.71-10.85a7.07,7.07,0,0,1,6.44-6.63c1.79-.12,3.59,0,5.38,0,2.28,0,4.86.26,5.31-2.91.28-2-1.53-3-5.06-3.17-1.28-.05-2.56-.14-3.42-.18l-4.38-15.78c1-2.51,3.07-5.61,3.06-8.7,0-2.91-2.25-5.81-3.81-9.39C118.69,148.3,119.37,140.52,112.77,132.4Z"/><path class="cls-1" d="M126.1,40.83l-8.41-17.92A9.16,9.16,0,0,1,128.55,21c4.08,1.9,6.18,5.52,6,10.27S131.88,38.89,126.1,40.83Z"/><path class="cls-1" d="M41.69,202.47H61.84c1.62,6.28-.93,10.15-6.9,10.63a44.17,44.17,0,0,1-4.88.06C43.19,212.95,40.6,209.75,41.69,202.47Z"/><path class="cls-1" d="M82.76,202.44c1.63-.1,3.07-.26,4.5-.26,5.34,0,10.68,0,15.91,0,1.48,7-1.17,10.62-7.53,11-1.46.08-2.93.07-4.4,0C84.59,212.94,82.2,210.13,82.76,202.44Z"/><path class="cls-1" d="M67.63,212.82l1.48-10.33H76l1.41,10.33Z"/><path class="cls-1" d="M2.63,102.31V96.72C5.83,98.4,6.45,99.72,2.63,102.31Z"/><path class="cls-1" d="M131,105.16c-2.57-1.56-2.58-3.11,0-4.74C133.47,102,133.53,103.53,131,105.16Z"/><path class="cls-2" d="M72.57,89.3c3.1,0,6.21-.14,9.3,0S86.11,91,85.73,94.2c-.83,6.95-5.87,11.48-12.9,11.61-7.2.13-12.69-4.42-13.72-11.36-.49-3.29.75-5,4.16-5.13C66.36,89.17,69.47,89.3,72.57,89.3Zm5.81,7c-5.29-.94-8.08-.84-11.42.32C70.52,100.79,74.18,100.82,78.38,96.3Z"/><path class="cls-2" d="M70.32,77.31c1.65,1,3.07,1.45,3.75,2.41A5,5,0,0,1,75,83.49c-.23.76-2.3,1.7-3.11,1.4a34.41,34.41,0,0,1-8.14-4.17c-.75-.54-.78-3.16-.16-4.29a99.57,99.57,0,0,1,6.13-9.35c1.18-1.69,2.89-2.24,4.64-1,1.59,1.14,1.45,2.82.5,4.34C73.47,72.63,72,74.75,70.32,77.31Z"/><path class="cls-2" d="M58.4,70.23c0,1.95-.19,4.14-2.92,4.56-2,.31-3.28-1.46-3.38-4.27q-.17-5,3.1-5C57.28,65.5,58.36,67,58.4,70.23Z"/><path class="cls-2" d="M92.84,70.22c0,1.94-.21,4.1-2.92,4.56-2.15.36-3.46-1.54-3.47-4.69,0-2.26.33-4.31,3.12-4.54C91.62,65.37,92.77,67,92.84,70.22Z"/><path class="cls-2" d="M97.14,171.57c-1.6,1.36-2.41,2.61-3.42,2.81-6.77,1.31-8.45,6.42-9.42,12.14-.13.8.15,1.82-.25,2.39-.76,1.1-1.84,2.64-2.86,2.7s-2.27-1.41-3-2.5c-.55-.88-.34-2.22-.54-3.34-1-5.4-2.84-10-9-11.38a4,4,0,0,1-2.49-2.91,4.1,4.1,0,0,1,2.68-2.79c5.75-1.28,7.68-5.51,8.75-10.53.3-1.43.13-3,.71-4.31.46-1,1.85-2.43,2.6-2.3A4.57,4.57,0,0,1,84,154c.76,2.1.61,4.52,1.27,6.67,1.2,3.91,3.38,6.94,7.78,7.95C94.29,168.91,95.34,170.24,97.14,171.57ZM81,167.24l-3.48,4.45,3.65,4,3.36-4.14Z"/><path class="cls-2" d="M51.77,168.58c2,0,3.91-.08,5.87,0s3.35,1.16,2.93,3.05a4.13,4.13,0,0,1-2.72,2.71c-4.21.32-8.46.22-12.7.14a2.73,2.73,0,0,1-3-3.08c.09-2,1.43-2.82,3.26-2.88,2.12-.06,4.24,0,6.36,0Z"/><path class="cls-2" d="M96.61,182.4c1.46,0,3.08-.39,4.33.12s2.53,1.92,2.52,2.93-1.62,2.55-2.68,2.68a34,34,0,0,1-8.72,0,4.18,4.18,0,0,1-2.7-2.71c-.44-1.89,1-3,2.88-3.08,1.45-.1,2.92,0,4.38,0Z"/><path class="cls-1" d="M78.38,96.3c-4.2,4.52-7.86,4.5-11.42.32C70.3,95.45,73.09,95.35,78.38,96.3Z"/><path class="cls-1" d="M81,167.24l3.52,4.29-3.36,4.14-3.65-4Z"/></g></g></svg>