<svg xmlns="http://www.w3.org/2000/svg" viewBox="0 0 186.62 209.2"><defs><style>.cls-1{fill:#fff;}.cls-2{fill:#297172;}</style></defs><title>資產 4</title><g id="圖層_2" data-name="圖層 2"><g id="圖層_1-2" data-name="圖層 1"><path class="cls-1" d="M99.14,56.36V200.07H29.67c0-2,0-3.73,0-5.41q0-27.07,0-54.14c0-2,.36-4.26-.39-6-.67-1.54-2.66-3.46-4.05-3.44s-3,2.05-4,3.54c-.6.87-.26,2.42-.26,3.66q0,31.74,0,63.48c0,6.53,1,7.44,7.66,7.44h150.3c6.63,0,7.63-1,7.63-7.48q0-81.45.07-162.9c0-4.54-1.35-7.44-5.17-10C168.55,20.15,155.93,11.05,143,2.34A13.91,13.91,0,0,0,135.77.13q-32.21-.25-64.41,0a13,13,0,0,0-6.8,2.19C51.19,11.43,37.91,20.67,24.8,30.14a9.78,9.78,0,0,0-3.68,6.3c-.5,6.18-.18,12.43-.16,18.65,0,3.05.69,5.88,4.47,5.77s4.21-3,4.22-6c0-4.82-.07-9.65.07-14.47,0-1.29.31-3.13,1.17-3.74,6.15-4.36,12.49-8.47,19-12.79,1.62,2.88,2.92,5.17,4.19,7.48C60.17,42.52,66.19,53.76,72.39,64.9,75.67,70.79,77,71,82.61,67.38,87.9,63.95,93.11,60.39,99.14,56.36ZM26.3,69.16l-2,0c-1.11,1.74-2.84,3.36-3.24,5.25C18.68,85.78,15.24,89.21,4,91.68c-1.64.36-3.9,2.57-4,4S2.11,99.86,3.55,100c10.71,1.33,16.37,7.09,17.63,17.78.18,1.5,2.71,3.77,4.15,3.77s3.9-2.3,4.09-3.82c1.3-10.68,7-16.44,17.69-17.7,1.56-.18,4.19-2.88,4-3.94-.35-1.74-2.41-4.09-4.12-4.45-11.7-2.52-15.11-5.84-17.43-17.35C29.16,72.47,27.41,70.88,26.3,69.16Z"/><path class="cls-2" d="M99.14,56.36c-6,4-11.24,7.59-16.54,11C77,71,75.67,70.79,72.39,64.9c-6.2-11.14-12.22-22.38-18.33-33.58-1.26-2.31-2.57-4.6-4.19-7.48-6.49,4.33-12.82,8.43-19,12.79-.86.61-1.14,2.45-1.17,3.74-.14,4.82-.05,9.65-.07,14.47,0,3-.44,5.93-4.22,6S21,58.16,21,55.1c0-6.22-.34-12.47.16-18.65a9.78,9.78,0,0,1,3.68-6.3C37.91,20.67,51.19,11.43,64.55,2.32A13,13,0,0,1,71.35.12q32.21-.24,64.41,0A13.91,13.91,0,0,1,143,2.34c12.88,8.71,25.5,17.8,38.4,26.47,3.82,2.56,5.18,5.46,5.17,10q-.19,81.45-.07,162.9c0,6.49-1,7.48-7.63,7.48H28.63c-6.69,0-7.65-.91-7.66-7.44q0-31.74,0-63.48c0-1.24-.33-2.78.26-3.66,1-1.49,2.64-3.52,4-3.54s3.38,1.91,4.05,3.44c.75,1.73.39,4,.39,6q0,27.07,0,54.14c0,1.68,0,3.37,0,5.41H99.14Zm9.21,0V200.07h69.48c0-2.2,0-4,0-5.88q0-27.78,0-55.55,0-48.55,0-97.1c0-1.71-.29-4.2-1.4-5-6-4.31-12.32-8.2-18.79-12.4-7.68,14-15.07,27.48-22.49,41-3.14,5.71-4.64,6-10.2,2.35C119.63,64,114.39,60.43,108.35,56.39ZM78.27,9.08,103.78,41,129.17,9.08ZM57.11,18.7,79.16,59,97.35,47,68.09,10.46Zm71.28,40.36,22-40.41-11-8.21L110.16,47Z"/><path class="cls-2" d="M26.3,69.16c1.11,1.72,2.86,3.31,3.24,5.17C31.87,85.84,35.27,89.17,47,91.69c1.71.37,3.77,2.71,4.12,4.45.21,1.06-2.42,3.76-4,3.94-10.73,1.25-16.39,7-17.69,17.7-.18,1.52-2.67,3.82-4.09,3.82s-4-2.27-4.15-3.77C19.92,107.13,14.26,101.37,3.55,100,2.11,99.86-.08,97.15,0,95.72s2.34-3.68,4-4C15.24,89.21,18.68,85.78,21,74.45c.4-1.89,2.13-3.51,3.24-5.25Z"/><path class="cls-1" d="M108.35,56.39c6,4,11.28,7.57,16.54,11.07,5.57,3.7,7.06,3.36,10.2-2.35,7.42-13.48,14.81-27,22.49-41,6.47,4.2,12.78,8.09,18.79,12.4,1.11.79,1.39,3.29,1.4,5q.1,48.55,0,97.1,0,27.78,0,55.55c0,1.84,0,3.68,0,5.88H108.35Zm17.19,49.14h0c0,5.43-.18,10.87,0,16.3.32,8.06,5.23,12.94,13.3,13.22,5.74.2,11.49.23,17.22,0,7.91-.33,12.93-5.56,13-13.5.11-10.86,0-21.73.07-32.59,0-4.34-1.86-6.25-6.15-6.21-10.55.08-21.11.11-31.66,0-4.2,0-5.87,2-5.82,6C125.6,94.35,125.54,99.94,125.54,105.52ZM122.82,78.3c-2.81-1.89-4.52-3.94-6-3.77S114,77,112.61,78.35c1.48,1.44,2.81,3.73,4.5,4C118.38,82.64,120.13,80.34,122.82,78.3Zm-6.27,20.32c-1.84,2.83-3.87,4.57-3.68,6s2.34,3.67,3.94,4c2.68.53,4.6-1.62,4.06-4.29C120.53,102.65,118.64,101.27,116.55,98.62Zm-.07,25.91c-1.84,3.08-3.78,4.9-3.64,6.54.12,1.41,2.95,3.88,4,3.61a6.35,6.35,0,0,0,3.92-4.31C121,129.06,118.69,127.38,116.48,124.53ZM123,156.62c-3.07-1.85-4.87-3.8-6.49-3.65-1.42.12-3.93,2.92-3.66,3.93a6.43,6.43,0,0,0,4.28,4C118.46,161.08,120.16,158.82,123,156.62Z"/><path class="cls-1" d="M78.27,9.08h50.91L103.78,41Z"/><path class="cls-1" d="M57.11,18.7l11-8.24L97.35,47,79.16,59Z"/><path class="cls-1" d="M128.38,59.07,110.16,47l29.22-36.51,11,8.21Z"/><path class="cls-2" d="M125.54,105.52c0-5.59.06-11.18,0-16.76-.05-4,1.62-6,5.82-6,10.55.07,21.11,0,31.66,0,4.29,0,6.19,1.88,6.15,6.21-.11,10.86,0,21.73-.07,32.59-.08,7.94-5.1,13.17-13,13.5-5.73.24-11.49.22-17.22,0-8.07-.29-13-5.16-13.3-13.22-.22-5.42,0-10.86,0-16.3Zm8.75-13.81c0,7.54.08,14.64,0,21.74-.2,14-.45,13,12.77,12.95,14-.06,13.32,1.21,13.32-13.43,0-7.06,0-14.13,0-21.27Z"/><path class="cls-2" d="M122.82,78.3c-2.69,2-4.44,4.34-5.71,4.1-1.69-.32-3-2.61-4.5-4,1.4-1.37,2.7-3.66,4.24-3.83S120,76.41,122.82,78.3Z"/><path class="cls-2" d="M116.55,98.62c2.09,2.66,4,4,4.32,5.72.54,2.67-1.38,4.82-4.06,4.29-1.6-.32-3.74-2.45-3.94-4S114.71,101.45,116.55,98.62Z"/><path class="cls-2" d="M116.48,124.53c2.21,2.86,4.47,4.53,4.27,5.84a6.35,6.35,0,0,1-3.92,4.31c-1.05.27-3.88-2.2-4-3.61C112.7,129.43,114.64,127.61,116.48,124.53Z"/><path class="cls-2" d="M123,156.62c-2.88,2.21-4.58,4.46-5.87,4.25a6.43,6.43,0,0,1-4.28-4c-.27-1,2.24-3.81,3.66-3.93C118.18,152.82,120,154.76,123,156.62Z"/><path class="cls-1" d="M133.37,89.26h27.9c0,7.64,0,15.2,0,22.77,0,15.66.75,14.31-14.25,14.37-14.14.06-13.88,1.09-13.67-13.86C133.46,104.94,133.37,97.33,133.37,89.26Z"/></g></g></svg>