<svg xmlns="http://www.w3.org/2000/svg" viewBox="0 0 173.58 208.13"><defs><style>.cls-1{fill:#fff;stroke:#297172;stroke-miterlimit:10;}.cls-2{fill:#297172;}</style></defs><title>資產 2</title><g id="圖層_2" data-name="圖層 2"><g id="圖層_1-2" data-name="圖層 1"><path class="cls-1" d="M.68,103.92c0,26.66.4,53.32-.17,80-.28,12.88,8.26,24,23.76,23.74,13.92-.25,27.86-.05,41.78-.05,28,0,56,0,84,0,14.55,0,23-8.59,23-23q0-80.77,0-161.53c0-13.45-8.66-22.41-22-22.44Q86.8.44,22.52.57C9.4.6.7,9.61.69,22.76Q.66,63.34.68,103.92Z"/><path class="cls-2" d="M.68,103.92q0-40.58,0-81.16C.7,9.61,9.4.6,22.52.57Q86.79.43,151.06.56c13.35,0,22,9,22,22.44q0,80.77,0,161.53c0,14.43-8.5,23-23,23-28,.06-56,0-84,0-13.93,0-27.86-.2-41.78.05C8.76,207.9.23,196.76.51,183.88,1.08,157.24.68,130.58.68,103.92Zm86.4-55.57H13.85c-5.62,0-5.63,0-5.64,5.8q0,65.06,0,130.11c0,10.41,4.91,15.28,15.37,15.28q63.28,0,126.56,0c10.46,0,15.39-4.88,15.39-15.27q0-65.26,0-130.51c0-5.39,0-5.41-5.62-5.42Zm27.12-8c15.65,0,31.31-.06,47,0,3.2,0,4.58-1,4.43-4.32-.21-4.9.08-9.82-.11-14.72-.3-7.51-5.53-12.72-13-12.74-28.39-.09-56.77,0-85.16-.09-3.1,0-4.22,1.08-4.16,4.18.15,7.56.22,15.12,0,22.67-.12,3.78,1.07,5.09,4.94,5C83.43,40.22,98.81,40.33,114.2,40.33Zm-82.47,0c6.5,0,13-.11,19.49,0,3.16.08,4.55-.88,4.47-4.28-.19-7.82-.17-15.64,0-23.46.06-3.17-1.18-4.16-4.21-4.12-9.94.12-19.89,0-29.83.08-7.94.09-13.17,5.3-13.38,13.22-.13,4.77.13,9.55-.09,14.31-.16,3.43,1.33,4.34,4.48,4.26C19,40.21,25.37,40.33,31.73,40.33Z"/><path class="cls-1" d="M114.2,40.33c-15.39,0-30.78-.11-46.16.08-3.87,0-5.07-1.26-4.94-5,.24-7.55.18-15.12,0-22.67-.06-3.11,1.06-4.19,4.16-4.18,28.39.08,56.77,0,85.16.09,7.51,0,12.74,5.24,13,12.74.2,4.9-.1,9.82.11,14.72.15,3.36-1.23,4.34-4.43,4.32C145.51,40.27,129.85,40.33,114.2,40.33ZM86.93,36.6A11.94,11.94,0,0,0,99,24.18a12.17,12.17,0,0,0-24.34.11A11.92,11.92,0,0,0,86.93,36.6Zm47.86-8.16v0c6.64,0,13.27.07,19.91,0,2.5,0,4.86-1.35,4.36-4-.29-1.5-2.67-2.64-4.2-3.84-.34-.27-1-.1-1.56-.1q-18.31,0-36.63,0c-2.8,0-5.77.36-5.81,3.9,0,3.83,3.12,4.07,6,4.08C122.84,28.46,128.82,28.44,134.79,28.44Z"/><path class="cls-2" d="M86.87,68.9c30.25,0,55.11,24.83,55.07,54.94A55.39,55.39,0,0,1,86.65,179c-30.33-.06-54.95-25-54.84-55.58C31.91,93.53,56.82,68.87,86.87,68.9Zm.53,7.59c-25.75.42-47.24,18.73-47.82,46.94-.52,25.3,18.41,47.16,46.36,47.81,26,.6,48-18.85,48.22-47.15C134.37,99,115.73,77.74,87.4,76.49Z"/><path class="cls-2" d="M86.93,36.6A11.92,11.92,0,0,1,74.7,24.3,12.17,12.17,0,0,1,99,24.18,11.94,11.94,0,0,1,86.93,36.6Zm1.33-16.82c-4.18.22-5.8,1.8-5.85,4.56s1.42,4.61,4.33,4.61,4.87-1.68,4.48-4.38C91,22.68,89.07,21,88.26,19.79Z"/><path class="cls-2" d="M134.79,28.44c-6,0-11.94,0-17.92,0-2.91,0-6.07-.25-6-4.08,0-3.54,3-3.9,5.81-3.9q18.31,0,36.63,0c.53,0,1.22-.17,1.56.1,1.53,1.2,3.91,2.33,4.2,3.84.5,2.63-1.86,3.94-4.36,4-6.63.11-13.27,0-19.91,0Z"/><path class="cls-1" d="M87.4,76.49c28.33,1.25,47,22.47,46.76,47.59-.23,28.3-22.23,47.75-48.22,47.15-28-.65-46.88-22.51-46.36-47.81C40.16,95.22,61.65,76.91,87.4,76.49Zm-.6,8.25a39.22,39.22,0,1,0,39.3,39.37A38.79,38.79,0,0,0,86.81,84.73Z"/><path class="cls-1" d="M88.26,19.79c.81,1.23,2.69,2.89,3,4.78.38,2.7-1.7,4.38-4.48,4.38s-4.38-1.88-4.33-4.61S84.08,20,88.26,19.79Z"/><path class="cls-2" d="M86.81,84.73a39.22,39.22,0,1,1-39.16,39.05A38.89,38.89,0,0,1,86.81,84.73Zm.18,70.9a31.68,31.68,0,1,0-31.8-31.46A31.63,31.63,0,0,0,87,155.64Z"/><path class="cls-1" d="M87,155.64a31.68,31.68,0,1,1,31.58-31.69A31.63,31.63,0,0,1,87,155.64Z"/></g></g></svg>