<svg xmlns="http://www.w3.org/2000/svg" viewBox="0 0 275 316"><defs><style>.cls-1{fill:#fff;}</style></defs><title>資產 1</title><g id="圖層_2" data-name="圖層 2"><g id="圖層_1-2" data-name="圖層 1"><path class="cls-1" d="M0,0H275V316H0ZM28.76,164.8c0,33.49.51,67-.21,100.46-.35,16.19,10.37,30.18,29.85,29.82,17.49-.31,35-.06,52.5-.06q52.74,0,105.49,0c18.28-.05,29-10.8,29-28.92q0-101.47,0-202.94C245.34,46.25,234.47,35,217.7,35Q137,34.8,56.21,35c-16.5,0-27.43,11.36-27.44,27.87Q28.74,113.82,28.76,164.8Z"/><path d="M28.76,164.8q0-51,0-102C28.78,46.32,39.71,35,56.21,35Q137,34.78,217.7,35c16.77,0,27.64,11.3,27.64,28.19q0,101.48,0,202.94c0,18.12-10.68,28.87-29,28.92q-52.74.11-105.49,0c-17.5,0-35-.25-52.5.06-19.48.36-30.2-13.63-29.85-29.82C29.27,231.79,28.76,198.29,28.76,164.8ZM137.31,95h-92c-7.07,0-7.08,0-7.08,7.28q0,81.74,0,163.47c0,13.07,6.17,19.2,19.31,19.2q79.5,0,159,0c13.14,0,19.33-6.13,19.33-19.19q0-82,0-164c0-6.78,0-6.8-7.06-6.81Q183.07,95,137.31,95Zm34.08-10.07c19.66,0,39.33-.08,59,.06,4,0,5.75-1.2,5.57-5.43-.27-6.15.1-12.33-.14-18.48-.38-9.43-6.95-16-16.39-16-35.66-.12-71.32,0-107-.12-3.89,0-5.3,1.35-5.22,5.25.19,9.5.27,19,0,28.49-.15,4.75,1.35,6.39,6.21,6.33C132.72,84.77,152.05,84.91,171.39,84.91Zm-103.61,0c8.16,0,16.33-.13,24.48.06,4,.1,5.72-1.1,5.62-5.38-.24-9.82-.21-19.65,0-29.47.08-4-1.48-5.23-5.29-5.18-12.49.15-25,0-37.48.09-10,.11-16.55,6.66-16.82,16.61-.16,6,.17,12-.11,18-.2,4.31,1.67,5.45,5.63,5.35C51.78,84.77,59.78,84.91,67.78,84.9Z"/><path class="cls-1" d="M171.39,84.91c-19.34,0-38.67-.14-58,.09-4.86.06-6.36-1.58-6.21-6.33.3-9.49.22-19,0-28.49-.08-3.9,1.33-5.26,5.22-5.25,35.67.1,71.33,0,107,.12,9.44,0,16,6.58,16.39,16,.24,6.15-.13,12.33.14,18.48.18,4.23-1.55,5.45-5.57,5.43C210.72,84.83,191.05,84.91,171.39,84.91Zm-34.27-4.68a15.29,15.29,0,1,0-15.36-15.46A15,15,0,0,0,137.12,80.23ZM197.25,70v-.06c8.34,0,16.67.09,25,0,3.13,0,6.11-1.69,5.47-5-.36-1.88-3.36-3.31-5.27-4.82-.43-.33-1.3-.12-2-.12q-23,0-46,0c-3.52,0-7.26.45-7.31,4.9,0,4.82,3.92,5.11,7.57,5.13C182.24,70,189.75,70,197.25,70Z"/><path d="M137.05,120.8c38,0,69.24,31.2,69.19,69a69.59,69.59,0,0,1-69.47,69.31c-38.11-.08-69-31.42-68.9-69.84C68,151.75,99.29,120.76,137.05,120.8Zm.67,9.54c-32.35.52-59.35,23.53-60.08,59-.66,31.79,23.12,59.26,58.24,60.07,32.65.75,60.3-23.68,60.58-59.24C196.72,158.57,173.31,131.91,137.72,130.34Z"/><path d="M137.12,80.23a15.29,15.29,0,1,1,15.22-15.61A15,15,0,0,1,137.12,80.23ZM138.8,59.1c-5.25.27-7.3,2.26-7.35,5.72s1.79,5.79,5.44,5.79,6.11-2.11,5.63-5.5C142.18,62.73,139.81,60.64,138.8,59.1Z"/><path d="M197.25,70c-7.5,0-15,0-22.51,0-3.65,0-7.62-.31-7.57-5.13.05-4.45,3.79-4.9,7.31-4.9q23,0,46,0c.67,0,1.54-.21,2,.12,1.91,1.51,4.91,2.94,5.27,4.82.64,3.31-2.34,5-5.47,5-8.34.14-16.67,0-25,0Z"/><path class="cls-1" d="M137.72,130.34c35.59,1.57,59,28.23,58.74,59.79-.28,35.56-27.93,60-60.58,59.24-35.12-.81-58.9-28.28-58.24-60.07C78.37,153.87,105.37,130.86,137.72,130.34ZM137,140.7a48.72,48.72,0,0,0-49.2,49.06c0,27.76,21.62,49.49,49.32,49.48A49.27,49.27,0,1,0,137,140.7Z"/><path class="cls-1" d="M138.8,59.1c1,1.54,3.38,3.63,3.72,6,.48,3.39-2.13,5.5-5.63,5.5s-5.5-2.36-5.44-5.79S133.55,59.37,138.8,59.1Z"/><path d="M137,140.7a49.27,49.27,0,1,1,.12,98.54c-27.7,0-49.35-21.72-49.32-49.48A48.72,48.72,0,0,1,137,140.7Zm.23,89.08a39.81,39.81,0,1,0-40-39.53A39.75,39.75,0,0,0,137.2,229.78Z"/><path class="cls-1" d="M137.2,229.78A39.81,39.81,0,1,1,176.87,190,39.75,39.75,0,0,1,137.2,229.78Z"/></g></g></svg>