<svg xmlns="http://www.w3.org/2000/svg" xmlns:xlink="http://www.w3.org/1999/xlink" viewBox="0 0 739 766.77"><defs><style>.cls-1,.cls-4{fill:#297172;}.cls-11,.cls-2,.cls-3,.cls-5,.cls-7,.cls-8{fill:none;}.cls-2{stroke:#231815;}.cls-11,.cls-2,.cls-3,.cls-4,.cls-5,.cls-7,.cls-8{stroke-miterlimit:10;}.cls-2,.cls-7{stroke-width:1.3px;}.cls-3,.cls-4{stroke:#297172;}.cls-3{stroke-width:9.97px;}.cls-4{stroke-width:8.55px;}.cls-5,.cls-7,.cls-8{stroke:#fff;}.cls-5{stroke-width:2.47px;}.cls-6{fill:#fff;}.cls-8{stroke-width:1.37px;}.cls-9{font-size:60px;font-family:DFZongYi-Bd-HKP-BF, DFPZongYiBold-B5;}.cls-10,.cls-9{fill:#231815;}.cls-10{font-size:30px;font-family:HanziPenTC-W5-B5pc-H, HanziPen TC;font-weight:700;}.cls-11{stroke-width:7px;stroke:url(#未命名漸層_49);}</style><linearGradient id="未命名漸層_49" y1="390.27" x2="739" y2="390.27" gradientUnits="userSpaceOnUse"><stop offset="0" stop-color="#296e6f"/><stop offset="0.32" stop-color="#00a087"/><stop offset="1" stop-color="#57b6b8"/></linearGradient></defs><title>資產 1</title><g id="圖層_2" data-name="圖層 2"><g id="圖層_1-2" data-name="圖層 1"><g id="Page-1"><g id="_021---Laundry-Basket" data-name="021---Laundry-Basket"><path id="Shape" class="cls-1" d="M328.08,204.34V181.7a13.58,13.58,0,1,0-27.17,0v1.11l-4.73-2.55-6-15.13A38.48,38.48,0,0,0,233.78,147l-10.54,6.71-3.17-1.94a35.92,35.92,0,0,0-31.24-3.17l-9.06-4a45.32,45.32,0,0,0-18.22-3.87,44.16,44.16,0,0,0-20,4.73,45.13,45.13,0,0,0-18,16.3l-10.32,16.53-2.64,1.65a13.55,13.55,0,0,0-27,1.81v22.64A13.58,13.58,0,0,0,70,217.92V227a13.58,13.58,0,0,0,13.58,13.58h5.58c.66,5.53,1.92,16,3.17,26.54,1.81,15,3.59,30,3.62,30.29a59,59,0,0,0,58.48,51.84H257.22a59,59,0,0,0,58.46-51.84c0-.38,5.2-43.36,6.79-56.83h5.6A13.58,13.58,0,0,0,341.66,227v-9.06a13.58,13.58,0,0,0-13.58-13.58ZM310,181.7a4.53,4.53,0,1,1,9.06,0v22.64H310Zm-9.06,22.64H110.76V190.45l12.73-8a36.18,36.18,0,0,1,29-4.15c.87.25,1.73.54,2.5.81L173.95,186l-2.59.86a4.53,4.53,0,1,0,2.87,8.6l65.79-22c.2-.05.45-.12.91-.27A36.35,36.35,0,0,1,269,175.89l31.93,17.2ZM238.64,154.6a29.43,29.43,0,0,1,43.07,13.89l2,5.1-10.49-5.65a45.28,45.28,0,0,0-33-3.83l-8.42-5.17Zm-93.07-1.09a36,36,0,0,1,30.54-.67l2.38,1.05L173,157.18a4.53,4.53,0,0,0,4.66,7.77l9.45-5.67a27,27,0,0,1,28.21.16l13.56,8.33-41.11,13.68-29.71-10.81c-1-.34-2-.69-3.06-1a45.16,45.16,0,0,0-26,.48l2.24-3.58a36,36,0,0,1,14.37-13ZM92.65,181.7a4.53,4.53,0,1,1,9.06,0v22.64H92.65ZM269.89,285.83H236.09l.53-18.11h34.68Zm10.48-18.11h29.75c-.79,6.57-1.56,13-2.17,18.11H279ZM265.88,313H234.64c.56-5.13,1-10.45,1.15-16l0-2.08h33.39l-.12,1.59A73.12,73.12,0,0,1,265.86,313Zm-79.68,0c-.59-5.18-1-10.59-1.2-16.3l-.05-1.81h41.87l-.05,1.81c-.17,5.7-.61,11.11-1.2,16.3Zm-40.35,0a73.09,73.09,0,0,1-3.21-16.51l-.16-1.6h33.37l.06,2.08c.16,5.59.59,10.9,1.15,16Zm-42.11-27.17-2.17-18.11h29.74l1.4,18.11Zm36.67-18.11H175l.53,18.11h-33.8Zm43.69,0h43.46L227,285.83H184.64Zm52.76-9.06.52-18.11h36L272,258.67Zm-9.06,0h-44l-.53-18.11h45Zm-53.53-18.11.52,18.11H139.68l-1.39-18.11Zm-45.07,0,1.39,18.11H100.46l-2.17-18.11ZM104.87,296.3a13.41,13.41,0,0,0-.12-1.41h28.65l.18,2.3A83.51,83.51,0,0,0,136.34,313H110.17A49.54,49.54,0,0,1,105,296.29Zm11.28,25.75h23.33a53.17,53.17,0,0,0,12,17.91A49.8,49.8,0,0,1,116.15,322.05Zm33.34,0h28.76a73.25,73.25,0,0,0,4.94,18.11H172.78c-9,0-17.54-6.79-23.29-18.11Zm44.27,18.11c-1.13-.84-4.07-5.55-6.34-18.11h36.85c-2.26,12.56-5.22,17.27-6.34,18.11Zm34.72,0a73.45,73.45,0,0,0,4.95-18.11h28.77c-5.76,11.29-14.33,18.11-23.3,18.11Zm31.69-.2a53.17,53.17,0,0,0,12-17.91h23.33A49.8,49.8,0,0,1,260.16,340Zm41.34-27H275.32a83.54,83.54,0,0,0,2.78-15.82l.17-2.29h28.58l-.17,1.4A49.54,49.54,0,0,1,301.5,313Zm9.71-54.33H281.07l1.39-18.11h30.91C312.86,244.86,312.07,251.47,311.21,258.67ZM332.6,227a4.53,4.53,0,0,1-4.53,4.53H83.59A4.53,4.53,0,0,1,79.06,227v-9.06a4.53,4.53,0,0,1,4.53-4.53H328.08a4.53,4.53,0,0,1,4.53,4.53Z"/></g></g><path class="cls-2" d="M369.5,499.94"/><path class="cls-3" d="M309.35,436.45H441.46c4.92,0,8.91,4.28,8.91,9.57v12.14h3.17a12.14,12.14,0,0,1,5.17.87,11.32,11.32,0,0,1,4.88,3.8L465,476.27"/><path class="cls-3" d="M434.94,436.45H297.78c-4.92,0-8.91,4.28-8.91,9.57v12.14H285.7a10.38,10.38,0,0,0-7.4,1.58,9,9,0,0,0-3.74,5.63l-1.9,11.92"/><polygon class="cls-4" points="474.08 512.47 264.92 512.47 266.28 475.58 471.61 474.35 474.08 512.47"/><polygon class="cls-3" points="433.87 684.49 301.66 684.49 278.93 499.44 456.6 499.44 433.87 684.49"/><path class="cls-1" d="M444.76,640.56l-154.43.7c-3.58,0-6.63-3.08-7.15-7.27l-10.44-83.06c-.65-5.15,2.73-9.78,7.13-9.78h175.7c4.42,0,7.8,4.67,7.12,9.84l-10.84,82.36C451.31,637.49,448.3,640.55,444.76,640.56Z"/><circle class="cls-5" cx="367.72" cy="591.96" r="43.55"/><path class="cls-5" d="M366.57,591.31"/><path class="cls-5" d="M324.54,595.71c10.24-10,18.66-12,24.43-12.05,15.56-.08,22.62,14.42,38.77,14.66,9.91.15,18.07-5.14,23.39-9.59"/><ellipse class="cls-6" cx="352.31" cy="569.48" rx="4.81" ry="3.09"/><ellipse class="cls-6" cx="382.94" cy="566.63" rx="3.34" ry="2.85"/><circle class="cls-7" cx="384.81" cy="615.42" r="2.77"/><path class="cls-5" d="M417.41,588.71a45.93,45.93,0,0,1-14.85,39.72"/><path class="cls-5" d="M333.89,554.07a45.93,45.93,0,0,0-15.73,39.38"/><path class="cls-6" d="M627.15,196.77c0-2,0-3.61,0-5.27,0-10.41.14-20.83-.09-31.23-.41-19.06-14.39-33.67-32.7-33.79q-48.64-.31-97.29,0c-17.66.11-32.45,14.73-32.51,32.35q-.27,82.44,0,164.88c.07,17.2,14.55,31.89,31.7,32.07q49.41.51,98.82,0a32,32,0,0,0,31.35-28.92c1-11.69.5-23.52.66-35.29,0-1.94,0-3.89,0-6,27.16,6.53,45.42,1.09,58.18-16.91,11.2-15.79,12-37.56,1-53.42C671.75,194.21,651.56,189.35,627.15,196.77Z"/><path class="cls-1" d="M627.15,196.77c24.41-7.42,44.6-2.56,59.15,18.48,11,15.86,10.19,37.63-1,53.42-12.76,18-31,23.43-58.18,16.91,0,2.12,0,4.06,0,6-.16,11.77.37,23.6-.66,35.29a32,32,0,0,1-31.35,28.92q-49.41.43-98.82,0c-17.15-.18-31.63-14.87-31.7-32.07q-.32-82.44,0-164.88c.06-17.62,14.85-32.24,32.51-32.35q48.64-.31,97.29,0c18.32.12,32.29,14.74,32.7,33.79.23,10.41.07,20.82.09,31.23C627.15,193.15,627.15,194.81,627.15,196.77Zm-20.48,73.36C583.93,315,530.88,316.55,503,292.57c-30.33-26.08-32.48-71.42-4.41-99,13.57-13.32,30-20.11,49-19.37,27.31,1.06,46.68,14.94,59.34,38.86,2.33-2.45,4.1-4.83,6.36-6.57,3.33-2.55,4.28-5.59,4.18-9.69-.27-11.6-.09-23.21-.14-34.82-.07-16.45-9.57-26-26.14-26.05q-45.32-.11-90.63,0c-17.05,0-26.48,9.62-26.56,26.8,0,8.88,0,17.75,0,26.63q0,65.29,0,130.57c0,16,9.15,26.15,24.42,26.3q47.1.43,94.22,0c15.21-.14,24.43-9.73,24.65-24.86.19-12.8.08-25.6,0-38.4,0-1.56-.39-3.57-1.39-4.6C613,275.35,609.65,272.73,606.67,270.12Zm-61,28.38a56.94,56.94,0,0,0,54-38.31,12,12,0,0,0,.31-6.35,54.47,54.47,0,0,1,0-25.33,12.07,12.07,0,0,0-.26-6.34,56.7,56.7,0,0,0-63-37.54c-28.92,4.77-50.32,31-48.19,59C490.85,275.25,515.07,298.47,545.7,298.51Zm100.79-19.21a38.14,38.14,0,1,0-38.55-38.07A38.23,38.23,0,0,0,646.49,279.29Z"/><path class="cls-8" d="M606.67,270.12c3,2.6,6.31,5.23,9.24,8.25,1,1,1.38,3,1.39,4.6.11,12.8.22,25.6,0,38.4-.23,15.13-9.45,24.72-24.65,24.86q-47.11.44-94.22,0c-15.26-.14-24.4-10.33-24.42-26.3q-.08-65.29,0-130.57c0-8.88,0-17.75,0-26.63.07-17.18,9.51-26.77,26.56-26.8q45.32-.09,90.63,0c16.57,0,26.07,9.6,26.14,26.05,0,11.61-.13,23.22.14,34.82.09,4.1-.85,7.14-4.18,9.69-2.27,1.73-4,4.12-6.36,6.57-12.67-23.92-32-37.79-59.34-38.86-19-.74-35.45,6-49,19.37-28.07,27.56-25.92,72.89,4.41,99C530.88,316.55,583.93,315,606.67,270.12Zm1.25-110.38a14.35,14.35,0,1,0-14.23,14.47A14.33,14.33,0,0,0,607.92,159.74ZM593.77,336.68a14.21,14.21,0,0,0,14.14-14.45,14.35,14.35,0,1,0-28.7.39A14.27,14.27,0,0,0,593.77,336.68ZM483.71,159.37a14.17,14.17,0,0,0,13.74,14.82,14.37,14.37,0,0,0,14.82-13.84,14.21,14.21,0,0,0-13.84-14.74A14.06,14.06,0,0,0,483.71,159.37Zm14.11,177.31a14.3,14.3,0,1,0-14.13-14.36A14,14,0,0,0,497.83,336.68Z"/><path class="cls-6" d="M545.7,298.51c-30.62,0-54.85-23.25-57.24-54.86-2.12-28,19.27-54.23,48.19-59a56.7,56.7,0,0,1,63,37.54,12.07,12.07,0,0,1,.26,6.34,54.47,54.47,0,0,0,0,25.33,12,12,0,0,1-.31,6.35A56.94,56.94,0,0,1,545.7,298.51Zm14.37-57.36c0-10.73.08-21.47,0-32.2-.09-9.11-5.88-15.46-14-15.64-8.34-.18-14.61,6.26-14.66,15.64q-.18,32.2,0,64.41c.07,9.53,6.16,15.79,14.61,15.61,8.2-.18,13.94-6.46,14-15.61C560.14,262.61,560.07,251.88,560.07,241.14Z"/><path class="cls-6" d="M646.49,279.29a38.14,38.14,0,1,1,37.91-38.22A38.15,38.15,0,0,1,646.49,279.29Zm4.72-13.9c8.76-2,13.3-6.44,14-13.23.79-7.44-2.92-11.83-13.94-16.54v-8.83c3.2,0,6.26.6,8.89-.2,2-.59,3.39-3,5.06-4.59-1.68-1.56-3.12-3.94-5.08-4.49-2.78-.77-5.93-.2-9-.2-.09-1.66-.21-2.51-.17-3.35.17-3.35-1-5.94-4.62-6.1s-5.13,2.32-4.91,5.71c.19,2.89-1.26,3.56-3.81,4.2a13.91,13.91,0,0,0-10.52,13c-.33,6.06,2.84,12.51,8.52,13.7,7.16,1.5,6,5.75,5.39,11-2.66,0-5.18,0-7.69,0-3.24,0-6,.82-6.09,4.59-.13,4.14,2.8,5,6.21,5h7.4c1,4.23-.43,9.65,5.6,9.3C651.91,274.05,650.66,269.14,651.21,265.4Z"/><path class="cls-1" d="M607.92,159.74a14.35,14.35,0,1,1-14.47-14.17A14.43,14.43,0,0,1,607.92,159.74Z"/><path class="cls-1" d="M593.77,336.68a14.27,14.27,0,0,1-14.56-14.06,14.35,14.35,0,1,1,28.7-.39A14.21,14.21,0,0,1,593.77,336.68Z"/><path class="cls-1" d="M483.71,159.37a14.06,14.06,0,0,1,14.73-13.75,14.21,14.21,0,0,1,13.84,14.74,14.37,14.37,0,0,1-14.82,13.84A14.17,14.17,0,0,1,483.71,159.37Z"/><path class="cls-1" d="M497.83,336.68a14,14,0,0,1-14.13-14.36,14.3,14.3,0,1,1,14.13,14.36Z"/><path class="cls-1" d="M560.07,241.14c0,10.73.08,21.47,0,32.2-.09,9.15-5.83,15.43-14,15.61-8.46.19-14.55-6.07-14.61-15.61q-.23-32.2,0-64.41c.05-9.38,6.31-15.82,14.66-15.64,8.15.18,13.94,6.52,14,15.64C560.14,219.67,560.07,230.41,560.07,241.14Zm-9.56.2h0c0-10.57,0-21.13,0-31.7,0-3.37-.58-6.41-4.69-6.49s-4.81,3-4.81,6.33q0,31.44,0,62.89c0,3.48.38,6.86,4.92,6.75,4.18-.1,4.56-3.27,4.54-6.59C550.48,262.13,550.51,251.74,550.51,241.34Z"/><path class="cls-1" d="M651.21,265.4c-.55,3.74.7,8.66-4.74,9-6,.34-4.57-5.07-5.6-9.3h-7.4c-3.41,0-6.34-.85-6.21-5,.12-3.77,2.84-4.64,6.09-4.59,2.51,0,5,0,7.69,0,.64-5.28,1.77-9.53-5.39-11-5.67-1.19-8.84-7.64-8.52-13.7a13.91,13.91,0,0,1,10.52-13c2.55-.65,4-1.31,3.81-4.2-.22-3.38,1.25-5.87,4.91-5.71s4.79,2.75,4.62,6.1c0,.84.08,1.68.17,3.35,3.07,0,6.22-.58,9,.2,2,.55,3.41,2.93,5.08,4.49-1.67,1.59-3.09,4-5.06,4.59-2.63.8-5.69.2-8.89.2v8.83c11,4.71,14.73,9.09,13.94,16.54C664.51,259,660,263.35,651.21,265.4Zm-10-37.84-1.55-.89c-1,1.8-2.68,3.57-2.74,5.39,0,1.41,2,2.88,3.06,4.33l1.23-.86Zm10,27.54,1.29.61c1-1.79,2.7-3.56,2.76-5.39,0-1.43-1.94-2.93-3-4.4l-1,.82Z"/><path class="cls-6" d="M550.51,241.34c0,10.4,0,20.79,0,31.19,0,3.31-.37,6.48-4.54,6.59-4.54.11-4.92-3.27-4.92-6.75q0-31.44,0-62.89c0-3.38.64-6.42,4.81-6.33s4.7,3.12,4.69,6.49c0,10.57,0,21.13,0,31.7Z"/><path class="cls-6" d="M641.21,227.55v8l-1.23.86c-1.1-1.45-3.11-2.92-3.06-4.33.06-1.82,1.75-3.6,2.74-5.39Z"/><path class="cls-6" d="M651.25,255.09v-8.35l1-.82c1.08,1.47,3.07,3,3,4.4-.06,1.82-1.76,3.59-2.76,5.39Z"/><circle class="cls-6" cx="595.24" cy="159.92" r="4.79"/><circle class="cls-6" cx="595.23" cy="322.4" r="4.79"/><circle class="cls-6" cx="499.68" cy="322.4" r="4.79"/><circle class="cls-6" cx="499.68" cy="159.9" r="4.79"/><text class="cls-9" transform="translate(310.87 48.05)">YOU</text><text class="cls-10" transform="translate(85.87 394.59)">Step1: 帶髒衣服來</text><text class="cls-10" transform="translate(442.56 390.78)">Step2: 投幣洗衣</text><text class="cls-10" transform="translate(222.32 729.04)">Last Step：喝咖啡休息</text><polygon class="cls-11" points="475.5 17.27 475.5 62.27 290.5 62.27 290.5 17.27 3.5 17.27 3.5 763.27 735.5 763.27 735.5 17.27 475.5 17.27"/></g></g></svg>