<svg xmlns="http://www.w3.org/2000/svg" viewBox="0 0 229.7 229.7"><defs><style>.cls-1{fill:#fff;}.cls-2{fill:#297172;}.cls-3{fill:none;stroke:#fff;stroke-miterlimit:10;stroke-width:1.37px;}</style></defs><title>資產 2</title><g id="圖層_2" data-name="圖層 2"><g id="圖層_1-2" data-name="圖層 1"><path class="cls-1" d="M162.73,70.45c0-2,0-3.61,0-5.27,0-10.41.14-20.83-.09-31.23C162.22,14.89,148.25.27,129.94.16Q81.29-.16,32.65.16C15,.27.2,14.89.14,32.51q-.27,82.44,0,164.88c.07,17.2,14.55,31.89,31.7,32.07q49.41.51,98.82,0A32,32,0,0,0,162,200.55c1-11.69.5-23.52.66-35.29,0-1.94,0-3.89,0-6,27.16,6.53,45.42,1.09,58.18-16.91,11.2-15.79,12-37.56,1-53.42C207.32,67.9,187.14,63,162.73,70.45Z"/><path class="cls-2" d="M162.73,70.45c24.41-7.42,44.6-2.56,59.15,18.48,11,15.86,10.19,37.63-1,53.42-12.76,18-31,23.43-58.18,16.91,0,2.12,0,4.06,0,6-.16,11.77.37,23.6-.66,35.29a32,32,0,0,1-31.35,28.92q-49.41.43-98.82,0C14.7,229.28.22,214.59.16,197.39q-.32-82.44,0-164.88C.2,14.89,15,.27,32.65.16q48.64-.31,97.29,0c18.32.12,32.29,14.74,32.7,33.79.23,10.41.07,20.82.09,31.23C162.73,66.84,162.73,68.49,162.73,70.45Zm-20.48,73.36c-22.74,44.83-75.79,46.43-103.67,22.45-30.33-26.08-32.48-71.42-4.41-99,13.57-13.32,30-20.11,49-19.37,27.31,1.06,46.68,14.94,59.34,38.86,2.33-2.45,4.1-4.83,6.36-6.57,3.33-2.55,4.28-5.59,4.18-9.69-.27-11.6-.09-23.21-.14-34.82-.07-16.45-9.57-26-26.14-26.05q-45.32-.11-90.63,0c-17.05,0-26.48,9.62-26.56,26.8,0,8.88,0,17.75,0,26.63q0,65.29,0,130.57c0,16,9.15,26.15,24.42,26.3q47.1.43,94.22,0c15.21-.14,24.43-9.73,24.65-24.86.19-12.8.08-25.6,0-38.4,0-1.56-.39-3.57-1.39-4.6C148.56,149,145.22,146.41,142.25,143.81Zm-61,28.38a56.94,56.94,0,0,0,54-38.31,12,12,0,0,0,.31-6.35,54.47,54.47,0,0,1,0-25.33,12.07,12.07,0,0,0-.26-6.34,56.7,56.7,0,0,0-63-37.54C43.3,63.1,21.9,89.3,24,117.33,26.42,148.94,50.65,172.16,81.27,172.19ZM182.06,153a38.14,38.14,0,1,0-38.55-38.07A38.23,38.23,0,0,0,182.06,153Z"/><path class="cls-3" d="M142.25,143.81c3,2.6,6.31,5.23,9.24,8.25,1,1,1.38,3,1.39,4.6.11,12.8.22,25.6,0,38.4-.23,15.13-9.45,24.72-24.65,24.86q-47.11.44-94.22,0c-15.26-.14-24.4-10.33-24.42-26.3q-.08-65.29,0-130.57c0-8.88,0-17.75,0-26.63.07-17.18,9.51-26.77,26.56-26.8q45.32-.09,90.63,0c16.57,0,26.07,9.6,26.14,26.05,0,11.61-.13,23.22.14,34.82.09,4.1-.85,7.14-4.18,9.69-2.27,1.73-4,4.12-6.36,6.57-12.67-23.92-32-37.79-59.34-38.86-19-.74-35.45,6-49,19.37-28.07,27.56-25.92,72.89,4.41,99C66.45,190.24,119.51,188.64,142.25,143.81Zm1.25-110.38A14.35,14.35,0,1,0,129.27,47.9,14.33,14.33,0,0,0,143.49,33.43ZM129.34,210.36a14.21,14.21,0,0,0,14.14-14.45,14.35,14.35,0,1,0-28.7.39A14.27,14.27,0,0,0,129.34,210.36ZM19.29,33.06A14.17,14.17,0,0,0,33,47.88,14.37,14.37,0,0,0,47.86,34,14.21,14.21,0,0,0,34,19.31,14.06,14.06,0,0,0,19.29,33.06ZM33.4,210.37A14.3,14.3,0,1,0,19.27,196,14,14,0,0,0,33.4,210.37Z"/><path class="cls-1" d="M81.27,172.19c-30.62,0-54.85-23.25-57.24-54.86-2.12-28,19.27-54.23,48.19-59a56.7,56.7,0,0,1,63,37.54,12.07,12.07,0,0,1,.26,6.34,54.47,54.47,0,0,0,0,25.33,12,12,0,0,1-.31,6.35A56.94,56.94,0,0,1,81.27,172.19Zm14.37-57.36c0-10.73.08-21.47,0-32.2-.09-9.11-5.88-15.46-14-15.64C73.25,66.81,67,73.25,66.93,82.63q-.18,32.2,0,64.41c.07,9.53,6.16,15.79,14.61,15.61,8.2-.18,13.94-6.46,14-15.61C95.72,136.3,95.64,125.56,95.64,114.83Z"/><path class="cls-1" d="M182.06,153A38.14,38.14,0,1,1,220,114.76,38.15,38.15,0,0,1,182.06,153Zm4.72-13.9c8.76-2,13.3-6.44,14-13.23.79-7.44-2.92-11.83-13.94-16.54v-8.83c3.2,0,6.26.6,8.89-.2,2-.59,3.39-3,5.06-4.59-1.68-1.56-3.12-3.94-5.08-4.49-2.78-.77-5.93-.2-9-.2-.09-1.66-.21-2.51-.17-3.35.17-3.35-1-5.94-4.62-6.1s-5.13,2.32-4.91,5.71c.19,2.89-1.26,3.56-3.81,4.2a13.91,13.91,0,0,0-10.52,13c-.33,6.06,2.84,12.51,8.52,13.7,7.16,1.5,6,5.75,5.39,11-2.66,0-5.18,0-7.69,0-3.24,0-6,.82-6.09,4.59-.13,4.14,2.8,5,6.21,5h7.4c1,4.23-.43,9.65,5.6,9.3C187.49,147.74,186.23,142.82,186.79,139.08Z"/><path class="cls-2" d="M143.49,33.43A14.35,14.35,0,1,1,129,19.25,14.43,14.43,0,0,1,143.49,33.43Z"/><path class="cls-2" d="M129.34,210.36a14.27,14.27,0,0,1-14.56-14.06,14.35,14.35,0,1,1,28.7-.39A14.21,14.21,0,0,1,129.34,210.36Z"/><path class="cls-2" d="M19.29,33.06A14.06,14.06,0,0,1,34,19.31,14.21,14.21,0,0,1,47.86,34,14.37,14.37,0,0,1,33,47.88,14.17,14.17,0,0,1,19.29,33.06Z"/><path class="cls-2" d="M33.4,210.37A14,14,0,0,1,19.27,196,14.3,14.3,0,1,1,33.4,210.37Z"/><path class="cls-2" d="M95.64,114.83c0,10.73.08,21.47,0,32.2-.09,9.15-5.83,15.43-14,15.61C73.14,162.83,67,156.57,67,147q-.23-32.2,0-64.41C67,73.25,73.25,66.81,81.59,67c8.15.18,13.94,6.52,14,15.64C95.72,93.36,95.64,104.09,95.64,114.83Zm-9.56.2h0c0-10.57,0-21.13,0-31.7,0-3.37-.58-6.41-4.69-6.49s-4.81,3-4.81,6.33q0,31.44,0,62.89c0,3.48.38,6.86,4.92,6.75,4.18-.1,4.56-3.27,4.54-6.59C86.06,135.82,86.08,125.42,86.08,115Z"/><path class="cls-2" d="M186.79,139.08c-.55,3.74.7,8.66-4.74,9-6,.34-4.57-5.07-5.6-9.3H169c-3.41,0-6.34-.85-6.21-5,.12-3.77,2.84-4.64,6.09-4.59,2.51,0,5,0,7.69,0,.64-5.28,1.77-9.53-5.39-11-5.67-1.19-8.84-7.64-8.52-13.7a13.91,13.91,0,0,1,10.52-13c2.55-.65,4-1.31,3.81-4.2-.22-3.38,1.25-5.87,4.91-5.71s4.79,2.75,4.62,6.1c0,.84.08,1.68.17,3.35,3.07,0,6.22-.58,9,.2,2,.55,3.41,2.93,5.08,4.49-1.67,1.59-3.09,4-5.06,4.59-2.63.8-5.69.2-8.89.2v8.83c11,4.71,14.73,9.09,13.94,16.54C200.08,132.65,195.54,137,186.79,139.08Zm-10-37.84-1.55-.89c-1,1.8-2.68,3.57-2.74,5.39,0,1.41,2,2.88,3.06,4.33l1.23-.86Zm10,27.54,1.29.61c1-1.79,2.7-3.56,2.76-5.39,0-1.43-1.94-2.93-3-4.4l-1,.82Z"/><path class="cls-1" d="M86.08,115c0,10.4,0,20.79,0,31.19,0,3.31-.37,6.48-4.54,6.59-4.54.11-4.92-3.27-4.92-6.75q0-31.44,0-62.89c0-3.38.64-6.42,4.81-6.33s4.7,3.12,4.69,6.49c0,10.57,0,21.13,0,31.7Z"/><path class="cls-1" d="M176.79,101.24v8l-1.23.86c-1.1-1.45-3.11-2.92-3.06-4.33.06-1.82,1.75-3.6,2.74-5.39Z"/><path class="cls-1" d="M186.83,128.78v-8.35l1-.82c1.08,1.47,3.07,3,3,4.4-.06,1.82-1.76,3.59-2.76,5.39Z"/><circle class="cls-1" cx="130.82" cy="33.61" r="4.79"/><circle class="cls-1" cx="130.81" cy="196.08" r="4.79"/><path class="cls-1" d="M40,196.08c0,2.64-4,4.79-6.64,4.79s-2.94-2.14-2.94-4.79a4.79,4.79,0,1,1,9.58,0Z"/><circle class="cls-1" cx="35.25" cy="33.59" r="4.79"/></g></g></svg>