<svg xmlns="http://www.w3.org/2000/svg" viewBox="0 0 218.15 258.01"><defs><style>.cls-1,.cls-2,.cls-5,.cls-7{fill:none;}.cls-1{stroke:#231815;}.cls-1,.cls-2,.cls-3,.cls-5,.cls-7{stroke-miterlimit:10;}.cls-1,.cls-7{stroke-width:1.3px;}.cls-2,.cls-3{stroke:#297172;}.cls-2{stroke-width:9.97px;}.cls-3,.cls-4{fill:#297172;}.cls-3{stroke-width:8.55px;}.cls-5,.cls-7{stroke:#fff;}.cls-5{stroke-width:2.47px;}.cls-6{fill:#fff;}</style></defs><title>資產 4</title><g id="圖層_2" data-name="圖層 2"><g id="圖層_1-2" data-name="圖層 1"><path class="cls-1" d="M109,68.48"/><path class="cls-2" d="M48.86,5H181c4.92,0,8.91,4.28,8.91,9.57V26.69h3.17a12.14,12.14,0,0,1,5.17.87,11.32,11.32,0,0,1,4.88,3.8l1.36,13.44"/><path class="cls-2" d="M174.46,5H37.29c-4.92,0-8.91,4.28-8.91,9.57V26.69H25.21a10.38,10.38,0,0,0-7.4,1.58,9,9,0,0,0-3.74,5.63l-1.9,11.92"/><polygon class="cls-3" points="213.59 81 4.43 81 5.79 44.12 211.13 42.89 213.59 81"/><polygon class="cls-2" points="173.38 253.02 41.17 253.02 18.44 67.97 196.11 67.97 173.38 253.02"/><path class="cls-4" d="M184.27,209.1l-154.43.7c-3.58,0-6.63-3.08-7.15-7.27L12.25,119.46c-.65-5.15,2.73-9.78,7.13-9.78h175.7c4.42,0,7.8,4.67,7.12,9.84l-10.84,82.36C190.82,206,187.81,209.08,184.27,209.1Z"/><circle class="cls-5" cx="107.23" cy="160.5" r="43.55"/><path class="cls-5" d="M106.08,159.84"/><path class="cls-5" d="M64.05,164.25c10.24-10,18.66-12,24.43-12.05,15.56-.08,22.62,14.42,38.77,14.66,9.91.15,18.07-5.14,23.39-9.59"/><ellipse class="cls-6" cx="91.83" cy="138.02" rx="4.81" ry="3.09"/><ellipse class="cls-6" cx="122.45" cy="135.17" rx="3.34" ry="2.85"/><circle class="cls-7" cx="124.32" cy="183.95" r="2.77"/><path class="cls-5" d="M156.92,157.24A45.93,45.93,0,0,1,142.07,197"/><path class="cls-5" d="M73.41,122.6A45.93,45.93,0,0,0,57.68,162"/></g></g></svg>