<svg xmlns="http://www.w3.org/2000/svg" viewBox="0 0 271.65 208.54"><defs><style>.cls-1{fill:#297172;}</style></defs><title>資產 3</title><g id="圖層_2" data-name="圖層 2"><g id="圖層_1-2" data-name="圖層 1"><g id="Page-1"><g id="_021---Laundry-Basket" data-name="021---Laundry-Basket"><path id="Shape" class="cls-1" d="M258.07,63.66V41a13.58,13.58,0,0,0-27.17,0v1.11l-4.73-2.55-6-15.13A38.48,38.48,0,0,0,163.77,6.28L153.23,13,150.06,11a35.92,35.92,0,0,0-31.24-3.17l-9.06-4A45.32,45.32,0,0,0,91.55,0a44.16,44.16,0,0,0-20,4.73,45.13,45.13,0,0,0-18,16.3L43.21,37.56l-2.64,1.65a13.55,13.55,0,0,0-27,1.81V63.66A13.58,13.58,0,0,0,0,77.24V86.3A13.58,13.58,0,0,0,13.58,99.88h5.58c.66,5.53,1.92,16,3.17,26.54,1.81,15,3.59,30,3.62,30.29a59,59,0,0,0,58.48,51.84H187.21a59,59,0,0,0,58.46-51.84c0-.38,5.2-43.36,6.79-56.83h5.6A13.58,13.58,0,0,0,271.65,86.3V77.24a13.58,13.58,0,0,0-13.58-13.58ZM240,41A4.53,4.53,0,0,1,249,41V63.66H240ZM230.9,63.66H40.75V49.78l12.73-8a36.18,36.18,0,0,1,29-4.15c.87.25,1.73.54,2.5.81l18.92,6.89-2.59.86a4.53,4.53,0,1,0,2.87,8.6l65.79-22c.2-.05.45-.12.91-.27A36.35,36.35,0,0,1,199,35.22l31.93,17.2ZM168.64,13.92A29.43,29.43,0,0,1,211.71,27.8l2,5.1-10.49-5.65a45.28,45.28,0,0,0-33-3.83l-8.42-5.17ZM75.56,12.83a36,36,0,0,1,30.54-.67l2.38,1.05L103,16.5a4.53,4.53,0,0,0,4.66,7.77l9.45-5.67a27,27,0,0,1,28.21.16l13.56,8.33L117.77,40.77,88.06,30c-1-.34-2-.69-3.06-1a45.16,45.16,0,0,0-26,.48l2.24-3.58a36,36,0,0,1,14.37-13ZM22.64,41a4.53,4.53,0,0,1,9.06,0V63.66H22.64ZM199.89,145.15H166.08L166.6,127h34.68ZM210.36,127h29.75c-.79,6.57-1.56,13-2.17,18.11H209Zm-14.49,45.28H164.63c.56-5.13,1-10.45,1.15-16l0-2.08h33.39l-.12,1.59a73.12,73.12,0,0,1-3.24,16.52Zm-79.68,0c-.59-5.18-1-10.59-1.2-16.3l-.05-1.81H156.8l-.05,1.81c-.17,5.7-.61,11.11-1.2,16.3Zm-40.35,0a73.09,73.09,0,0,1-3.21-16.51l-.16-1.6h33.37l.06,2.08c.16,5.59.59,10.9,1.15,16ZM33.73,145.15,31.57,127H61.31l1.4,18.11ZM70.41,127H105l.53,18.11H71.77Zm43.69,0h43.46L157,145.15H114.63ZM166.85,118l.52-18.11h36L202,118Zm-9.06,0h-44l-.53-18.11h45ZM104.26,99.88l.52,18.11H69.67L68.28,99.88Zm-45.07,0L60.59,118H30.46L28.28,99.88ZM34.86,155.62a13.41,13.41,0,0,0-.12-1.41H63.39l.18,2.3a83.51,83.51,0,0,0,2.78,15.81H40.16A49.54,49.54,0,0,1,35,155.61Zm11.28,25.75H69.47a53.17,53.17,0,0,0,12,17.91A49.8,49.8,0,0,1,46.14,181.37Zm33.34,0h28.76a73.25,73.25,0,0,0,4.94,18.11H102.77c-9,0-17.54-6.79-23.29-18.11Zm44.27,18.11c-1.13-.84-4.07-5.55-6.34-18.11h36.85c-2.26,12.56-5.22,17.27-6.34,18.11Zm34.72,0a73.45,73.45,0,0,0,4.95-18.11h28.77c-5.76,11.29-14.33,18.11-23.3,18.11Zm31.69-.2a53.17,53.17,0,0,0,12-17.91h23.33A49.8,49.8,0,0,1,190.16,199.28Zm41.34-27H205.31a83.54,83.54,0,0,0,2.78-15.82l.17-2.29h28.58l-.17,1.4a49.54,49.54,0,0,1-5.19,16.71ZM241.2,118H211.06l1.39-18.11h30.91C242.85,104.18,242.06,110.79,241.2,118ZM262.6,86.3a4.53,4.53,0,0,1-4.53,4.53H13.58A4.53,4.53,0,0,1,9.06,86.3V77.24a4.53,4.53,0,0,1,4.53-4.53H258.07a4.53,4.53,0,0,1,4.53,4.53Z"/></g></g></g></g></svg>