<svg xmlns="http://www.w3.org/2000/svg" viewBox="0 0 82.8 29.45"><defs><style>.cls-1{fill:#57b6b8;}.cls-2{fill:#fff;}</style></defs><title>資產 13</title><g id="圖層_2" data-name="圖層 2"><g id="圖層_2-2" data-name="圖層 2"><rect class="cls-1" width="82.8" height="29.45" rx="13.7" ry="13.7"/><path class="cls-2" d="M51.42,13.88H32.18a.94.94,0,1,1,0-1.88H51.42a.94.94,0,1,1,0,1.88Z"/><path class="cls-2" d="M48.59,21.72H35a1.48,1.48,0,0,1-1.48-1.29l-.78-6.08a1.48,1.48,0,0,1,1.48-1.66H49.37a1.48,1.48,0,0,1,1.48,1.66l-.78,6.08A1.48,1.48,0,0,1,48.59,21.72Z"/><rect class="cls-1" x="36.82" y="14.16" width="1.74" height="5.54" rx="0.87" ry="0.87"/><rect class="cls-1" x="40.94" y="14.08" width="1.74" height="5.54" rx="0.87" ry="0.87"/><rect class="cls-1" x="45.1" y="14.08" width="1.74" height="5.54" rx="0.87" ry="0.87"/><line class="cls-2" x1="44.27" y1="7.32" x2="48.91" y2="13.41"/><path class="cls-2" d="M48.91,14.44A1.1,1.1,0,0,1,48,14L43.4,7.93a1,1,0,0,1,.24-1.44,1.12,1.12,0,0,1,1.51.23l4.64,6.09a1,1,0,0,1-.24,1.44A1.12,1.12,0,0,1,48.91,14.44Z"/><line class="cls-2" x1="39.47" y1="7.32" x2="34.83" y2="13.41"/><path class="cls-2" d="M34.83,14.44a1.12,1.12,0,0,1-.64-.2A1,1,0,0,1,34,12.81l4.64-6.09a1.12,1.12,0,0,1,1.51-.23,1,1,0,0,1,.24,1.44L35.71,14A1.1,1.1,0,0,1,34.83,14.44Z"/><ellipse class="cls-1" cx="49.23" cy="19.71" rx="4.55" ry="4.32"/><ellipse class="cls-2" cx="49.21" cy="19.59" rx="3.58" ry="3.41"/><path class="cls-1" d="M50.56,20.25H47.9a.54.54,0,1,1,0-1.09h2.66a.54.54,0,1,1,0,1.09Z"/><path class="cls-1" d="M49.23,21.51a.56.56,0,0,1-.57-.54V18.44a.57.57,0,0,1,1.15,0V21A.56.56,0,0,1,49.23,21.51Z"/></g></g></svg>