<?xml version="1.0" encoding="utf-8"?>
<!-- Generator: Adobe Illustrator 24.0.0, SVG Export Plug-In . SVG Version: 6.00 Build 0)  -->
<svg version="1.1" id="圖層_1" xmlns="http://www.w3.org/2000/svg" xmlns:xlink="http://www.w3.org/1999/xlink" x="0px" y="0px"
	 viewBox="0 0 22.6 17.7" style="enable-background:new 0 0 22.6 17.7;" xml:space="preserve">
<style type="text/css">
	.st0{fill:#FFFFFF;}
	.st1{fill:none;}
</style>
<title>資產 16</title>
<g id="圖層_2_1_">
	<g id="圖層_2-2">
		<path class="st0" d="M20.5,8H1.3C0.8,8,0.4,7.6,0.4,7.1s0.4-0.9,0.9-0.9h19.2c0.5,0,0.9,0.4,0.9,0.9S21,8,20.5,8z"/>
		<path class="st0" d="M18.5,6.8H3.4c-0.1,0-0.1,0-0.2,0C2.4,6.9,1.8,7.7,1.9,8.5l0.8,6.1c0.1,0.7,0.7,1.3,1.5,1.3h13.5
			c0.7,0,1.4-0.5,1.5-1.3L20,8.5c0-0.1,0-0.1,0-0.2C20,7.5,19.3,6.8,18.5,6.8z M7.7,13c0,0.5-0.4,0.9-0.9,0.9S5.9,13.4,5.9,13V9.2
			c0-0.5,0.4-0.9,0.9-0.9s0.9,0.4,0.9,0.9V13z M11.8,12.9c0,0.5-0.4,0.9-0.9,0.9s-0.9-0.4-0.9-0.9V9.1c0-0.5,0.4-0.9,0.9-0.9
			s0.9,0.4,0.9,0.9V12.9z M16,12.9c0,0.5-0.4,0.9-0.9,0.9c-0.5,0-0.9-0.4-0.9-0.9V9.1c0-0.5,0.4-0.9,0.9-0.9c0.5,0,0.9,0.4,0.9,0.9
			V12.9z"/>
		<line class="st1" x1="13.4" y1="1.5" x2="18" y2="7.5"/>
		<path class="st0" d="M18.9,6.9l-4.6-6.1c-0.4-0.5-1.1-0.6-1.6-0.2c0,0,0,0-0.1,0c-0.4,0.3-0.5,1-0.2,1.4l4.6,6.1
			c0.2,0.3,0.5,0.4,0.9,0.4c0.2,0,0.4,0,0.6-0.1c0,0,0.1,0,0.1-0.1C19.2,8,19.3,7.4,18.9,6.9z"/>
		<line class="st1" x1="8.6" y1="1.5" x2="3.9" y2="7.5"/>
		<path class="st0" d="M9.2,0.6C8.7,0.3,8.1,0.4,7.7,0.9L3.1,7C3,7,3,7,3,7C2.7,7.5,2.8,8.1,3.3,8.4c0.2,0.1,0.4,0.2,0.6,0.2
			c0.3,0,0.7-0.2,0.9-0.4l4.6-6.1c0,0,0,0,0-0.1C9.8,1.6,9.7,0.9,9.2,0.6z"/>
		<path class="st0" d="M32.9,20.2"/>
	</g>
</g>
</svg>
