<svg xmlns="http://www.w3.org/2000/svg" viewBox="0 0 87.03 25.97"><defs><style>.cls-1{fill:none;stroke:#57b6b8;stroke-miterlimit:10;}.cls-2{fill:#57b6b8;}</style></defs><title>資產 10</title><g id="圖層_2" data-name="圖層 2"><g id="圖層_2-2" data-name="圖層 2"><rect class="cls-1" x="0.5" y="0.5" width="86.03" height="24.97" rx="7" ry="7"/><path class="cls-2" d="M14,14.57a2.27,2.27,0,0,1-2,1.06,2.11,2.11,0,0,1-1.69-.71,2.61,2.61,0,0,1-.63-1.84,4.72,4.72,0,0,1,.42-1.64,8.34,8.34,0,0,1,.84-1.65,2.91,2.91,0,0,1-.6.27c-.29,0-.42-.14-.42-.43s.21-.4.65-.61a6.5,6.5,0,0,1,2.82-.77,1.35,1.35,0,0,1,.7.18.44.44,0,0,1,.2.4c0,.25-.14.37-.42.37a.6.6,0,0,1-.22-.05l-.23,0a5.77,5.77,0,0,0-1.75.34,1.35,1.35,0,0,1,.11.38.78.78,0,0,1-.11.33,18.76,18.76,0,0,0-.88,1.77q1.22-.34,2.14-.52a6.78,6.78,0,0,1,.95-.14.37.37,0,0,1,.41.43.68.68,0,0,1-.37.55,1.15,1.15,0,0,1-.5.26.58.58,0,0,1-.45-.21c-1.07.23-1.9.44-2.47.6a1.53,1.53,0,0,0,0,.31,1.61,1.61,0,0,0,.41,1.16,1.48,1.48,0,0,0,1.12.44,1.44,1.44,0,0,0,.84-.22,2.56,2.56,0,0,0,.6-.65.53.53,0,0,1,.45-.31.43.43,0,0,1,.27.13.42.42,0,0,1,.12.26A1.12,1.12,0,0,1,14,14.57Z"/><path class="cls-2" d="M19.5,15.16a4.25,4.25,0,0,1-1.11.47,4.16,4.16,0,0,1-1,.18A1.83,1.83,0,0,1,15.76,15a3.36,3.36,0,0,1-.46-1.86A6.66,6.66,0,0,1,16.11,10c.61-1.14,1.36-1.71,2.21-1.71a1.43,1.43,0,0,1,.73.25,2.35,2.35,0,0,1,.57.51.86.86,0,0,1,.22.49.46.46,0,0,1-.13.33.49.49,0,0,1-.34.13c-.12,0-.29-.12-.51-.38a1,1,0,0,0-.67-.38c-.45,0-.9.45-1.34,1.34a6.08,6.08,0,0,0-.65,2.68c0,1.1.39,1.64,1.16,1.64a3.47,3.47,0,0,0,1.71-.56,1.39,1.39,0,0,1,.39-.19.44.44,0,0,1,.31.15.47.47,0,0,1,.15.33C19.91,14.8,19.77,15,19.5,15.16Z"/><path class="cls-2" d="M26.44,14.48a3.21,3.21,0,0,1-2.31.92,3.37,3.37,0,0,1-2.22-.79,2.56,2.56,0,0,1-1.05-2.05,3.19,3.19,0,0,1,.78-2.06,5.47,5.47,0,0,1,1.84-1.4.54.54,0,0,1,.39-.37,3,3,0,0,1,.55,0,2.71,2.71,0,0,1,2.18,1,3.76,3.76,0,0,1,.79,2.42A3.12,3.12,0,0,1,26.44,14.48ZM24.85,9.61a.44.44,0,0,1-.2.05,3.67,3.67,0,0,0-1.93,1,2.44,2.44,0,0,0-1,1.8A1.82,1.82,0,0,0,22.51,14a2.74,2.74,0,0,0,1.73.54,2.27,2.27,0,0,0,2.32-2.31A2.37,2.37,0,0,0,24.85,9.61Z"/><path class="cls-2" d="M31.68,9.28a4.6,4.6,0,0,0-1.54.66c-.59.39-.89.78-.89,1.18s.36.58,1.08.93a4.19,4.19,0,0,1,1,.61,1.44,1.44,0,0,1,.46,1.07,1.82,1.82,0,0,1-.9,1.52,3,3,0,0,1-1.7.57c-.62,0-.93-.17-.93-.52a.42.42,0,0,1,.12-.31.33.33,0,0,1,.29-.15,1.48,1.48,0,0,1,.29.05,1.07,1.07,0,0,0,.27,0,2.22,2.22,0,0,0,1.1-.32,1.07,1.07,0,0,0,.63-.9c0-.29-.38-.61-1.11-1a3.33,3.33,0,0,1-.94-.56,1.42,1.42,0,0,1-.46-1.09,2,2,0,0,1,.82-1.53,4.83,4.83,0,0,1,1.51-.91.72.72,0,0,1,.67-.34.75.75,0,0,1,.41.13.49.49,0,0,1,.16.38A.39.39,0,0,1,31.68,9.28Z"/><path class="cls-2" d="M38.67,8.57l-.89.35a.59.59,0,0,1-.35-.12c-.2,0-.59.14-1.16.33-.14,1.54-.2,2.86-.2,3.94,0,.48,0,.94,0,1.37a.5.5,0,0,1,.13.37v.68c0,.4-.14.6-.43.6a.38.38,0,0,1-.42-.38,27.25,27.25,0,0,1-.14-3.12c0-.61.05-1.71.17-3.29A19,19,0,0,1,33,9.85c-.23,0-.35-.13-.35-.4A.42.42,0,0,1,33,9c2.27-.53,3.89-.91,4.87-1.15a4,4,0,0,1,.82-.13.34.34,0,0,1,.22.14.55.55,0,0,1,.09.28A.42.42,0,0,1,38.67,8.57Z"/><path class="cls-2" d="M44.74,14.48a3.21,3.21,0,0,1-2.31.92,3.37,3.37,0,0,1-2.21-.79,2.56,2.56,0,0,1-1.05-2.05,3.19,3.19,0,0,1,.78-2.06,5.47,5.47,0,0,1,1.84-1.4.54.54,0,0,1,.39-.37,3,3,0,0,1,.55,0,2.71,2.71,0,0,1,2.18,1,3.76,3.76,0,0,1,.79,2.42A3.12,3.12,0,0,1,44.74,14.48ZM43.16,9.61a.43.43,0,0,1-.2.05,3.67,3.67,0,0,0-1.93,1,2.44,2.44,0,0,0-1,1.8A1.82,1.82,0,0,0,40.81,14a2.74,2.74,0,0,0,1.73.54,2.27,2.27,0,0,0,2.32-2.31A2.37,2.37,0,0,0,43.16,9.61Z"/><path class="cls-2" d="M48.45,13.09a10.13,10.13,0,0,1,1.46.85c.77.57,1.15,1.09,1.15,1.57,0,.29-.12.44-.37.44s-.42-.15-.42-.46a3.26,3.26,0,0,0-1.13-1,7.54,7.54,0,0,0-1.36-.7,10.06,10.06,0,0,0,.13,1.65c0,.3-.12.45-.37.45a.34.34,0,0,1-.37-.32A9.78,9.78,0,0,1,47,13.85v-.46c-.33,0-.49-.13-.49-.41s.17-.44.53-.47c0-.46.1-1.16.19-2.12a.48.48,0,0,1-.39-.47.84.84,0,0,1,.28-.54,4.34,4.34,0,0,1,1.23-1,2.9,2.9,0,0,1,1.32-.36,1.67,1.67,0,0,1,1.21.51,1.8,1.8,0,0,1,.51,1.3C51.43,11.1,50.43,12.17,48.45,13.09Zm2-3.91a1,1,0,0,0-.6-.2A3,3,0,0,0,48,9.64c0,.35-.06.89-.13,1.62,0,.21-.06.59-.11,1.13a5.57,5.57,0,0,0,1.91-1,2.19,2.19,0,0,0,1-1.52A.84.84,0,0,0,50.41,9.18Z"/><path class="cls-2" d="M56.73,14.57a2.27,2.27,0,0,1-2,1.06A2.11,2.11,0,0,1,53,14.92a2.61,2.61,0,0,1-.63-1.84,4.72,4.72,0,0,1,.42-1.64,8.32,8.32,0,0,1,.84-1.65A2.91,2.91,0,0,1,53,10c-.29,0-.42-.14-.42-.43s.21-.4.65-.61a6.51,6.51,0,0,1,2.82-.77,1.35,1.35,0,0,1,.7.18.44.44,0,0,1,.2.4c0,.25-.14.37-.42.37a.6.6,0,0,1-.22-.05l-.23,0a5.77,5.77,0,0,0-1.75.34,1.35,1.35,0,0,1,.11.38.78.78,0,0,1-.11.33,18.76,18.76,0,0,0-.88,1.77q1.23-.34,2.14-.52a6.78,6.78,0,0,1,.95-.14.37.37,0,0,1,.41.43.68.68,0,0,1-.37.55,1.15,1.15,0,0,1-.5.26.58.58,0,0,1-.45-.21c-1.07.23-1.9.44-2.47.6a1.53,1.53,0,0,0,0,.31,1.61,1.61,0,0,0,.41,1.16,1.48,1.48,0,0,0,1.12.44,1.44,1.44,0,0,0,.84-.22,2.56,2.56,0,0,0,.6-.65.53.53,0,0,1,.45-.31.43.43,0,0,1,.27.13A.42.42,0,0,1,57,14,1.12,1.12,0,0,1,56.73,14.57Z"/><path class="cls-2" d="M65.2,12.23a4,4,0,0,1-1.45,1.55.82.82,0,0,1-.46.15c0,.13,0,.28,0,.43,0,.36,0,.7,0,1s0,.46,0,.66a3.87,3.87,0,0,1,0,.61.81.81,0,0,1-.39.47,1.14,1.14,0,0,1-.49.11c-.43,0-.86-.36-1.29-1.05l-.13-.2h0a4.28,4.28,0,0,1-.24,1,.29.29,0,0,1-.26.19.22.22,0,0,1-.2-.14,1.13,1.13,0,0,1-.07-.47,7.12,7.12,0,0,1,.08-.89c0-.29,0-.52.05-.72s.13-.18.32-.19a.36.36,0,0,1,.35.19h0a5,5,0,0,0,.68,1.27,1,1,0,0,0,.63.41c.16,0,.26-.13.26-.38v-.48c0-.63,0-1.11-.08-1.43s-.07-.67-.11-1c0-.1,0-.2-.05-.29l-.38.2a1.44,1.44,0,0,1-.65.19A.45.45,0,0,1,61,13a.65.65,0,0,1,.18-.32,13.39,13.39,0,0,0,1.56-2.14l-1.24.38a.5.5,0,0,1-.28-.09.46.46,0,0,1-.17-.4.84.84,0,0,1,.2-.42A4.35,4.35,0,0,0,62,8.65l-.38.1A10.17,10.17,0,0,1,60,9a.44.44,0,0,1-.34-.15.45.45,0,0,1-.16-.34.3.3,0,0,1,.26-.33c.49,0,1-.12,1.65-.23A13.69,13.69,0,0,0,64.59,7h.12a.29.29,0,0,1,.25.15c0,.06,0,.11.05.16a.38.38,0,0,1-.14.3,11.09,11.09,0,0,1-2.15.85A3.06,3.06,0,0,1,62,10.08a3.75,3.75,0,0,1,1.32-.36c.21,0,.33.13.34.38a5.76,5.76,0,0,1-1.41,2.26,9.59,9.59,0,0,1,2.65-1,.35.35,0,0,1,.4.33A1.38,1.38,0,0,1,65.2,12.23Zm-2.08.8c0,.1.06.24.1.41A3.94,3.94,0,0,0,64.64,12c-.62.28-1.18.54-1.67.8A.57.57,0,0,1,63.12,13Zm2.52,3.64a2.45,2.45,0,0,1-.7-1.17,2.92,2.92,0,0,1-.17-.65.78.78,0,0,1,0-.23q0-.31.37-.34c.12,0,.21.08.27.23l.23.57a2.71,2.71,0,0,0,.19.52,6.52,6.52,0,0,0,.39.75.49.49,0,0,1,.09.24.31.31,0,0,1-.29.31A.43.43,0,0,1,65.64,16.67Z"/><path class="cls-2" d="M70.38,10.94a3.21,3.21,0,0,1,1.7-.71c.36,0,.54.25.54.67A6.3,6.3,0,0,1,72.06,13a10.37,10.37,0,0,1-1.37,2.42,12.13,12.13,0,0,1-1.49,1.7.66.66,0,0,1-.34.13c-.14,0-.22-.08-.23-.25a.35.35,0,0,1,.07-.2L70,15.2c.23-.33.46-.66.68-1a.48.48,0,0,1-.16-.18,9.28,9.28,0,0,1-.9-.9.44.44,0,0,1-.08-.17c0-.25.09-.39.29-.43a.39.39,0,0,1,.29.12,4.89,4.89,0,0,1,.9,1,9.42,9.42,0,0,0,.76-2,3.41,3.41,0,0,0,.12-.76,8.9,8.9,0,0,0-2.62,1.63.32.32,0,0,1-.26.11c-.16,0-.25-.18-.27-.42a.34.34,0,0,1,.1-.21,8,8,0,0,0,.9-2.09,5.91,5.91,0,0,0,.11-.82h0a3.58,3.58,0,0,1-.64.06h-.21a.29.29,0,0,1-.28-.33V8.71a.54.54,0,0,1,.31-.34.83.83,0,0,0,.24,0,6,6,0,0,0,1.41-.17,13.37,13.37,0,0,0,1.76-.5l.23-.09a.77.77,0,0,1,.28.06c.12.08.18.14.18.21a.46.46,0,0,1-.07.2.62.62,0,0,1-.26.2,13,13,0,0,1-1.39.46L70.55,9c0,.06,0,.12,0,.18a4.23,4.23,0,0,1-.22,1.31,5.36,5.36,0,0,1-.38.77Zm4.33-1.08a3.13,3.13,0,0,1,.2.85c0,.29,0,.5,0,.65s0,.38,0,.55a3.76,3.76,0,0,1-.07.42c-.05.25-.17.37-.36.37s-.31-.09-.31-.3a1.52,1.52,0,0,1,0-.25c0-.17,0-.32,0-.43a5.7,5.7,0,0,0-.13-1c0-.15-.06-.31-.1-.45a1.47,1.47,0,0,1-.06-.32.32.32,0,0,1,.17-.3.47.47,0,0,1,.28-.08C74.53,9.56,74.64,9.66,74.71,9.85Zm1.93,7.39a3.5,3.5,0,0,1-1.11-.8,1.46,1.46,0,0,1-.18-.22c0-.06.1-.09.33-.09a2.11,2.11,0,0,1,.91.37,1.26,1.26,0,0,0,0-.34c0-.53,0-1.21-.07-2.05s-.09-1.83-.09-2.79c0-.68,0-1.44.06-2.26v-1a2.25,2.25,0,0,0-.08-.5.57.57,0,0,1,.31-.33h.17c.2.06.32.27.32.59V9c0,.8,0,1.54,0,2.24,0,.52,0,1,0,1.4s0,1,.06,1.62c.06,1.19.1,2.09.1,2.71,0,.27-.12.41-.33.42A.86.86,0,0,1,76.63,17.24Z"/></g></g></svg>