<svg xmlns="http://www.w3.org/2000/svg" viewBox="0 0 91.86 27.37"><defs><style>.cls-1{fill:#57b6b8;stroke:#fff;stroke-miterlimit:10;}.cls-2{fill:#fff;}</style></defs><title>資產 9</title><g id="圖層_2" data-name="圖層 2"><g id="圖層_2-2" data-name="圖層 2"><rect class="cls-1" x="0.5" y="0.5" width="90.86" height="26.37" rx="13.19" ry="13.19"/><path class="cls-2" d="M36.2,15.12a.44.44,0,0,1,.3.14l.29.45c.2.34.43.71.68,1.14a.54.54,0,0,1,.09.28.31.31,0,0,1-.23.26.5.5,0,0,1-.28-.09,6.45,6.45,0,0,1-1-1.37,1.56,1.56,0,0,1-.15-.3.39.39,0,0,1-.06-.21C35.85,15.27,36,15.17,36.2,15.12ZM37.1,11a2.7,2.7,0,0,1,1.44-.7c.09,0,.14.11.16.24a5.65,5.65,0,0,1-1.41,2.58c.39-.19.84-.43,1.38-.73a1.1,1.1,0,0,1,.39-.16.3.3,0,0,1,.34.31,1.71,1.71,0,0,1-.33.94,2,2,0,0,1-.48.57.37.37,0,0,1-.25.09c-.1,0-.15-.05-.15-.16a.34.34,0,0,1,.08-.19c.16-.33.29-.62.38-.86a4.85,4.85,0,0,1-2.08,1.29c-.19,0-.29-.11-.29-.29a.89.89,0,0,1,.17-.44q.61-1.1,1.45-2.46a3.14,3.14,0,0,1-1.63,1c-.17,0-.27-.15-.27-.39a8.72,8.72,0,0,0,1.31-3.08.48.48,0,0,1,.46-.28.32.32,0,0,1,.27.31A7.43,7.43,0,0,1,37.1,11Zm.19,3.66a.39.39,0,0,1,.28.12c0,.09.12.22.23.39l.54,1a.39.39,0,0,1,.06.22.25.25,0,0,1-.16.19.39.39,0,0,1-.22-.06,4.1,4.1,0,0,1-.84-1.13.84.84,0,0,1-.13-.23.33.33,0,0,1-.05-.19C37,14.77,37.11,14.67,37.3,14.63Zm2.26,1.15a.19.19,0,0,1-.1.11.3.3,0,0,1-.17,0,1.05,1.05,0,0,1-.57-.36A2.17,2.17,0,0,1,38.2,15a.37.37,0,0,1-.08-.24.26.26,0,0,1,.09-.18.33.33,0,0,1,.17-.12h.12a.26.26,0,0,1,.16.06,1.58,1.58,0,0,0,.19.23,2.25,2.25,0,0,0,.67.78.17.17,0,0,1,.1.17A.33.33,0,0,1,39.56,15.78Zm4.59-3.58a4.39,4.39,0,0,1-1.48.68q-.68.23-1.26.39l-.24.05-.39,0c-.2,0-.31-.15-.33-.41s.1-.24.29-.32l.43-.14.69-.18a4.21,4.21,0,0,1,.12-.46c0-.41.05-.74.05-1v-.09l-1.24.31-.37.07a2.32,2.32,0,0,1-.43,0c-.2,0-.32-.16-.36-.45q0-.19.32-.36c.11,0,.27-.09.46-.14.52-.09,1-.19,1.51-.3l-.1-.5-.18-.64a1.13,1.13,0,0,1-.08-.33.36.36,0,0,1,.18-.3A.45.45,0,0,1,42,8.07c.17,0,.28.11.34.31a3.75,3.75,0,0,1,.38,1.17.79.79,0,0,0,0,.18,19.3,19.3,0,0,0,1.88-.47.26.26,0,0,1,.23.11.28.28,0,0,1,0,.11.41.41,0,0,1-.16.3,6.17,6.17,0,0,1-1.92.75,9.35,9.35,0,0,1-.05,1,4.15,4.15,0,0,1-.12.56c.59-.17,1.06-.33,1.4-.46a.23.23,0,0,1,.23.13.18.18,0,0,1,0,.11A.54.54,0,0,1,44.15,12.2Zm.26,4.49a.42.42,0,0,1-.18.36,8.72,8.72,0,0,1-1.79.48l-.84.1h-.05a.37.37,0,0,1-.32.18c-.22,0-.31-.11-.31-.32,0-.06,0-.16,0-.27s0-.34,0-.46a7.39,7.39,0,0,0-.16-1.36c0-.22-.1-.43-.15-.62a1.12,1.12,0,0,1-.08-.33.39.39,0,0,1,.2-.33A.51.51,0,0,1,41,14c.18,0,.3.12.37.34l.06.16.38-.11a8.13,8.13,0,0,1,1.52-.14,2.19,2.19,0,0,1,1,.16.82.82,0,0,1,.5.81,2.45,2.45,0,0,1-.5,1.26C44.35,16.57,44.39,16.63,44.41,16.7Zm-2.75-1.2c0,.38.05.67.05.86s0,.31,0,.46l.54-.06c.41-.08.79-.16,1.13-.25a2.28,2.28,0,0,0,.72-1.21c0-.11-.25-.17-.66-.17a4.92,4.92,0,0,0-.62.05,3.13,3.13,0,0,0-.68.11l-.47.1A.3.3,0,0,0,41.66,15.5Z"/><path class="cls-2" d="M47.42,13.55a.28.28,0,0,1-.32-.3c0-.25-.06-.56-.13-.95L46.64,11a.7.7,0,0,1,.13-.25.34.34,0,0,1,.27-.14.65.65,0,0,1,.22,0,.47.47,0,0,1,.26.24c0,.08,0,.17,0,.28l.05,0c.21-.09.45-.17.73-.27v-.58c0-.72,0-1.49,0-2.29a.34.34,0,0,1,.25-.33h.2c.18.05.28.16.28.31,0,.34,0,.92,0,1.73q0,.45,0,.94l.73-.23a3.76,3.76,0,0,1,1-.21l.16,0a.36.36,0,0,1,.19.36,4.49,4.49,0,0,1-1,2.29,3,3,0,0,1-.25.32.62.62,0,0,1-.32.13.22.22,0,0,1-.2-.13.23.23,0,0,1-.09-.18.35.35,0,0,1,.17-.28A16.82,16.82,0,0,0,50.23,11c-.2.05-.6.19-1.18.42v2.78c0,1.19-.05,2.18-.13,3,0,.31-.09.58-.14.81a.26.26,0,0,1-.23.21c-.29,0-.43-.08-.43-.21a30,30,0,0,0,.23-4.39V11.67l-.48.19a.54.54,0,0,1-.21.06q.1.86.1,1.16C47.75,13.39,47.63,13.55,47.42,13.55Zm4.12.85-.4.09a2.32,2.32,0,0,1-.43,0c-.21,0-.32-.15-.37-.44,0-.13.11-.26.32-.37l.47-.14a6.52,6.52,0,0,0,.66-.16.76.76,0,0,1,0-.15c0-.26,0-.61,0-1.06q0-.94,0-1.23c0-.53,0-.95,0-1.26a13,13,0,0,0-.12-1.39A.37.37,0,0,1,51.92,8a.48.48,0,0,1,.24-.08.33.33,0,0,1,.27.13.57.57,0,0,1,.09.16l.27-.06A6.15,6.15,0,0,1,53.94,8h.74a.39.39,0,0,1,.3.42.23.23,0,0,1-.16.24,3,3,0,0,1-.84.12l-.5,0c-.22,0-.47.1-.78.18a.32.32,0,0,1-.13,0c0,.22,0,.43,0,.67V10l.81-.2a10.52,10.52,0,0,1,1-.17.26.26,0,0,1,.24.12.32.32,0,0,1,.09.21.23.23,0,0,1-.15.22c-.52.16-1.2.36-2,.58v.74c.37-.05,1-.17,1.91-.37.19,0,.31,0,.34.13s0,.11,0,.16a.48.48,0,0,1-.18.21,3.35,3.35,0,0,1-.75.32,7.57,7.57,0,0,1-1.31.3v.48a5,5,0,0,0,0,.52q.39-.1.78-.23a22.36,22.36,0,0,0,2.4-.8.25.25,0,0,1,.21.11.32.32,0,0,1,0,.11.43.43,0,0,1-.15.3A7.1,7.1,0,0,1,53.5,13.8l-1,.31c-.09.67-.15,1.15-.21,1.46a6.79,6.79,0,0,0-.06.85,1.39,1.39,0,0,0,.13.72,5.63,5.63,0,0,0,1.07-.82.22.22,0,0,1,.18-.11c.11,0,.16.1.16.25a.9.9,0,0,1-.21.5,3.79,3.79,0,0,1-.78.78,1.28,1.28,0,0,1-.7.27c-.37,0-.55-.33-.57-1a9,9,0,0,1,.08-1.14,11.19,11.19,0,0,0,.11-1.35v-.17Zm4.21-.17a.67.67,0,0,1-.2.29,6.08,6.08,0,0,1-1.13.92,9,9,0,0,0,.88,1.17,7.28,7.28,0,0,0,1.19,1.2c.15.08.24.15.24.24s-.13.27-.39.27a3,3,0,0,1-1.45-1.07,11.44,11.44,0,0,1-1.59-2.19.88.88,0,0,1-.24-.57.36.36,0,0,1,.33-.38.52.52,0,0,1,.26.08,2.82,2.82,0,0,1,.27.31,2,2,0,0,0,.22.43,4.74,4.74,0,0,0,.82-.85.57.57,0,0,1,.17-.23.4.4,0,0,1,.23-.06h.09C55.63,13.83,55.73,14,55.74,14.23Z"/></g></g></svg>