<svg xmlns="http://www.w3.org/2000/svg" viewBox="0 0 87.03 25.97"><defs><style>.cls-1{fill:none;stroke:#57b6b8;stroke-miterlimit:10;}.cls-2{fill:#57b6b8;}</style></defs><title>資產 10</title><g id="圖層_2" data-name="圖層 2"><g id="圖層_2-2" data-name="圖層 2"><rect class="cls-1" x="0.5" y="0.5" width="86.03" height="24.97" rx="7" ry="7"/><path class="cls-2" d="M26,13.67a6.65,6.65,0,0,1-1.39,1.49,3.74,3.74,0,0,1-.85.5l-.27,0c-.2,0-.32-.11-.35-.34a.49.49,0,0,1,0-.22,1.14,1.14,0,0,1,.43-.33,5,5,0,0,0,.6-.36,11.51,11.51,0,0,0,1.4-1.18A.81.81,0,0,1,25.9,13a.22.22,0,0,1,.22.21A.94.94,0,0,1,26,13.67Zm-.2-2.19a3.35,3.35,0,0,1-.79.44,5.56,5.56,0,0,1-1.12.41.89.89,0,0,1-.28.07.28.28,0,0,1-.25-.14.55.55,0,0,1-.08-.34c0-.13.1-.23.29-.31l.55-.15c.29-.08.65-.2,1.08-.37l.38-.12.17,0a.21.21,0,0,1,.18.1.5.5,0,0,1,0,.13A.66.66,0,0,1,25.75,11.48Zm-2-2.29A.32.32,0,0,1,24,8.87l2,.54c.14,0,.22.1.22.2s-.27.32-.7.32a5,5,0,0,1-1.65-.39C23.78,9.51,23.72,9.38,23.72,9.19Zm7,0a3,3,0,0,1-.55.44q-.31.21-.61.4c0,.24,0,.48-.05.74s-.05.5-.08.72c.47-.22.92-.45,1.33-.67a1.73,1.73,0,0,1,.7-.3.65.65,0,0,1,.21.05.32.32,0,0,1,.13.17.5.5,0,0,1-.14.34,5,5,0,0,1-1.22.76q-.72.37-1.44.67a6.17,6.17,0,0,1-.2.66,15.87,15.87,0,0,1-.67,1.52,7.67,7.67,0,0,1-.56,1c-.21.29-.42.56-.61.81l-.29.38L26.5,17l-.16,0a.24.24,0,0,1-.16-.21.33.33,0,0,1,.05-.21,2.1,2.1,0,0,1,.19-.36c.1-.18.25-.44.43-.75s.5-.95.76-1.49c.16-.35.32-.69.44-1a.15.15,0,0,0,0-.06l-.79.32a2.17,2.17,0,0,1-.5.15h-.09a.47.47,0,0,1-.29-.44.35.35,0,0,1,.17-.28,1.81,1.81,0,0,1,.43-.16c.61-.22,1.18-.45,1.71-.68,0-.08,0-.17,0-.27,0-.33,0-.68,0-1.07v-.06a2.88,2.88,0,0,1-1,.22.54.54,0,0,1-.49-.3.83.83,0,0,1-.09-.41c0-.4,0-.77,0-1.1,0-.14.13-.21.32-.23h.13c.2,0,.32.18.32.51,0,.16,0,.41,0,.73a.63.63,0,0,0,.21,0,1.87,1.87,0,0,0,.69-.21,6.78,6.78,0,0,0-.12-1.45,1.66,1.66,0,0,1-.07-.43.43.43,0,0,1,.13-.35.46.46,0,0,1,.23-.08.43.43,0,0,1,.26.08,1.22,1.22,0,0,1,.17.27,8.58,8.58,0,0,1,.15,1.6q.38-.22.86-.52l.09-.05h.13c.1,0,.16.11.16.3A.29.29,0,0,1,30.67,9.17Zm-1.1,7.18a1.69,1.69,0,0,1-.45-1.06,13.32,13.32,0,0,1-.05-1.34,8.49,8.49,0,0,0-.1-1.33.4.4,0,0,1,.32-.25h.06a.33.33,0,0,1,.33.27,9.25,9.25,0,0,1,.06,1.14c0,.29,0,.7,0,1.25a.94.94,0,0,0,.38.74,1.26,1.26,0,0,0,.71.18,2,2,0,0,0,1.07-.39,6.21,6.21,0,0,0-.4-2.12c0-.15.05-.25.15-.29a.44.44,0,0,1,.31.17,3.61,3.61,0,0,1,.62,2.36q0,.6-.46.61a2.85,2.85,0,0,1-1.52.43A1.59,1.59,0,0,1,29.57,16.35Z"/><path class="cls-2" d="M35.49,9.72c.53-.08,1.26-.21,2.19-.42.55-.09,1.24-.23,2.05-.42l.65-.14.21,0a.27.27,0,0,1,.14.23.33.33,0,0,1-.17.34,5.5,5.5,0,0,1-2,.68l-1.28.23a3.93,3.93,0,0,1-.42.83q-.32.55-.61,1a.75.75,0,0,1,.13.34c0,.25,0,.49,0,.73a9.33,9.33,0,0,1-.1,1.32c-.06.71-.09,1.14-.1,1.33a1.1,1.1,0,0,0,.05.43,3.43,3.43,0,0,0,.92-.79c.09-.16.19-.25.31-.25a.27.27,0,0,1,.25.3,1.29,1.29,0,0,1-.06.31,3.94,3.94,0,0,1-1,1.11,1.35,1.35,0,0,1-.69.26q-.37,0-.49-.74c0-.22,0-.43,0-.63a11.7,11.7,0,0,1,.1-1.28,7.79,7.79,0,0,0,.12-1.33c0-.09,0-.18,0-.26A7.62,7.62,0,0,1,34,14.8a.31.31,0,0,1-.53-.23q0-.15.34-.49a16.7,16.7,0,0,0,2.61-3.67l-.33.07-1.39.31a2.86,2.86,0,0,1-.49.09.29.29,0,0,1-.25-.14.44.44,0,0,1-.09-.23.83.83,0,0,1,0-.16c0-.09.06-.16.17-.22A4.72,4.72,0,0,1,35.49,9.72Zm.81-2.1a.36.36,0,0,1,.34-.36l1.46.31c.16,0,.25.12.25.22s-.31.35-.8.35A6.1,6.1,0,0,1,36.49,8C36.35,8,36.29,7.84,36.29,7.62Zm4.27,8.08A17.75,17.75,0,0,1,39.23,14a18.91,18.91,0,0,0-1.56-1.91l-.24-.28a.54.54,0,0,1-.08-.3.32.32,0,0,1,.11-.21.37.37,0,0,1,.26-.09.39.39,0,0,1,.32.18,1.76,1.76,0,0,0,.22.28c.22.24.52.57.89,1A5.77,5.77,0,0,0,40,11.44a.72.72,0,0,1,.18-.22.38.38,0,0,1,.21-.06h.09c.18,0,.29.18.3.43a.85.85,0,0,1-.18.37,5,5,0,0,1-1.11,1.24c.41.51.88,1.1,1.41,1.79a10.64,10.64,0,0,0,1.52,1.47.56.56,0,0,1,.23.4.28.28,0,0,1-.25.32A.73.73,0,0,1,42,17,8.58,8.58,0,0,1,40.56,15.7Z"/><path class="cls-2" d="M44.63,15.89c-.15,0-.22-.12-.22-.3s0-.13.13-.25a5.84,5.84,0,0,0,.39-.88,8.05,8.05,0,0,0,.38-1.3,11.32,11.32,0,0,0,.28-2.62,9.79,9.79,0,0,0-.19-1.77.42.42,0,0,1,.39-.45c.22,0,.37.13.41.4a9.13,9.13,0,0,1,.15,1.6A13.43,13.43,0,0,1,46,13.4,7.42,7.42,0,0,1,45.42,15a3.69,3.69,0,0,1-.47.78A.51.51,0,0,1,44.63,15.89ZM48.7,11.6c0,.33,0,.67,0,1v.16l.57-.31a4.33,4.33,0,0,1,.68-.33l.16,0a.2.2,0,0,1,.18.09.59.59,0,0,1,0,.13c0,.06-.06.15-.17.28a5.56,5.56,0,0,1-1.42,1l0,0v.65a19.13,19.13,0,0,1-.13,2.24,5.1,5.1,0,0,1-.13.59c0,.12-.1.19-.2.2-.27,0-.4-.07-.4-.2A17.72,17.72,0,0,0,48,14a8.48,8.48,0,0,1-1.37.56,1,1,0,0,1-.29.06.25.25,0,0,1-.23-.14A.52.52,0,0,1,46,14.2c0-.14.1-.25.29-.32.44-.16.78-.31,1-.42l.69-.33V11.9l-.21.09a4.07,4.07,0,0,1-.77.29h-.09c-.06,0-.11-.06-.17-.14a.31.31,0,0,1-.07-.21.41.41,0,0,1,.19-.32A6.56,6.56,0,0,1,48,11.07c0-.43,0-.88,0-1.35a.33.33,0,0,1,.25-.32h.18a.3.3,0,0,1,.28.31c0,.21,0,.57,0,1.08l.5-.17a1.87,1.87,0,0,1,.57-.12.43.43,0,0,1,.22.11.51.51,0,0,1,.07.19c0,.09-.07.17-.21.25Zm2,2.6c-.07-.92-.1-1.83-.1-2.75,0-.52,0-1,0-1.44q0-.24,0-.71c0-.2,0-.44,0-.7s0-.47-.07-.47c-1,.25-1.94.53-2.92.84a5.07,5.07,0,0,1-.75.21.36.36,0,0,1-.41-.4.34.34,0,0,1,.2-.34,3.1,3.1,0,0,1,.58-.14l3.08-.86a4.89,4.89,0,0,1,.49-.08H51q.34.08.37.77c0,.08,0,.22,0,.43s0,.29,0,.45c-.05.73-.08,1.41-.08,2,0,.34,0,.65,0,.95,0,1.47.12,3,.25,4.58q0,.15-.37.21a2.79,2.79,0,0,1-1-.23,2.76,2.76,0,0,1-.92-.77.42.42,0,0,1-.11-.27.19.19,0,0,1,.09-.17.22.22,0,0,1,.13.06,5,5,0,0,1,1.45.45C50.75,15.39,50.7,14.84,50.67,14.2Z"/><path class="cls-2" d="M57.56,14.46c0,.06-.05.11-.07.16h0a2.46,2.46,0,0,1,.43-.28l.13,0a.24.24,0,0,1,.18.1.5.5,0,0,1,0,.12.44.44,0,0,1-.1.23,5.56,5.56,0,0,1-1.1.84,8,8,0,0,1-1.47.7.34.34,0,0,1-.27.15.27.27,0,0,1-.3-.29A6.09,6.09,0,0,0,54.77,15l-.58-1.72a.43.43,0,0,1,.1-.25.31.31,0,0,1,.26-.12h.2a.48.48,0,0,1,.25.25l.1.3h0A2.13,2.13,0,0,1,56,13.3a3.07,3.07,0,0,1,1.09.19c.35.15.53.34.53.55A1.31,1.31,0,0,1,57.56,14.46Zm-1.71.92.07,0a2.87,2.87,0,0,0,.68-.57,1.53,1.53,0,0,0,.3-.44,1.45,1.45,0,0,0-.85-.18,6.59,6.59,0,0,0-.73.05c0,.1,0,.2.07.31.08.41.15.73.2,1A1.23,1.23,0,0,0,55.84,15.38ZM59,10.3a.5.5,0,0,1-.14.34,3.09,3.09,0,0,1-.52.41,14.24,14.24,0,0,1-1.33.72,1.46,1.46,0,0,1-.21.08h-.08a.47.47,0,0,1-.3-.45.31.31,0,0,1,.17-.25l.1-.06a4.16,4.16,0,0,0,.08-.73,3.73,3.73,0,0,0-.14-.9,5.26,5.26,0,0,0-.33-.9.76.76,0,0,1-.17-.41.42.42,0,0,1,.19-.36.52.52,0,0,1,.21-.07.43.43,0,0,1,.29.1l.19,0,.79,0a6.22,6.22,0,0,1,1.52.13c.33.11.5.29.5.52a2.36,2.36,0,0,1-.31,1,5.61,5.61,0,0,1-.53.79S59,10.29,59,10.3Zm-1.13.21a10.85,10.85,0,0,0,.88-1.22,2.53,2.53,0,0,0,.33-.61c0-.06-.06-.1-.17-.1l-.81,0-.6,0-.31,0c.06.2.12.42.17.65a12.07,12.07,0,0,1,.11,1.48A3.63,3.63,0,0,0,57.9,10.52Zm4.73,3.37a3.66,3.66,0,0,1-.31.54l.07.09a.34.34,0,0,1,0,.15.56.56,0,0,1-.18.31,2.92,2.92,0,0,1-.78.59,5.78,5.78,0,0,1-1.11.54,1.38,1.38,0,0,1-.29.05H60a.33.33,0,0,1-.27.15.25.25,0,0,1-.29-.28,10.25,10.25,0,0,0-.2-1.4c-.17-.82-.33-1.49-.45-2a.46.46,0,0,1,.12-.25.3.3,0,0,1,.25-.14.74.74,0,0,1,.22,0,.43.43,0,0,1,.25.23s0,0,0,0v0a4.5,4.5,0,0,1,.94-.07,3.52,3.52,0,0,1,1.87.44.63.63,0,0,1,.27.49A1.3,1.3,0,0,1,62.62,13.89Zm-2.73.17c.06.55.11,1,.14,1.32l.53-.21.16-.08a7.75,7.75,0,0,0,.79-1l.43-.63a2.91,2.91,0,0,0-1.24-.2,5.44,5.44,0,0,0-.88.07h0C59.84,13.58,59.87,13.81,59.9,14.06Z"/></g></g></svg>