<svg xmlns="http://www.w3.org/2000/svg" viewBox="0 0 91.86 27.37"><defs><style>.cls-1{fill:#fff;stroke:#57b6b8;stroke-miterlimit:10;}.cls-2{fill:#57b6b8;}</style></defs><title>資產 9</title><g id="圖層_2" data-name="圖層 2"><g id="圖層_2-2" data-name="圖層 2"><rect class="cls-1" x="0.5" y="0.5" width="90.86" height="26.37" rx="13.19" ry="13.19"/><path class="cls-2" d="M27.91,12.28a3.08,3.08,0,0,1-.24.69.21.21,0,0,1,.15.22.53.53,0,0,1-.11.26,4.68,4.68,0,0,1-.92.73,6.21,6.21,0,0,1-1.23.66.44.44,0,0,1-.16,0,.26.26,0,0,1-.23-.15.53.53,0,0,1-.1-.34.27.27,0,0,1,.19-.26A10.66,10.66,0,0,0,25.13,13c-.15-.7-.27-1.28-.38-1.75a.49.49,0,0,1,.12-.22.3.3,0,0,1,.23-.14l.22,0a.46.46,0,0,1,.23.23,5.72,5.72,0,0,1,1.08-.1,2.48,2.48,0,0,1,.91.18c.29.15.44.33.44.54A2.68,2.68,0,0,1,27.91,12.28ZM26,13.83c.21-.1.41-.19.6-.3l.07-.05a3.31,3.31,0,0,0,.4-.79,3.62,3.62,0,0,0,.17-.58.59.59,0,0,0-.55-.28l-1,0c0,.2.05.44.1.7.09.58.13,1,.15,1.3Zm2-3a.35.35,0,0,1-.1-.23.39.39,0,0,1,.26-.4l.67-.18.1,0c0-.39.05-.79.08-1.21V8.48c0-.27.15-.41.45-.41a.35.35,0,0,1,.41.34v.34c0,.36,0,.7-.06,1a7.43,7.43,0,0,1,1-.16c.36,0,.55.21.59.6v.34c0,.41,0,.87-.08,1.39s-.14,1.27-.24,1.87-.29,1.36-.46,2.07a5.3,5.3,0,0,1-.55,1.51.41.41,0,0,1-.28.12.85.85,0,0,1-.43-.16,1.54,1.54,0,0,1-.67-1.2.92.92,0,0,1,0-.24.25.25,0,0,1,.2-.22.42.42,0,0,1,.25.15,3,3,0,0,1,.61.82c0-.09.08-.25.14-.46a29.4,29.4,0,0,0,.54-2.92c.1-.65.16-1.37.2-2.19,0-.22,0-.43,0-.62s-.05-.12-.14-.12l-.83.21a20.73,20.73,0,0,1-.67,3,21.94,21.94,0,0,1-1.36,3.16,6.53,6.53,0,0,1-.51.81.72.72,0,0,1-.33.16c-.11,0-.16-.08-.16-.22a.75.75,0,0,1,.15-.38,13.08,13.08,0,0,1,.5-1.22,26.18,26.18,0,0,0,1.09-3,18.6,18.6,0,0,0,.42-2l-.29.09-.24,0A.47.47,0,0,1,28,10.84Zm6.83,1.42a5.38,5.38,0,0,1-.26,1l-.07.16.09,0a.28.28,0,0,1,.2.13.39.39,0,0,1,0,.12.47.47,0,0,1-.11.25,5.52,5.52,0,0,1-1,.73,6,6,0,0,1-1.31.66.44.44,0,0,1-.16,0,.26.26,0,0,1-.24-.15.61.61,0,0,1-.08-.34.29.29,0,0,1,.19-.26l.06,0A12.83,12.83,0,0,0,32,13.22c-.15-.88-.28-1.62-.4-2.19a.45.45,0,0,1,.12-.24.3.3,0,0,1,.25-.13l.21,0a.43.43,0,0,1,.24.24.32.32,0,0,0,0,.11,10.16,10.16,0,0,1,1.22-.09,1.59,1.59,0,0,1,.79.21.67.67,0,0,1,.39.56C34.86,11.87,34.83,12.05,34.81,12.26Zm-2,2a8.57,8.57,0,0,0,.82-.39.32.32,0,0,1,.11-.14c.06-.23.14-.56.23-1a7.18,7.18,0,0,0,.1-.75c-.09-.2-.2-.31-.38-.31H32.57c0,.27.06.58.11.93.09.75.13,1.3.15,1.67Z"/><path class="cls-2" d="M39,11.38a4.12,4.12,0,0,1-.32.86,0,0,0,0,0,0,0,.36.36,0,0,1,.18.12.4.4,0,0,1,0,.13.41.41,0,0,1-.12.24,4.09,4.09,0,0,1-.93.65,6.77,6.77,0,0,1-1.27.56.44.44,0,0,1-.16,0,.26.26,0,0,1-.23-.15.55.55,0,0,1-.09-.34.3.3,0,0,1,.2-.27,7.88,7.88,0,0,0-.15-1.07c-.16-.71-.29-1.3-.4-1.78a.34.34,0,0,1,.11-.21.31.31,0,0,1,.25-.14l.2,0a.43.43,0,0,1,.24.24,6.21,6.21,0,0,1,1.12-.1,2.64,2.64,0,0,1,.94.18c.3.15.46.33.46.54A2.67,2.67,0,0,1,39,11.38ZM37,13c.24-.09.46-.18.68-.28a.37.37,0,0,1,.11-.13,3.67,3.67,0,0,0,.54-1.39.65.65,0,0,0-.6-.28l-1,0c0,.21.05.44.09.7.09.6.13,1.06.15,1.36Zm4.9-4.41v.76c0,.7,0,1.48,0,2.33v1.44a7.45,7.45,0,0,1-.21,1.75A5.45,5.45,0,0,1,41.25,16c-.08.27-.18.4-.33.4s-.3-.1-.3-.29.16-.49.28-.87.16-.63.21-.9a4.21,4.21,0,0,1-.37.25,4.41,4.41,0,0,1-.81.37.34.34,0,0,1-.17.05.28.28,0,0,1-.25-.17.62.62,0,0,1-.09-.38.3.3,0,0,1,.22-.28l.43-.15.74-.32.22-.13a.39.39,0,0,1,.14,0c0-.28,0-.59,0-.93l-1,.45a.39.39,0,0,1-.4-.34v-.13a.32.32,0,0,1,.16-.26,4.79,4.79,0,0,1,.63-.26,2.9,2.9,0,0,1,.54-.15h0q0-.52,0-1.1l-1.2.48a.39.39,0,0,1-.4-.34v-.13a.32.32,0,0,1,.16-.25,4.45,4.45,0,0,1,.76-.3,6.22,6.22,0,0,1,.64-.16c0-.37,0-.73,0-1.1A1.77,1.77,0,0,1,41,8.52c0-.12.09-.22.26-.3a.88.88,0,0,1,.37-.08C41.73,8.14,41.83,8.3,41.87,8.61ZM43,18.27c-.17,0-.25-.13-.25-.38A18.81,18.81,0,0,0,43,15.22l.1-4.48q0-1.26.06-2.71a.4.4,0,0,1,.45-.44c.26,0,.39.17.39.5,0,.53-.06,1-.08,1.35l.45-.12a5.86,5.86,0,0,1,.66-.12.3.3,0,0,1,.26.12.5.5,0,0,1,.09.25.24.24,0,0,1-.16.24c-.33.13-.76.28-1.3.45l0,1.38.38-.11a4.3,4.3,0,0,1,.65-.13.28.28,0,0,1,.26.13.49.49,0,0,1,.09.25.25.25,0,0,1-.16.24l-1.22.43v.32c0,.49,0,.92,0,1.3l.66-.17a6.94,6.94,0,0,1,.84-.15.28.28,0,0,1,.26.13.48.48,0,0,1,.09.26.25.25,0,0,1-.16.23c-.43.15-1,.33-1.71.54a12.19,12.19,0,0,1-.42,3C43.36,18.13,43.22,18.27,43,18.27Z"/><path class="cls-2" d="M51.81,16.28a6.13,6.13,0,0,1-.17.63,16.11,16.11,0,0,1,1.94-.12,9.63,9.63,0,0,1,1.92.14c.25.05.38.17.38.36a.37.37,0,0,1-.34.39l-.76-.1c-.31,0-.73,0-1.27,0a16.19,16.19,0,0,0-2.92.29,15.75,15.75,0,0,0-2.45.65h-.27a.34.34,0,0,1-.26-.13.53.53,0,0,1-.13-.28c0-.21.13-.34.4-.42a11.11,11.11,0,0,1,1.8-.47A9,9,0,0,1,50.9,17a.28.28,0,0,1,0-.13c.06-.26.12-.52.16-.8a4.05,4.05,0,0,0,.05-.6,2.57,2.57,0,0,0-.09-.71.08.08,0,0,1,0-.06l-.89.3-.3.08a2.32,2.32,0,0,1-.43,0c-.21,0-.32-.16-.36-.46,0-.12.11-.24.32-.34l.46-.15c.56-.15,1.12-.31,1.66-.5.78-.26,1.37-.5,1.8-.69a.28.28,0,0,1,.26.15.39.39,0,0,1,0,.12.6.6,0,0,1-.17.37,4.38,4.38,0,0,1-1.59.82.11.11,0,0,0,0,.05,4.14,4.14,0,0,1,.08.81A5.26,5.26,0,0,1,51.81,16.28Zm-1.62-5A1.86,1.86,0,0,1,50,12a18,18,0,0,1-1.27,2.33,2.28,2.28,0,0,1-.46.6.45.45,0,0,1-.22,0,.25.25,0,0,1-.26-.29.37.37,0,0,1,.09-.21,14,14,0,0,1,.85-1.58c.34-.67.64-1.24.85-1.7a.46.46,0,0,1,.3-.17A.31.31,0,0,1,50.2,11.29Zm-.93-1.7C50,9.33,51,9,52.41,8.63a5.86,5.86,0,0,1,1.38-.3l.23,0a.41.41,0,0,1,.24.38c0,.47-.44,1.12-1.3,1.93a2.2,2.2,0,0,1-.31.27.55.55,0,0,1-.31.14.22.22,0,0,1-.22-.14.27.27,0,0,1-.08-.18.37.37,0,0,1,.16-.27,10.53,10.53,0,0,0,1-1.31c-.47.1-1.69.51-3.64,1.22a.87.87,0,0,1-.36.1,5.93,5.93,0,0,1-.09.7,4.42,4.42,0,0,1-.15.54,1.41,1.41,0,0,1-.13.26.4.4,0,0,1-.34.16.23.23,0,0,1-.25-.27.85.85,0,0,1,0-.25c0-.19.08-.39.11-.6s0-.3,0-.45a1.88,1.88,0,0,0-.12-.71.34.34,0,0,1-.08-.19.46.46,0,0,1,.14-.37.48.48,0,0,1,.25-.09.39.39,0,0,1,.26.09.75.75,0,0,1,.19.29.2.2,0,0,0,0,.1Zm1.35-2,.59.23a1.75,1.75,0,0,1,.47.26,1,1,0,0,1,.08.37.33.33,0,0,1-.16.27h-.06a.8.8,0,0,1-.21,0l-.85-.26a5.72,5.72,0,0,1-.67-.16q-.23-.08-.23-.45A.43.43,0,0,1,50,7.42,2.38,2.38,0,0,1,50.62,7.56Zm2.91,4.28a14.26,14.26,0,0,0,1.36.81,4.54,4.54,0,0,0,.6.24.28.28,0,0,1,.11.21.35.35,0,0,1-.24.3.34.34,0,0,1-.15,0,1.37,1.37,0,0,1-.3,0,5.67,5.67,0,0,1-1.1-.42c-.16-.08-.54-.29-1.13-.64-.4-.21-.77-.41-1.09-.61a.35.35,0,0,1-.11-.28.36.36,0,0,1,.16-.31.46.46,0,0,1,.27-.07l.23,0A9,9,0,0,1,53.53,11.84Z"/><path class="cls-2" d="M58.26,17.5c-.15,0-.23-.12-.23-.33.06-.73.1-1.54.12-2.43l.05-4.09c0-.58,0-1.2.05-1.85A.37.37,0,0,1,59,8.59l.08,0a2.74,2.74,0,0,1,1-.18,2.65,2.65,0,0,1,1,.15.77.77,0,0,1,.51.75A3.17,3.17,0,0,1,61,10.77a.83.83,0,0,1-.13.17.43.43,0,0,1-.16.32,2.09,2.09,0,0,1-.47.34c-.39.21-.8.39-1.22.56l-.15.05v.27c0,.75,0,1.39,0,1.9a17,17,0,0,1-.24,2.77C58.55,17.39,58.43,17.5,58.26,17.5Zm2-6.66a3.57,3.57,0,0,0,.57-1.52c0-.18-.27-.28-.7-.28a1.34,1.34,0,0,0-.4.06,1.75,1.75,0,0,0-.46.13l-.27.1c0,.27,0,.5,0,.68.24-.1.59-.21,1.06-.36a1.43,1.43,0,0,1,.32-.05.41.41,0,0,1,.18.09.29.29,0,0,1,.06.15c0,.09-.06.15-.17.21-.26.13-.65.29-1.14.51l-.32.13,0,.81A6.37,6.37,0,0,0,60.23,10.85Zm.89,6.36c-.15,0-.26-.19-.32-.53a9.6,9.6,0,0,1-.15-2.11,6.36,6.36,0,0,0-.13-1.39c0-.23.16-.37.45-.43h.09a.3.3,0,0,1,.27.12,3.63,3.63,0,0,1,1.2-.22h.21a.81.81,0,0,1,.51.23,1.38,1.38,0,0,1,.23.57c0,.19.05.44.08.73,0,.59.09,1.25.13,2a.56.56,0,0,1-.13.37.5.5,0,0,1-.38.21.3.3,0,0,1-.22-.08l-.13.06c-.43.15-.85.3-1.28.43l-.22,0h-.2Zm.28-2.43a11.6,11.6,0,0,1,1.25-.44l.18,0a1.88,1.88,0,0,0-.16-.78.34.34,0,0,0-.3-.17,2.58,2.58,0,0,0-1,.27Q61.37,14.19,61.41,14.77Zm1.46.33V15c-.28.12-.64.26-1.07.41a1.92,1.92,0,0,1-.37.13c0,.05,0,.1,0,.12,0,.19,0,.46,0,.81A12.33,12.33,0,0,0,62.83,16s0,0,.05,0C62.88,15.68,62.87,15.4,62.87,15.1Zm2,2.63a.52.52,0,0,1-.09-.27c0-.15.09-.24.22-.24h.63q0-.53-.13-1.49c-.07-.8-.12-2-.14-3.47V11a6.38,6.38,0,0,1-1.21.57,3.26,3.26,0,0,1-.71.15h-.16q-.36,0-.36-.42c0-.13,0-.3,0-.53s.05-.53.05-.62q0-.52,0-.84a3.26,3.26,0,0,0-.17-.9A.37.37,0,0,1,63,8,.59.59,0,0,1,63.24,8a.3.3,0,0,1,.22.09,1.46,1.46,0,0,1,.42-.19,3.92,3.92,0,0,1,.95-.13h.51l.37.06a.62.62,0,0,1,.43.63c0,.12,0,.27,0,.44,0,.32,0,.89-.05,1.71,0,.46,0,1,0,1.65s0,1.61.08,2.53c.09,1.23.16,2.07.25,2.52s-.18.68-.54.7A1.55,1.55,0,0,1,64.88,17.73Zm-.94-7a5.1,5.1,0,0,0,1.41-.58h0c0-.54,0-1.07,0-1.58,0-.09-.12-.14-.34-.14H64.8a2.25,2.25,0,0,0-1.13.34c0,.15,0,.31.05.47a1.63,1.63,0,0,1,0,.22h0A10,10,0,0,1,65,9.19s.08,0,.13.1a.23.23,0,0,1,.05.11.2.2,0,0,1,0,.09.63.63,0,0,1-.24.19c-.28.15-.53.28-.76.39a1.81,1.81,0,0,1-.42.15c0,.17,0,.38,0,.61Z"/></g></g></svg>