<svg xmlns="http://www.w3.org/2000/svg" viewBox="0 0 42.52 42.52"><defs><style>.cls-1{fill:#fff;}</style></defs><title>資產 3</title><g id="圖層_2" data-name="圖層 2"><g id="圖層_2-2" data-name="圖層 2"><path class="cls-1" d="M35.71,19.63H29.43c0-1.78-.1-3.53,0-5.25.1-1.26,1.1-1.91,2.55-2,.64,0,1.28,0,1.92,0h2V6.66c-2.65-.12-5.25-.55-7.81.2a7.09,7.09,0,0,0-5.19,6.31c-.15,1.83-.11,3.68-.16,5.52,0,.29,0,.58,0,.94H17.27V26h5.42V42.52H9.39A9.4,9.4,0,0,1,0,33.14Q0,21.25,0,9.37A9.39,9.39,0,0,1,9.33,0H33.17a9.4,9.4,0,0,1,9.35,9.34q0,11.92,0,23.84a9.41,9.41,0,0,1-9.36,9.33H29.3v-.76c0-5,0-9.94,0-14.91,0-.63.14-.86.81-.83,1.4.05,2.8,0,4.21,0,.41,0,.63-.08.69-.54C35.21,23.57,35.46,21.64,35.71,19.63Z"/></g></g></svg>