<svg xmlns="http://www.w3.org/2000/svg" viewBox="0 0 42.52 42.52"><defs><style>.cls-1{fill:#fff;}</style></defs><title>資產 1</title><g id="圖層_2" data-name="圖層 2"><g id="圖層_2-2" data-name="圖層 2"><path class="cls-1" d="M12.5,0A12.55,12.55,0,0,0,0,12.5V30a12.55,12.55,0,0,0,12.5,12.5H30A12.55,12.55,0,0,0,42.52,30V12.5A12.55,12.55,0,0,0,30,0Zm0,3.87H30a8.63,8.63,0,0,1,8.64,8.64V30A8.63,8.63,0,0,1,30,38.65H12.5A8.63,8.63,0,0,1,3.87,30V12.5A8.63,8.63,0,0,1,12.5,3.87ZM32.67,8.09a1.75,1.75,0,1,0,1.75,1.75A1.74,1.74,0,0,0,32.67,8.09ZM21.26,9.66a11.6,11.6,0,1,0,11.6,11.6A11.63,11.63,0,0,0,21.26,9.66Zm0,3.87a7.73,7.73,0,1,1-7.73,7.73A7.7,7.7,0,0,1,21.26,13.53Z"/></g></g></svg>