<svg xmlns="http://www.w3.org/2000/svg" viewBox="0 0 42.52 42.52"><defs><style>.cls-1{fill:#fff;}</style></defs><title>資產 2</title><g id="圖層_2" data-name="圖層 2"><g id="圖層_2-2" data-name="圖層 2"><path class="cls-1" d="M8.94,0A9,9,0,0,0,0,8.94V33.58a9,9,0,0,0,8.94,8.94H33.58a9,9,0,0,0,8.94-8.94V8.94A9,9,0,0,0,33.58,0Zm0,3.87H33.58a5.07,5.07,0,0,1,5.07,5.07V33.58a5.07,5.07,0,0,1-5.07,5.07H8.94a5.07,5.07,0,0,1-5.07-5.07V8.94A5.07,5.07,0,0,1,8.94,3.87ZM21.26,8.15c-7.76,0-14.07,5.12-14.07,11.42,0,5.65,5,10.34,11.78,11.23.46.1,1,.33,1.21.72a2.88,2.88,0,0,1,.06,1.27s-.14,1-.18,1.21-.29,1.42,1.21.79,8.1-4.82,11.05-8.21a10.12,10.12,0,0,0,3-7C35.33,13.27,29,8.15,21.26,8.15ZM13,16.25a.72.72,0,0,1,.72.72V21.8h2.05a.77.77,0,0,1,.72.79.72.72,0,0,1-.72.72H13a.77.77,0,0,1-.79-.72V17A.77.77,0,0,1,13,16.25Zm5,0a.72.72,0,0,1,.72.72v5.62a.72.72,0,0,1-.72.72.77.77,0,0,1-.79-.72V17A.77.77,0,0,1,17.94,16.25Zm2.3,0a.86.86,0,0,1,.24,0,.66.66,0,0,1,.54.3l2.9,3.87V17a.72.72,0,0,1,1.45,0v5.62a.67.67,0,0,1-.48.66.94.94,0,0,1-.24.06A.77.77,0,0,1,24,23L21.2,19.09v3.5a.72.72,0,0,1-.72.72.77.77,0,0,1-.79-.72V17A.8.8,0,0,1,20.23,16.25Zm6.89,0H29.9a.72.72,0,0,1,0,1.45H27.84V19H29.9a.72.72,0,0,1,.72.72.77.77,0,0,1-.72.79H27.84V21.8H29.9a.77.77,0,0,1,.72.79.72.72,0,0,1-.72.72H27.12a.72.72,0,0,1-.72-.72V17A.72.72,0,0,1,27.12,16.25Z"/></g></g></svg>