<svg xmlns="http://www.w3.org/2000/svg" viewBox="0 0 382.47 114.77"><defs><style>.cls-1{fill:#231815;}.cls-2{fill:#fff;}.cls-3,.cls-4{fill:none;stroke-miterlimit:10;}.cls-3{stroke:#f4f4f4;stroke-width:1.4px;}.cls-4{stroke:#231815;stroke-width:1.42px;}</style></defs><title>資產 1</title><g id="圖層_2" data-name="圖層 2"><g id="圖層_1-2" data-name="圖層 1"><path class="cls-1" d="M176,11a54.94,54.94,0,0,0-16.77,7.12q-10.2,6.74-10.2,14.8a7.71,7.71,0,0,0,3.4,6.69c.88.77,3.51,2.08,7.89,4.06,5.37,2.41,9,4.49,11,6.25A15.68,15.68,0,0,1,176,61.64c0,6.14-3.07,11.51-9.21,15.89a29.89,29.89,0,0,1-17.54,5.92q-8.88,0-8.88-4.6a4.09,4.09,0,0,1,1-2.52,3.06,3.06,0,0,1,2.41-1.21,23,23,0,0,1,2.85.44,9.43,9.43,0,0,0,3,.55,22.75,22.75,0,0,0,12.72-4.16c4.61-3.07,7-6.69,7-11a8.5,8.5,0,0,0-3-6.69,83.18,83.18,0,0,0-8.77-4.6c-5.48-2.41-8.88-4.39-10.41-5.7-3.29-2.74-4.82-6.58-4.82-11.51,0-5.7,2.85-11.18,8.66-16.34A53.52,53.52,0,0,1,167,6.5,6.89,6.89,0,0,1,173.39,3c3.4,0,5.15,1.54,5.15,4.5A3.2,3.2,0,0,1,176,11"/><path class="cls-1" d="M220.1,83.45q-12.83,0-18.42-12.17a13.24,13.24,0,0,1-3.07.33c-3.84,0-6.91-.66-9.1-2.08-2.74-1.53-4.06-3.18-4.06-4.93q0-3.62,3.29-3.62A12.42,12.42,0,0,1,192,63a10.14,10.14,0,0,0,5.59,1.75,13.24,13.24,0,0,0,2.08-.11,27,27,0,0,1-.44-5,32.3,32.3,0,0,1,3.95-15.35c3-5.59,6.69-8.44,11.18-8.44,2.74,0,5.48,1.54,8.33,4.39a11.09,11.09,0,0,1,3.07,7.56c0,4.38-1.86,8.55-5.48,12.72a33,33,0,0,1-12.17,8.88c2.19,4.6,5.59,6.91,10.42,6.91a22.74,22.74,0,0,0,4.6-.55c2-.22,3.18-.33,3.73-.33a2.82,2.82,0,0,1,2.19,1.21,4.08,4.08,0,0,1,1,2.52c0,2.85-3.4,4.39-10,4.39m-2.52-38.81A5.81,5.81,0,0,0,214,43.11c-2.19,0-4.06,1.75-5.59,5a24.33,24.33,0,0,0-2.3,10.31,31.58,31.58,0,0,0,.33,4.38,26.72,26.72,0,0,0,9.1-6.36c2.52-2.52,3.84-5.26,3.84-8.22a5.17,5.17,0,0,0-1.75-3.62"/><path class="cls-1" d="M269.76,83.45q-12.83,0-18.42-12.17a13.23,13.23,0,0,1-3.07.33c-3.84,0-6.91-.66-9.1-2.08-2.74-1.53-4.06-3.18-4.06-4.93q0-3.62,3.29-3.62a12.4,12.4,0,0,1,3.29,2,10.14,10.14,0,0,0,5.59,1.75,13.24,13.24,0,0,0,2.08-.11,26.85,26.85,0,0,1-.44-5,32.32,32.32,0,0,1,3.95-15.35c3-5.59,6.69-8.44,11.18-8.44,2.74,0,5.48,1.54,8.33,4.39a11.08,11.08,0,0,1,3.07,7.56c0,4.38-1.86,8.55-5.48,12.72a33,33,0,0,1-12.17,8.88c2.19,4.6,5.59,6.91,10.41,6.91a22.74,22.74,0,0,0,4.6-.55c2-.22,3.18-.33,3.73-.33a2.82,2.82,0,0,1,2.19,1.21,4.08,4.08,0,0,1,1,2.52c0,2.85-3.4,4.39-10,4.39m-2.52-38.81a5.81,5.81,0,0,0-3.62-1.53c-2.19,0-4.06,1.75-5.59,5a24.35,24.35,0,0,0-2.3,10.31,32,32,0,0,0,.33,4.38,26.71,26.71,0,0,0,9.1-6.36C267.67,54,269,51.22,269,48.26a5.17,5.17,0,0,0-1.75-3.62"/><path class="cls-1" d="M331.71,20.75l-4.49,35.63c-1.21,9.43-1.75,15.46-1.75,18a31.36,31.36,0,0,0,.33,3.95,5.31,5.31,0,0,1,1.1,3.18A4.68,4.68,0,0,1,326,84a3.25,3.25,0,0,1-2.08,1.1c-3.18,0-4.72-3.07-4.72-9.21A175.66,175.66,0,0,1,321,53.42l3.73-28.06c-1.86-1.1-2.74-2.3-2.74-3.84a35.45,35.45,0,0,1,3-12.82c2-4.82,3.84-7.35,5.48-7.35q3.29,0,3.29,3.95,0,.33-2,15.46"/><path class="cls-1" d="M380.06,45h-1.54A4.1,4.1,0,0,1,376,43.44c-1.1,0-3.29,0-6.8-.11s-5.81-.11-6.47-.11c-2.52,11.07-3.84,16.88-3.84,17.43a94.21,94.21,0,0,0-2.08,17.76,4.11,4.11,0,0,1,1.53,3.29,3,3,0,0,1-1.2,2.3,4.29,4.29,0,0,1-2.41,1.1c-2.85,0-4.16-2.74-4.16-8a90.68,90.68,0,0,1,2.08-15.9l3.51-17.76c-3.51,0-5.26-1.21-5.26-3.84,0-2.3,2.3-3.51,6.91-3.51,1.42-6.47,3.95-16,7.45-28.72.55-1.86,1.53-2.85,2.85-2.85,2.41,0,3.62,1.32,3.62,3.84a6.25,6.25,0,0,1-.66,2.3,54.51,54.51,0,0,0-2.3,8.11c-1.75,6.8-3.18,12.5-4.16,17.21h4.49c2.63.11,4.27.11,5.15.11,5.48,0,8.22,1.65,8.22,4.71,0,1.32-.88,2.63-2.41,4.17"/><path class="cls-1" d="M57.72,98.31a46.19,46.19,0,1,1,46.19-46.19A46.24,46.24,0,0,1,57.72,98.31Zm0-91a44.84,44.84,0,1,0,44.84,44.84A44.89,44.89,0,0,0,57.72,7.29Z"/><path class="cls-1" d="M57.72,99a46.9,46.9,0,1,1,46.9-46.9A47,47,0,0,1,57.72,99Zm0-91a44.12,44.12,0,1,0,44.12,44.12A44.17,44.17,0,0,0,57.72,8Z"/><path class="cls-1" d="M93.33,52.31A35.61,35.61,0,1,1,57.72,16.7,35.61,35.61,0,0,1,93.33,52.31"/><path class="cls-2" d="M79.29,19.27a1.28,1.28,0,0,0-1.47.08,18,18,0,0,0-2.77,3.17l-.07.09a16,16,0,0,0-2.79,7.28c-.59,4.28-2.7,7.94-5.11,8.91a1.26,1.26,0,0,0-.16,2.27l.11.06c4,1.83,9.62-1.17,13-7s3.1-12.45-.71-14.89"/><path class="cls-2" d="M70.58,28.77a15.75,15.75,0,0,1,2.74-7.17A6.62,6.62,0,0,1,76,19.34,1.34,1.34,0,0,0,76,16.89C71.77,15,65.87,18.12,62.33,24.25,58.6,30.7,59,37.68,63.3,40.14l.13.07a1.34,1.34,0,0,0,1.29-.07c2.71-1.71,5.17-6.5,5.85-11.37"/><path class="cls-3" d="M78.46,65.56c-4.88,0-11.76-1.85-20.41-8.81-18.62-15-35.15-.18-35.31,0l-.87-1c.17-.16,17.51-15.67,37,0,14,11.23,22.95,8.71,26.16,7.1,3-1.48,6.42-4.13,6.45-6.64l1.31,0c0,3-3.78,6.13-7.19,7.84A15.86,15.86,0,0,1,78.46,65.56Z"/><path class="cls-4" d="M16.56,15.1A46.78,46.78,0,0,0,1.22,42.84,46.07,46.07,0,0,0,4.68,68.23"/><path class="cls-4" d="M75.41.7c4.12.83,18.09,4.17,28.08,17.13a45.82,45.82,0,0,1,8.68,19.63"/><path class="cls-4" d="M109.38,69c-.83,4.12-4.17,18.09-17.13,28.08a45.82,45.82,0,0,1-19.63,8.68"/><path class="cls-1" d="M210.28,109.69a4.45,4.45,0,0,1-3.37,1.11q-3.22,0-3.22-4a22.94,22.94,0,0,1,.59-4.54,33,33,0,0,1,1.24-4.5c.24-.67.52-1,.83-1a.48.48,0,0,1,.54.54,10.2,10.2,0,0,1-.37,1.33,30,30,0,0,0-1.67,8.13,3.8,3.8,0,0,0,.46,2.19,1.89,1.89,0,0,0,1.63.61,5.26,5.26,0,0,0,2.52-.7.56.56,0,0,1,.57-.46.49.49,0,0,1,.56.54A1.06,1.06,0,0,1,210.28,109.69Z"/><path class="cls-1" d="M218.38,106.49A7.31,7.31,0,0,0,218,109a3.85,3.85,0,0,0,.09.93c.11.56.19.83.19.87,0,.35-.2.54-.59.54s-.57-.32-.63-.91q-.06-.47-.17-1.5a4.12,4.12,0,0,1-2.95,1.83,1.53,1.53,0,0,1-1.28-.7,2.12,2.12,0,0,1-.52-1.43,4.36,4.36,0,0,1,1.15-2.71,9.67,9.67,0,0,1,.81-.85,5.12,5.12,0,0,1,3.09-1.67,1.07,1.07,0,0,1,.59.24.76.76,0,0,1,.3.56,1.28,1.28,0,0,1-.06.26,3.4,3.4,0,0,1,.22,1.26.84.84,0,0,1,.22.48A1.89,1.89,0,0,1,218.38,106.49Zm-1.69-1.83a2.44,2.44,0,0,0-1.15.59,6.66,6.66,0,0,0-1.17,1.06,3.65,3.65,0,0,0-1.15,2.22c0,.65.24,1,.76,1a2.8,2.8,0,0,0,2.09-1.32,4.17,4.17,0,0,0,1.07-2.54C217.16,105,217,104.65,216.69,104.65Z"/><path class="cls-1" d="M227.64,104.73a22.23,22.23,0,0,0-.67,3.65,6.76,6.76,0,0,0-.07.83,4.51,4.51,0,0,0,.06.56c0,.3.07.46.07.5,0,.48-.24.74-.69.74a.74.74,0,0,1-.43-.15.45.45,0,0,1-.22-.37.65.65,0,0,1,.13-.39,19.12,19.12,0,0,1,.33-3q-3.06,3.61-4.45,3.61a1.4,1.4,0,0,1-1-.33,1.11,1.11,0,0,1-.39-.89,13.61,13.61,0,0,1,.37-2.32,17,17,0,0,0,.37-2.67v-.2a.79.79,0,0,1,0-.19.69.69,0,0,1,.17-.43.51.51,0,0,1,.39-.2c.3,0,.46.33.46,1a34.72,34.72,0,0,1-.54,3.61,7.42,7.42,0,0,0-.13.94q0,.39.28.39c.72,0,1.65-.65,2.76-2a25.14,25.14,0,0,0,2.43-3.52c.13-.22.26-.33.41-.33.31,0,.48.19.48.52A1.79,1.79,0,0,1,227.64,104.73Z"/><path class="cls-1" d="M235.67,108.14c-.07.65-.15,1.48-.26,2.48,0,.19-.11.3-.26.3a.71.71,0,0,1-.54-.26.9.9,0,0,1-.22-.57c0-.26.06-.67.13-1.19l.32-3.13a11.24,11.24,0,0,0-3.65,3.89c-.11.26-.2.5-.31.74s-.22.41-.3.41c-.37,0-.61-.22-.76-.67a8.34,8.34,0,0,1-.33-2.59,22.83,22.83,0,0,1,.59-4.56c0-.19.11-.3.26-.3a.83.83,0,0,1,.57.3,1.1,1.1,0,0,1,.22.65c0,.19-.09.39-.15.65a18.47,18.47,0,0,0-.43,4.17,16.5,16.5,0,0,1,4.46-4.22,1,1,0,0,1,.57.26.85.85,0,0,1,.26.56C235.85,105.88,235.78,106.91,235.67,108.14Z"/><path class="cls-1" d="M244.07,98.61a14.51,14.51,0,0,0-.24,1.83,4.51,4.51,0,0,0,0,.78,1.62,1.62,0,0,1-.33,1c-.17,2.09-.24,3.48-.24,4.15a25.84,25.84,0,0,0,.44,4.85,5.15,5.15,0,0,1,.11.91.48.48,0,0,1-.17.35.63.63,0,0,1-.37.19c-.3,0-.48-.28-.56-.8a29,29,0,0,1-.39-3.32,5.66,5.66,0,0,1-1.19,1.61,2.57,2.57,0,0,1-1.72.87,1.73,1.73,0,0,1-1.39-.57,2.15,2.15,0,0,1-.48-1.5,5.86,5.86,0,0,1,1.28-3.3c.85-1.19,1.61-1.8,2.32-1.8a1.71,1.71,0,0,1,1.17.69,44.23,44.23,0,0,1,1-7.43c.07-.3.24-.46.5-.46s.48.19.48.56C244.23,97.41,244.18,97.86,244.07,98.61Zm-2.74,6.58-.26,0c-.43,0-1,.46-1.59,1.37a4.45,4.45,0,0,0-1,2.44c0,.61.22.91.7.91a2.44,2.44,0,0,0,1.82-1.11,6.28,6.28,0,0,0,1.17-2.39A1.9,1.9,0,0,1,241.32,105.19Z"/><path class="cls-1" d="M251.85,104.52a2,2,0,0,1-.76.22,2.41,2.41,0,0,1-.37-.11c-1.59.74-2.56,2.28-2.85,4.65-.17,1.24-.37,1.87-.61,1.87a.64.64,0,0,1-.52-.35,1.16,1.16,0,0,1-.22-.69c0-.18.11-.5.2-1a9.55,9.55,0,0,0,.15-1.56,7.93,7.93,0,0,0-.19-1.61,1.29,1.29,0,0,1-.37-.74,6.83,6.83,0,0,1-.13-1.2.74.74,0,0,1,.13-.39c.07-.15.15-.22.24-.22.41,0,.69.35.83,1s.26,1.22.33,1.59a6.48,6.48,0,0,1,1.76-2.11,3.47,3.47,0,0,1,2.17-.83.8.8,0,0,1,.56.28,1.1,1.1,0,0,1,.24.59C252.44,104.17,252.24,104.36,251.85,104.52Z"/><path class="cls-1" d="M257.54,113.3a6.38,6.38,0,0,1-4.32,1.46c-1,0-1.54-.28-1.54-.83a.5.5,0,0,1,.52-.56c.48.06.82.09,1,.09,2.93,0,4.63-1.35,5.09-4a17.07,17.07,0,0,0,.17-2.69,6.79,6.79,0,0,1-1.24,1.83,2.54,2.54,0,0,1-1.8,1,1.41,1.41,0,0,1-1.2-.54,1.92,1.92,0,0,1-.46-1.37,14.94,14.94,0,0,1,.15-1.87c.07-.85.13-1.46.13-1.87a2.5,2.5,0,0,0-.09-.56,1.53,1.53,0,0,1-.09-.43c0-.31.19-.48.59-.48q.36,0,.56.5a3.38,3.38,0,0,1,.18,1.09,16.34,16.34,0,0,1-.17,1.91,17,17,0,0,0-.17,1.83.53.53,0,0,0,.19.41.58.58,0,0,0,.41.17,2,2,0,0,0,1.44-.93,9,9,0,0,0,1.33-2.39c.18-.5.41-.76.7-.76s.61.54.61,1.61v1.56C259.54,110.17,258.87,112.12,257.54,113.3Z"/><path class="cls-1" d="M277.59,98.36a39.54,39.54,0,0,0-5.11,5.08c.85,1.74,1.63,3.33,2.37,4.76a.9.9,0,0,1,.48.46c.07.18.24.7.46,1.52a.6.6,0,0,1-.59.59c-.22,0-.41-.17-.56-.46-.87-1.7-1.85-3.69-2.94-5.93-.26.35-.65.89-1.13,1.61a12.47,12.47,0,0,0-.87,1.52,10.52,10.52,0,0,1-.54,1.11c-.22.41-.5,1-.85,1.85-.15.31-.32.48-.54.48-.39,0-.57-.22-.57-.65a3.27,3.27,0,0,1,.37-1.09,27.81,27.81,0,0,1,3.58-6l-1.72-3.58q-.31-.56-.83-1.72a.86.86,0,0,1-.09-.41.49.49,0,0,1,.15-.35A.52.52,0,0,1,269,97a.57.57,0,0,1,.52.3c.52,1.11,1.33,2.78,2.41,5a48.85,48.85,0,0,1,3.95-4c.72-.65,1.17-1,1.33-1a.73.73,0,0,1,.39.18.66.66,0,0,1,.2.41A.59.59,0,0,1,277.59,98.36Z"/><path class="cls-1" d="M293.12,109.64s-.26.13-.65.35a9,9,0,0,1-1.85.74A6.45,6.45,0,0,1,289,111a3,3,0,0,1-2.76-1.5,6.14,6.14,0,0,1-.78-3.28,13,13,0,0,1,1.33-5.5c1.07-2.26,2.39-3.41,3.95-3.41a2.79,2.79,0,0,1,2.09,1.17,1.86,1.86,0,0,1,.48.94.56.56,0,0,1-.65.63c-.15,0-.37-.15-.63-.48l-.57-.67a1.32,1.32,0,0,0-.87-.33c-1.07,0-2,.93-2.82,2.78a12.22,12.22,0,0,0-1.07,4.95c0,2.26.76,3.37,2.32,3.37a5.87,5.87,0,0,0,2.91-.94,5.16,5.16,0,0,1,.87-.46.64.64,0,0,1,.44.22.76.76,0,0,1,.22.48A.82.82,0,0,1,293.12,109.64Z"/><path class="cls-1" d="M301.63,106.49a7.31,7.31,0,0,0-.41,2.46,3.85,3.85,0,0,0,.09.93c.11.56.19.83.19.87,0,.35-.2.54-.59.54s-.57-.32-.63-.91q-.06-.47-.17-1.5a4.12,4.12,0,0,1-2.95,1.83,1.53,1.53,0,0,1-1.28-.7,2.12,2.12,0,0,1-.52-1.43,4.36,4.36,0,0,1,1.15-2.71,9.79,9.79,0,0,1,.81-.85,5.12,5.12,0,0,1,3.09-1.67,1.07,1.07,0,0,1,.59.24.76.76,0,0,1,.3.56,1.28,1.28,0,0,1-.06.26,3.4,3.4,0,0,1,.22,1.26.84.84,0,0,1,.22.48A1.89,1.89,0,0,1,301.63,106.49Zm-1.69-1.83a2.44,2.44,0,0,0-1.15.59,6.66,6.66,0,0,0-1.17,1.06,3.65,3.65,0,0,0-1.15,2.22c0,.65.24,1,.76,1a2.8,2.8,0,0,0,2.09-1.32,4.17,4.17,0,0,0,1.07-2.54C300.41,105,300.24,104.65,299.94,104.65Z"/><path class="cls-1" d="M311.27,97.86a3.76,3.76,0,0,0-3,1.82,14,14,0,0,0-1.8,5.85c.69-.15,1.76-.41,3.22-.76a5.64,5.64,0,0,1,1.11-.13.53.53,0,0,1,.59.59.58.58,0,0,1-.32.54,1.14,1.14,0,0,1-.65.22.94.94,0,0,1-.31-.06c-.74.13-2,.41-3.8.82-.41,3.59-.93,6-1.59,7.34-.26.44-.48.68-.67.68a.61.61,0,0,1-.48-.26.82.82,0,0,1-.2-.54.55.55,0,0,1,.11-.39,2.06,2.06,0,0,1,.28-.28c.54-.52,1-2.61,1.46-6.3a7.38,7.38,0,0,1-1.32.24.53.53,0,0,1-.39-.17.56.56,0,0,1-.15-.41c0-.41.17-.63.54-.63a4.75,4.75,0,0,0,.82-.11l.65-.17c.44-3.85,1.5-6.52,3.15-8a4.84,4.84,0,0,1,1.19-.7,2.94,2.94,0,0,1,1.2-.39c.46,0,.7.15.7.43A.77.77,0,0,1,311.27,97.86Z"/><path class="cls-1" d="M317.5,111.08a3.21,3.21,0,0,1-3.11-2.06,2.24,2.24,0,0,1-.52.06,2.82,2.82,0,0,1-1.54-.35c-.46-.26-.69-.54-.69-.83s.19-.61.56-.61a2.1,2.1,0,0,1,.56.33,1.72,1.72,0,0,0,.94.3,2.29,2.29,0,0,0,.35,0A4.59,4.59,0,0,1,314,107a5.46,5.46,0,0,1,.67-2.59,2.2,2.2,0,0,1,1.89-1.43,2.08,2.08,0,0,1,1.41.74,1.87,1.87,0,0,1,.52,1.28,3.26,3.26,0,0,1-.93,2.15,5.58,5.58,0,0,1-2.06,1.5,1.83,1.83,0,0,0,1.76,1.17,3.84,3.84,0,0,0,.78-.09l.63-.06a.48.48,0,0,1,.37.2.69.69,0,0,1,.17.43C319.18,110.82,318.61,111.08,317.5,111.08Zm-.18-10.34a5.13,5.13,0,0,1-.87.78,1.8,1.8,0,0,1-.89.46.39.39,0,0,1-.3-.13.4.4,0,0,1-.15-.33.46.46,0,0,1,.2-.39,5.85,5.85,0,0,0,1.2-1.41c.19-.3.39-.46.61-.46s.54.26.56.74A1.42,1.42,0,0,1,317.31,100.74Zm-.24,3.78a1,1,0,0,0-.61-.26c-.37,0-.69.3-.94.85a4.11,4.11,0,0,0-.39,1.74,5.4,5.4,0,0,0,.06.74,4.52,4.52,0,0,0,1.54-1.07,2,2,0,0,0,.65-1.39A.87.87,0,0,0,317.07,104.52Z"/></g></g></svg>