<svg xmlns="http://www.w3.org/2000/svg" viewBox="0 0 42.52 48.38"><defs><style>.cls-1{fill:#231815;}</style></defs><title>資產 4</title><g id="圖層_2" data-name="圖層 2"><g id="圖層_2-2" data-name="圖層 2"><path class="cls-1" d="M21.26,25.51A12.76,12.76,0,1,1,34,12.76,12.77,12.77,0,0,1,21.26,25.51Z"/><path class="cls-1" d="M41.1,48.38H1.42A1.42,1.42,0,0,1,0,47,18.59,18.59,0,0,1,5.39,33.85a18.18,18.18,0,0,1,13-5.5h5.67a18.18,18.18,0,0,1,13,5.5A18.59,18.59,0,0,1,42.52,47,1.42,1.42,0,0,1,41.1,48.38Z"/></g></g></svg>