<svg xmlns="http://www.w3.org/2000/svg" viewBox="0 0 91.86 27.37"><defs><style>.cls-1{fill:#fff;stroke:#57b6b8;stroke-miterlimit:10;}.cls-2{fill:#57b6b8;}</style></defs><title>資產 8</title><g id="圖層_2" data-name="圖層 2"><g id="圖層_2-2" data-name="圖層 2"><rect class="cls-1" x="0.5" y="0.5" width="90.86" height="26.37" rx="13.19" ry="13.19"/><path class="cls-2" d="M39.36,8.5a18.81,18.81,0,0,1-3.62.69l-.25,0c.08.5.13,1.14.17,1.93,0,.25,0,.48,0,.71l.11,0a1.33,1.33,0,0,1,.25,0,16.62,16.62,0,0,1,2.16,1.28.88.88,0,0,1,.16.18.52.52,0,0,1,.06.23.31.31,0,0,1,0,.13l-.05.05a.19.19,0,0,1-.13.06.55.55,0,0,1-.28-.09,12.88,12.88,0,0,1-2.21-1.13c0,.5,0,1,0,1.51a18.05,18.05,0,0,1-.32,3.71c0,.26-.16.4-.37.4s-.34-.14-.34-.4q.13-.94.23-1.75c.05-.54.09-1.15.09-1.85,0-.91,0-1.86-.11-2.87-.05-.73-.12-1.41-.19-2-.71.09-1.39.17-2,.24a4.82,4.82,0,0,1-.62.06,3.36,3.36,0,0,1-.44,0c-.21,0-.33-.15-.37-.45,0-.14.1-.27.31-.38s.3-.08.5-.14c1.18-.08,2.34-.17,3.46-.3Q38,8.16,39.28,8a.26.26,0,0,1,.23.11.32.32,0,0,1,0,.11A.44.44,0,0,1,39.36,8.5Z"/><path class="cls-2" d="M43.64,12.62c.72-.06,1.73-.18,3-.36.76-.06,1.71-.17,2.83-.32l.92-.12.24,0a.31.31,0,0,1,.16.27.41.41,0,0,1-.19.4,12.45,12.45,0,0,1-2.76.57l-3.42.37-1.91.26a6,6,0,0,1-.71.08.42.42,0,0,1-.27-.16.51.51,0,0,1-.1-.27,1.19,1.19,0,0,1,0-.19c0-.1.08-.17.21-.24A10,10,0,0,1,43.64,12.62Z"/><path class="cls-2" d="M60.64,10.53a11.31,11.31,0,0,1-1.25.57c-.65.26-1.33.51-2.08.72h0a3.27,3.27,0,0,1,.11.85,10,10,0,0,1-.13,1.51c-.06.38-.15.73-.24,1.08a1.77,1.77,0,0,1-.19.48.4.4,0,0,1-.33.15.22.22,0,0,1-.23-.26,2.23,2.23,0,0,1,.1-.55c.08-.4.14-.82.2-1.26s.05-.67.05-1a2,2,0,0,0-.13-.78s0,0,0-.05a10.94,10.94,0,0,1-2.48.31.59.59,0,0,1-.53-.28.87.87,0,0,1-.09-.41c0-.67.08-1.3.09-1.88,0-.15.14-.23.33-.25h.15c.21,0,.32.21.32.55a13.22,13.22,0,0,1-.14,1.48.66.66,0,0,0,.24,0,9.29,9.29,0,0,0,1.95-.32c0-.09,0-.22,0-.39a14.9,14.9,0,0,0,.11-1.54A9.22,9.22,0,0,0,56.37,8a1.19,1.19,0,0,1,0-.27.35.35,0,0,1,.12-.25l.18-.08h.12a.75.75,0,0,1,.2.06.48.48,0,0,1,.21.36c0,.33,0,.65,0,.95h0a11.26,11.26,0,0,0,1.65-.51.88.88,0,0,1,.31-.1.63.63,0,0,1,.19,0,.3.3,0,0,1,.11.15.44.44,0,0,1-.13.3,2.5,2.5,0,0,1-.53.28c-.45.19-.91.37-1.37.52l-.23.05h-.05c0,.18,0,.37,0,.55a9.87,9.87,0,0,1-.1,1,4,4,0,0,0,.41-.11c.79-.23,1.71-.53,2.77-.89l.21-.07h.14c.12,0,.18.12.18.31A.31.31,0,0,1,60.64,10.53ZM54.25,14a3.83,3.83,0,0,0,.15.92c0,.19.1.37.14.52a.31.31,0,0,1-.61.05,2.38,2.38,0,0,1-.43-1.24c0-.29,0-.6,0-.95a.43.43,0,0,1,.46-.31.4.4,0,0,1,.38.33A3.62,3.62,0,0,0,54.25,14Zm.54,4.61c-.11,0-.16-.08-.16-.2a.75.75,0,0,1,.15-.38,10.79,10.79,0,0,1,1.07-.76,15.43,15.43,0,0,0,2.37-1.9,4.44,4.44,0,0,0,1.23-2.55v-.32c0-.24.14-.37.44-.37s.37.11.39.31v.32a5.5,5.5,0,0,1-1.58,3.15,14.41,14.41,0,0,1-2.58,2,9,9,0,0,1-1,.52A.84.84,0,0,1,54.79,18.57Z"/></g></g></svg>