<svg xmlns="http://www.w3.org/2000/svg" viewBox="0 0 90.86 26.37"><defs><style>.cls-1{fill:#57b6b8;}.cls-2{fill:#fff;}</style></defs><title>資產 11</title><g id="圖層_2" data-name="圖層 2"><g id="圖層_2-2" data-name="圖層 2"><rect class="cls-1" width="90.86" height="26.37" rx="13.19" ry="13.19"/><path class="cls-2" d="M25.86,7.5a.89.89,0,0,1,.41-.1l.84,0q.84,0,.84.58a1.23,1.23,0,0,1-.36.69,6.33,6.33,0,0,1-1,.92h0a4.79,4.79,0,0,1,.87.2.44.44,0,0,1,.16.37.47.47,0,0,1,0,.05,5.26,5.26,0,0,1,1-.17l.22,0a.4.4,0,0,1,.25.37c0,.4-.38.94-1.12,1.61a1.92,1.92,0,0,1-.27.2.57.57,0,0,1-.32.14.23.23,0,0,1-.2-.14.2.2,0,0,1-.09-.17.34.34,0,0,1,.18-.28,6.29,6.29,0,0,0,.72-.93,27,27,0,0,0-3,.91,1,1,0,0,1-.3.06.33.33,0,0,1-.27-.1.47.47,0,0,1-.15-.33.27.27,0,0,1,.16-.24,1.12,1.12,0,0,1,.32-.16c.51-.17,1.22-.37,2.13-.6-.43,0-.88-.06-1.38-.09-.19,0-.29-.16-.29-.44s.15-.34.32-.37l.12,0c.47-.44.9-.88,1.3-1.33-.31,0-.64,0-1,0s-.45-.12-.46-.36A.41.41,0,0,1,25.86,7.5Zm.44,4.08a.44.44,0,0,1,.27-.1.36.36,0,0,1,.28.18,12.21,12.21,0,0,1,.39,2.17c.05.75.09,1.49.09,2.19,0,1.16-.21,1.77-.57,1.79a.78.78,0,0,1-.45-.16,1.82,1.82,0,0,1-.45-.58,2,2,0,0,1-.21-.7.19.19,0,0,1,.18-.19c.09,0,.15.08.2.18a3,3,0,0,0,.5.53,8.2,8.2,0,0,0,.05-1,19.54,19.54,0,0,0-.13-2.31c-.06-.6-.14-1.17-.25-1.73A.4.4,0,0,1,26.3,11.59Zm4.35,4.16a.32.32,0,0,1-.15.05l-.06.14a.49.49,0,0,1-.3.12.31.31,0,0,1-.23-.09.71.71,0,0,1-.13-.36c0-.45,0-1.1,0-1.94,0-.54,0-1,0-1.5s0-.94.06-1.46c0-.26,0-.55,0-.85a2.22,2.22,0,0,0,0-.24,1,1,0,0,1,0-.18.23.23,0,0,1,.13-.19.49.49,0,0,1,.33-.15l.12,0a4.25,4.25,0,0,0,.81-1.07,13.1,13.1,0,0,1-1.86.22A.46.46,0,0,1,29,7.81a.4.4,0,0,1,.34-.4,23.58,23.58,0,0,0,2.43-.27.4.4,0,0,1,.45.32,2.11,2.11,0,0,1-.45,1.06,6,6,0,0,1-.54.61,1.82,1.82,0,0,0,.32-.1A4.54,4.54,0,0,1,32.23,9c.74,0,1.12.3,1.12.86,0,.16,0,.59,0,1.29s0,1.23,0,1.49v2.11c0,.37-.11.54-.31.54a.36.36,0,0,1-.31-.15.56.56,0,0,1-.17-.47V12.87a3.05,3.05,0,0,1-.68.45,4.44,4.44,0,0,1-1.07.47.68.68,0,0,1-.25.05.18.18,0,0,1-.11,0c0,.4,0,.78,0,1.14a6.94,6.94,0,0,0,1-.44.57.57,0,0,1,.23-.1.52.52,0,0,1,.25.08.32.32,0,0,1,.16.19.51.51,0,0,1-.18.38l-.11.09s0,.08,0,.1a1.2,1.2,0,0,1-.16.43,12.92,12.92,0,0,1-1,1.54,1.17,1.17,0,0,1-.37.39.45.45,0,0,1-.21.05.25.25,0,0,1-.26-.28.43.43,0,0,1,.08-.23,7.09,7.09,0,0,1,.56-1l.24-.46Zm1.94-4c0-.89,0-1.41,0-1.54a.85.85,0,0,0-.06-.38.62.62,0,0,0-.42-.11,2.67,2.67,0,0,0-.55.12,3.16,3.16,0,0,0-.7.25l-.14.08c0,.23,0,.5-.08.8a2.17,2.17,0,0,0,0,.36,11.24,11.24,0,0,1,1.59-.46s.11,0,.17.13a.35.35,0,0,1,.06.14s0,.06,0,.11a1,1,0,0,1-.31.22c-.38.17-.71.32-1,.44a2.85,2.85,0,0,1-.56.18,1.21,1.21,0,0,1,0,.21c0,.12,0,.42,0,.89l.06,0,.52-.18c.28-.11.63-.26,1-.44a2,2,0,0,1,.36-.15.24.24,0,0,1,.12,0ZM33.33,16a6,6,0,0,0,.6.74,2.94,2.94,0,0,0,.28.25.22.22,0,0,1,.1.19.37.37,0,0,1-.24.31l-.15,0-.15,0a2.49,2.49,0,0,1-.53-.4l-.56-.58c-.18-.21-.36-.4-.53-.57a.42.42,0,0,1-.11-.29.38.38,0,0,1,.16-.31.5.5,0,0,1,.27-.08l.23.05A3.39,3.39,0,0,1,33.33,16Z"/><path class="cls-2" d="M39.45,12.47a2.56,2.56,0,0,1-.85,1,.55.55,0,0,1-.32.11c-.11,0-.16-.05-.16-.17a.18.18,0,0,1,.09-.16,2,2,0,0,0,.56-.84,20.92,20.92,0,0,0-2.08,1.13,1.17,1.17,0,0,1-.52.16.47.47,0,0,1-.34-.53.54.54,0,0,1,.17-.29A11.79,11.79,0,0,0,37.48,11l-1.5.53a.51.51,0,0,1-.27-.08.5.5,0,0,1-.17-.41,1.51,1.51,0,0,1,.34-.68A6.42,6.42,0,0,0,37,8.11a.47.47,0,0,1,.46-.41c.17,0,.26.1.28.25a4.82,4.82,0,0,1-1.27,2.74,3.9,3.9,0,0,1,1.58-.51c.2,0,.31.15.32.39s-.45,1-1.36,2a7.57,7.57,0,0,1,2.06-.8c.26,0,.41.12.43.36A1.46,1.46,0,0,1,39.45,12.47ZM36,14.92a.42.42,0,0,1,.3.14l.3.45c.19.34.42.71.67,1.13a.54.54,0,0,1,.09.29.29.29,0,0,1-.22.25.58.58,0,0,1-.3-.09,6.24,6.24,0,0,1-1-1.37c-.07-.11-.11-.2-.15-.29a.43.43,0,0,1-.05-.22C35.68,15.08,35.79,15,36,14.92Zm1.36-.61a.42.42,0,0,1,.32.15l.2.33c.14.27.3.56.47.87a.6.6,0,0,1,.09.28.3.3,0,0,1-.22.25.46.46,0,0,1-.28-.1,4,4,0,0,1-.79-1,.61.61,0,0,1-.12-.21.49.49,0,0,1-.05-.23C37,14.46,37.13,14.35,37.37,14.31Zm2.39,1a.31.31,0,0,1-.12.12.29.29,0,0,1-.19.05c-.13,0-.3-.12-.54-.36a1.74,1.74,0,0,1-.5-.6.29.29,0,0,1-.11-.24.31.31,0,0,1,.12-.21A.32.32,0,0,1,38.6,14h.13a.37.37,0,0,1,.18.08l.17.21a2.17,2.17,0,0,0,.64.74.25.25,0,0,1,.11.21A.66.66,0,0,1,39.76,15.33Zm4-2.69c0-.9.05-2,.11-3.37,0-.33,0-.51-.08-.51a9.06,9.06,0,0,0-1,.29,13.32,13.32,0,0,1-1.32.36,4.86,4.86,0,0,1-1.07.14h-.16a.59.59,0,0,1-.51-.26.72.72,0,0,1-.11-.44,4.91,4.91,0,0,0,.73-1.33.44.44,0,0,1,.38-.16.32.32,0,0,1,.18.06.38.38,0,0,1,.14.31.67.67,0,0,1-.12.28,7.24,7.24,0,0,0-.42.7,7.88,7.88,0,0,0,2-.34A11.67,11.67,0,0,0,43.8,8l.3,0c.12,0,.24.16.36.46a2.61,2.61,0,0,1,.13.92c0,.34,0,.89-.05,1.64-.07,1.3-.09,2.41-.09,3.34s0,1.75.05,2.73c0,.13-.1.26-.27.39a.83.83,0,0,1-.28.08,2,2,0,0,1-1-.34,4.26,4.26,0,0,1-.84-.83A.57.57,0,0,1,42,16c0-.15.07-.23.22-.23a.51.51,0,0,1,.32.16,14.2,14.2,0,0,0,1.27.74c-.07-.65-.11-1.51-.11-2.6C43.71,13.69,43.71,13.21,43.73,12.64ZM42.18,13a.66.66,0,0,1-.27-.09,2.48,2.48,0,0,1-.37-.19,4.79,4.79,0,0,1-.95-.6c-.09-.05-.13-.1-.14-.13a.35.35,0,0,1,0-.18.38.38,0,0,1,.09-.23.53.53,0,0,1,.22-.14.36.36,0,0,1,.16,0,.47.47,0,0,1,.24.1l.17.13c.19.15.4.29.61.43s.25.16.36.25a.6.6,0,0,1,.17.38c0,.17-.07.28-.17.31Z"/><path class="cls-2" d="M48.5,15.8a20.17,20.17,0,0,0,2.82.7l1.27.14c.37,0,.71,0,1,0l.83,0c.25,0,.52,0,.8-.09l.45,0c.18,0,.28.05.3.16a.39.39,0,0,1-.08.21.56.56,0,0,1-.2.17,10.87,10.87,0,0,1-2.73.3,17.45,17.45,0,0,1-5.52-1.06c-.36-.13-.69-.27-1-.4a2.48,2.48,0,0,1-.46-.29.31.31,0,0,1-.08-.24.46.46,0,0,1,.16-.34.32.32,0,0,1,.25-.1.68.68,0,0,1,.23.05l.66.28a2.64,2.64,0,0,0,.23-1.17.85.85,0,0,0-.18-.44.57.57,0,0,1-.17-.39,1.2,1.2,0,0,1,.34-.74.49.49,0,0,0,.13-.25,2.26,2.26,0,0,0-.16-.54l-.32-.55c0-.21.15-.33.41-.33a.5.5,0,0,1,.3.15,1.51,1.51,0,0,1,.48,1.14,2.46,2.46,0,0,1-.43,1.09,1.75,1.75,0,0,1,.31,1,2.63,2.63,0,0,1-.28,1.3A6.09,6.09,0,0,0,48.5,15.8Zm-.24-5.53a.48.48,0,0,1-.36-.18,2.57,2.57,0,0,0-1-.5.4.4,0,0,1-.18-.07.84.84,0,0,1,0-.26.78.78,0,0,1,0-.14c0-.17.19-.27.43-.28a1.38,1.38,0,0,1,.65.19,2.81,2.81,0,0,1,.64.54.78.78,0,0,1,.08.31C48.5,10.15,48.41,10.27,48.26,10.27Zm5.92,1a4.9,4.9,0,0,1-1.76,1.14l.22.19a12.85,12.85,0,0,0,1.66,1.52c.37.29.72.56,1.06.8a.54.54,0,0,1,.24.42.26.26,0,0,1-.18.26h-.06a1,1,0,0,1-.36-.1c-.3-.17-.62-.38-1-.61A9.88,9.88,0,0,1,52,13.12L51.89,13l-.13.45a11.39,11.39,0,0,1-.88,1.9,2.59,2.59,0,0,1-.32.47.72.72,0,0,1-.33.16c-.11,0-.16-.08-.16-.21a.79.79,0,0,1,.15-.38q.11-.32.29-.71A15.56,15.56,0,0,0,51.14,13l-.59.23a1.86,1.86,0,0,1-.34.11l-.42,0c-.22,0-.33-.15-.37-.44,0-.13.11-.24.32-.34l.46-.15c.39-.13.78-.28,1.15-.43.06-.45.11-.92.13-1.4v-.11c-.39.17-.77.32-1.13.46a2,2,0,0,1-.42.11h-.1a.5.5,0,0,1-.29-.46.37.37,0,0,1,.17-.28,2,2,0,0,1,.37-.13A18.44,18.44,0,0,0,52,9.48a3.65,3.65,0,0,0,.28-.58,2.76,2.76,0,0,0,.3-.93,3.05,3.05,0,0,0,0-.31,2.35,2.35,0,0,1-.06-.37c0-.21.12-.31.36-.33H53a.39.39,0,0,1,.32.24,2.44,2.44,0,0,1,.08.66A2.53,2.53,0,0,1,53.08,9l.1-.05a1.59,1.59,0,0,1,.59-.23.49.49,0,0,1,.22.05.28.28,0,0,1,.14.18.49.49,0,0,1-.14.32,4.26,4.26,0,0,1-1,.61l-.68.29s0,0,0,.06v.33c0,.37-.05.72-.1,1.07a13,13,0,0,0,1.9-.93.28.28,0,0,1,.25.13.23.23,0,0,1,0,.13A.48.48,0,0,1,54.19,11.32ZM51.58,9a.39.39,0,0,1-.27.11A.77.77,0,0,1,51,9a1,1,0,0,1-.38-.29,1.52,1.52,0,0,1-.27-.44.34.34,0,0,1-.05-.17.43.43,0,0,1,.41-.46.32.32,0,0,1,.31.19,1,1,0,0,0,.43.68.28.28,0,0,1,.22.27A.3.3,0,0,1,51.58,9Z"/><path class="cls-2" d="M59.86,13.91a7.05,7.05,0,0,1-1.47,1.57,4,4,0,0,1-.89.53l-.28,0c-.22,0-.33-.12-.37-.36a.52.52,0,0,1,0-.24,1.2,1.2,0,0,1,.45-.34,5.16,5.16,0,0,0,.64-.38,12.12,12.12,0,0,0,1.48-1.25.86.86,0,0,1,.34-.25.24.24,0,0,1,.24.23A1,1,0,0,1,59.86,13.91Zm-.22-2.32a3.56,3.56,0,0,1-.83.46,6,6,0,0,1-1.19.43.94.94,0,0,1-.29.08.3.3,0,0,1-.27-.15.58.58,0,0,1-.09-.36c0-.14.11-.25.3-.32l.58-.16c.3-.09.69-.21,1.14-.39l.4-.13.18,0a.23.23,0,0,1,.19.11.54.54,0,0,1,0,.14A.69.69,0,0,1,59.64,11.6ZM57.5,9.18a.33.33,0,0,1,.32-.33L60,9.42c.15,0,.24.11.24.22s-.28.33-.74.33a5.3,5.3,0,0,1-1.75-.41C57.56,9.52,57.5,9.39,57.5,9.18Zm7.34,0a3.11,3.11,0,0,1-.58.46c-.21.15-.43.29-.65.42,0,.25,0,.51-.05.78s-.05.53-.09.76c.5-.24,1-.47,1.4-.71a1.83,1.83,0,0,1,.74-.31.66.66,0,0,1,.23.05.33.33,0,0,1,.14.18.53.53,0,0,1-.15.36,5.24,5.24,0,0,1-1.29.8q-.76.39-1.52.71a6.57,6.57,0,0,1-.22.7,16.53,16.53,0,0,1-.71,1.6,8,8,0,0,1-.59,1c-.23.3-.44.59-.65.85l-.3.4-.12.13-.17,0a.25.25,0,0,1-.17-.23.35.35,0,0,1,.05-.23,2.36,2.36,0,0,1,.21-.38c.11-.19.26-.46.45-.79.26-.47.53-1,.8-1.57.17-.37.33-.73.46-1.09a.15.15,0,0,0,0-.06l-.83.33a2.31,2.31,0,0,1-.53.16h-.1a.49.49,0,0,1-.3-.46.37.37,0,0,1,.18-.29,2,2,0,0,1,.45-.17c.65-.24,1.25-.47,1.81-.72,0-.09,0-.18,0-.28q0-.52,0-1.13v-.06a3,3,0,0,1-1.1.24.58.58,0,0,1-.52-.31.88.88,0,0,1-.1-.43q0-.63,0-1.16c0-.15.14-.23.33-.25h.14c.22,0,.33.19.33.54,0,.17,0,.43,0,.78a.67.67,0,0,0,.23,0,2,2,0,0,0,.73-.23,7.16,7.16,0,0,0-.13-1.53,1.77,1.77,0,0,1-.08-.45.46.46,0,0,1,.14-.37A.48.48,0,0,1,63,7.19a.45.45,0,0,1,.27.09,1.24,1.24,0,0,1,.18.28,9.12,9.12,0,0,1,.16,1.69q.4-.23.91-.55l.1-.05h.14c.11,0,.17.12.17.31A.3.3,0,0,1,64.84,9.16Zm-1.16,7.57a1.78,1.78,0,0,1-.47-1.12,14,14,0,0,1-.05-1.41A8.94,8.94,0,0,0,63,12.8a.42.42,0,0,1,.33-.27h.06a.35.35,0,0,1,.34.28A9.84,9.84,0,0,1,63.85,14c0,.3,0,.74,0,1.33a1,1,0,0,0,.4.78,1.33,1.33,0,0,0,.75.19,2.11,2.11,0,0,0,1.13-.41,6.57,6.57,0,0,0-.42-2.24c0-.16.05-.26.16-.3a.46.46,0,0,1,.32.18A3.81,3.81,0,0,1,66.89,16q0,.63-.48.65a3,3,0,0,1-1.61.45A1.68,1.68,0,0,1,63.67,16.73Z"/></g></g></svg>