<svg xmlns="http://www.w3.org/2000/svg" viewBox="0 0 91.86 27.37"><defs><style>.cls-1{fill:#fff;stroke:#57b6b8;stroke-miterlimit:10;}.cls-2{fill:#57b6b8;}</style></defs><title>資產 9</title><g id="圖層_2" data-name="圖層 2"><g id="圖層_2-2" data-name="圖層 2"><rect class="cls-1" x="0.5" y="0.5" width="90.86" height="26.37" rx="13.19" ry="13.19"/><path class="cls-2" d="M25.06,11.7l-.14.05c0,.61,0,1.27,0,2,1.51-.4,2.69-.75,3.56-1.08a.25.25,0,0,1,.23.1.32.32,0,0,1,0,.11.4.4,0,0,1-.16.3,11.36,11.36,0,0,1-3.64,1.43v1.82c0,.56,0,1,0,1.37s-.12.71-.31.71-.31-.24-.33-.7,0-.84,0-1.29,0-1.07,0-1.7c-.89.25-1.73.46-2.52.66l-.65.13a3.14,3.14,0,0,1-.43,0c-.21,0-.32-.15-.36-.44,0-.12.11-.24.32-.34l.46-.15c1.07-.22,2.11-.46,3.15-.74,0-.32,0-.66,0-1s0-.61,0-.94c-.37.1-.73.18-1.1.25a8,8,0,0,1-.84.09h-.25a.31.31,0,0,1-.31-.34v-.18a.64.64,0,0,1,.34-.36h.25a8,8,0,0,0,1.86-.24h0c0-.58,0-1.2-.05-1.86,0-.26,0-.76,0-1.54a.43.43,0,0,1,.2-.34.38.38,0,0,1,.24-.09c.24,0,.37.14.39.41s0,.76,0,1.28c0,.69,0,1.33,0,1.92.49-.14,1-.31,1.5-.51a2.22,2.22,0,0,1,.3-.14.84.84,0,0,1,.3.06c.11.09.17.16.17.23a.37.37,0,0,1-.09.21.62.62,0,0,1-.26.2A12.75,12.75,0,0,1,25.06,11.7ZM22.5,9.24a.94.94,0,0,1-.14-.34.26.26,0,0,1,.1-.18.45.45,0,0,1,.25-.13.39.39,0,0,1,.39.22c.15.3.28.59.4.87a3,3,0,0,1,.11.49c0,.19-.06.31-.19.36h-.06a.34.34,0,0,1-.34-.29Zm2.67,1.17a.15.15,0,0,1-.17-.17.56.56,0,0,1,0-.16l.41-.68a2.11,2.11,0,0,0,.32-.82,1.18,1.18,0,0,0,0-.28A1.16,1.16,0,0,1,25.64,8c0-.2.11-.31.34-.33h.13a.38.38,0,0,1,.32.23,1.31,1.31,0,0,1,.12.6,1.85,1.85,0,0,1-.38,1,4.18,4.18,0,0,1-.66.75A.41.41,0,0,1,25.17,10.42Z"/><path class="cls-2" d="M32.87,14.23c0-.65,0-1.24,0-1.78s0-1.11.05-1.73c0-.31,0-.65,0-1a2.37,2.37,0,0,0,0-.25V9.42a4.9,4.9,0,0,1-.76.06.4.4,0,0,1-.34-.15A.42.42,0,0,1,31.64,9a.32.32,0,0,1,.24-.36,15.4,15.4,0,0,0,1.7-.18,17.55,17.55,0,0,0,3.22-.75h.12a.31.31,0,0,1,.25.14s0,.1.05.15a.36.36,0,0,1-.15.3,15.41,15.41,0,0,1-3.31,1,1.7,1.7,0,0,1,.05.4c0,.17,0,.4,0,.7a8.52,8.52,0,0,1,2.7-.45h.42c.24,0,.42.19.57.52a4.35,4.35,0,0,1,.27,1.21c0,.42.06.94.1,1.56,0,1.24.09,2.64.14,4.21a.62.62,0,0,1-.14.37.59.59,0,0,1-.4.22c-.19,0-.28-.11-.28-.31v-.34a27,27,0,0,1-2.71.51c-.51.05-1,.09-1.41.11a.46.46,0,0,1-.36-.16.49.49,0,0,1-.16-.34.31.31,0,0,1,.26-.36h.11C32.87,16.39,32.87,15.45,32.87,14.23Zm1.79-.77a6.6,6.6,0,0,1-.9.21h-.08s0,0-.06,0c0,.19,0,.4,0,.63s0,.45,0,.67l1-.21q.77-.16,1.91-.52l.66-.16c0-.46,0-.87,0-1.22h0C36.53,13,35.72,13.21,34.65,13.46Zm-1-.84v.46h0a18.9,18.9,0,0,1,2.69-.68,3.64,3.64,0,0,1,.68-.09l.09,0a6,6,0,0,0-.17-1.29c-.08-.24-.21-.37-.39-.37a9.23,9.23,0,0,0-2.74.53h-.08Q33.65,12.11,33.62,12.62Zm0,4.45.66,0c1.09-.11,2-.24,2.84-.4h0c0-.62,0-1.27,0-2v-.13a6.52,6.52,0,0,1-1.22.48,12.29,12.29,0,0,1-2,.54.87.87,0,0,1-.26.05C33.62,16.13,33.62,16.6,33.63,17.07Z"/><path class="cls-2" d="M42.9,15.1a.38.38,0,0,1-.28.12.26.26,0,0,1-.21-.08.45.45,0,0,1-.13-.32q0-.58,0-1.62c0-.54,0-1,0-1.5s0-.93.05-1.46c0-.25,0-.53,0-.84l0-.21a1,1,0,0,1,0-.17.26.26,0,0,1,.13-.2.44.44,0,0,1,.29-.12.4.4,0,0,1,.34.19,10,10,0,0,1,1.48-.1h.24c.13,0,.25.15.34.39a5.18,5.18,0,0,1,.14.87c0,.32,0,.7.05,1.15,0,.9.06,1.94.09,3.08v.05l.78-.36a.23.23,0,0,1,.21.12.17.17,0,0,1,0,.09.53.53,0,0,1-.14.32A6.38,6.38,0,0,1,44,15.75c-.67.26-1.29.5-1.87.7l-.4.09a3.46,3.46,0,0,1-.42,0c-.2,0-.32-.16-.36-.44,0-.13.1-.25.3-.36l.47-.15q1.1-.29,2.13-.68l.69-.26a.44.44,0,0,1,0-.11V13.53a1.64,1.64,0,0,1-.45.29,2.7,2.7,0,0,1-.71.3.93.93,0,0,1-.29.05.23.23,0,0,1-.13,0c0,.24,0,.47,0,.71A.42.42,0,0,1,42.9,15.1Zm1.65-2.67c0-.33,0-.63,0-.89a1.08,1.08,0,0,1-.36.24q-.45.23-.91.42a.45.45,0,0,1-.16,0H43s-.06,0-.06,0c0,.25,0,.59,0,1v.24l.11,0,.36-.12A6.55,6.55,0,0,0,44.1,13l.25-.09a.64.64,0,0,1,.18,0h0Zm-.07-2.61c0-.16,0-.25-.09-.25a5.79,5.79,0,0,0-1.24.16h0c0,.21-.05.47-.08.8s-.06.69-.08.94h0a8.27,8.27,0,0,0,1.1-.4.86.86,0,0,1,.22-.08.3.3,0,0,1,.17.05C44.52,10.42,44.5,10,44.48,9.82Zm2.11,1.39a.33.33,0,0,1-.1-.24.37.37,0,0,1,.25-.39,8.52,8.52,0,0,1,.83-.26l.29-.08c.06-.48.1-1,.12-1.5V8.42c0-.27.15-.41.45-.41s.39.12.41.33V8.7c0,.45-.05.9-.11,1.37A7.8,7.8,0,0,1,50,9.82c.34,0,.55.2.59.6v.31c0,.37,0,.8-.09,1.27s-.17,1.15-.29,1.7-.33,1.24-.54,1.89A3.67,3.67,0,0,1,49,17a.48.48,0,0,1-.32.12.69.69,0,0,1-.32-.12,1,1,0,0,1-.54-.82,1,1,0,0,1,0-.24.26.26,0,0,1,.22-.21.37.37,0,0,1,.24.15,1.45,1.45,0,0,1,.38.39,2.88,2.88,0,0,0,.21-.4,20.68,20.68,0,0,0,.71-2.61,15.36,15.36,0,0,0,.28-2c0-.19,0-.38,0-.55s-.05-.11-.15-.11l-1.08.25A18,18,0,0,1,48,13.51a20.53,20.53,0,0,1-1.44,3.11,7.21,7.21,0,0,1-.55.81.71.71,0,0,1-.33.15c-.11,0-.16-.08-.16-.21a.68.68,0,0,1,.15-.37c.15-.39.32-.79.54-1.22a24.58,24.58,0,0,0,1.19-3q.23-.81.39-1.68l-.55.16a1,1,0,0,1-.3.08A.42.42,0,0,1,46.6,11.21Z"/><path class="cls-2" d="M55,14.41A7.05,7.05,0,0,1,53.5,16a4,4,0,0,1-.89.53l-.28,0c-.22,0-.33-.12-.37-.36a.52.52,0,0,1,0-.24,1.2,1.2,0,0,1,.45-.34,5.16,5.16,0,0,0,.64-.38A12.12,12.12,0,0,0,54.57,14a.86.86,0,0,1,.34-.25.24.24,0,0,1,.24.23A1,1,0,0,1,55,14.41Zm-.22-2.32a3.56,3.56,0,0,1-.83.46,6,6,0,0,1-1.19.43.94.94,0,0,1-.29.08.3.3,0,0,1-.27-.15.58.58,0,0,1-.09-.36c0-.14.11-.25.3-.32l.58-.16c.3-.09.69-.21,1.14-.39l.4-.13.18,0a.23.23,0,0,1,.19.11.54.54,0,0,1,0,.14A.69.69,0,0,1,54.75,12.1ZM52.61,9.68a.33.33,0,0,1,.32-.33l2.13.57c.15,0,.24.11.24.22s-.28.33-.74.33a5.3,5.3,0,0,1-1.75-.41C52.68,10,52.61,9.89,52.61,9.68Zm7.34,0a3.11,3.11,0,0,1-.58.46c-.21.15-.43.29-.65.42,0,.25,0,.51-.05.78s-.05.53-.09.76c.5-.24,1-.47,1.4-.71a1.83,1.83,0,0,1,.74-.31.66.66,0,0,1,.23.05.33.33,0,0,1,.14.18.53.53,0,0,1-.15.36,5.24,5.24,0,0,1-1.29.8q-.76.39-1.52.71a6.57,6.57,0,0,1-.22.7,16.53,16.53,0,0,1-.71,1.6,8,8,0,0,1-.59,1c-.23.3-.44.59-.65.85l-.3.4-.12.13-.17,0a.25.25,0,0,1-.17-.23.35.35,0,0,1,.05-.23,2.36,2.36,0,0,1,.21-.38c.11-.19.26-.46.45-.79.26-.47.53-1,.8-1.57.17-.37.33-.73.46-1.09a.15.15,0,0,0,0-.06l-.83.33a2.31,2.31,0,0,1-.53.16h-.1a.49.49,0,0,1-.3-.46.37.37,0,0,1,.18-.29,2,2,0,0,1,.45-.17c.65-.24,1.25-.47,1.81-.72,0-.09,0-.18,0-.28q0-.52,0-1.13v-.06a3,3,0,0,1-1.1.24.58.58,0,0,1-.52-.31.88.88,0,0,1-.1-.43q0-.63,0-1.16c0-.15.14-.23.33-.25h.14c.22,0,.33.19.33.54,0,.17,0,.43,0,.78a.67.67,0,0,0,.23,0,2,2,0,0,0,.73-.23,7.16,7.16,0,0,0-.13-1.53,1.77,1.77,0,0,1-.08-.45.46.46,0,0,1,.14-.37.48.48,0,0,1,.25-.09.45.45,0,0,1,.27.09,1.24,1.24,0,0,1,.18.28,9.12,9.12,0,0,1,.16,1.69q.4-.23.91-.55l.1-.05h.14c.11,0,.17.12.17.31A.3.3,0,0,1,59.95,9.66Zm-1.16,7.57a1.78,1.78,0,0,1-.47-1.12,14,14,0,0,1-.05-1.41,8.94,8.94,0,0,0-.11-1.4.42.42,0,0,1,.33-.27h.06a.35.35,0,0,1,.34.28A9.84,9.84,0,0,1,59,14.52c0,.3,0,.74,0,1.33a1,1,0,0,0,.4.78,1.33,1.33,0,0,0,.75.19,2.11,2.11,0,0,0,1.13-.41,6.57,6.57,0,0,0-.42-2.24c0-.16.05-.26.16-.3a.46.46,0,0,1,.32.18A3.81,3.81,0,0,1,62,16.53q0,.63-.48.65a3,3,0,0,1-1.61.45A1.68,1.68,0,0,1,58.78,17.23Z"/><path class="cls-2" d="M65,10.24c.56-.09,1.32-.23,2.32-.44.58-.1,1.3-.25,2.17-.44.34-.09.57-.13.69-.15l.23,0a.29.29,0,0,1,.15.25.35.35,0,0,1-.18.36,5.81,5.81,0,0,1-2.1.72L67,10.8a4.17,4.17,0,0,1-.44.87q-.34.58-.65,1a.79.79,0,0,1,.14.36c0,.26,0,.52,0,.76a9.82,9.82,0,0,1-.11,1.39c-.06.75-.1,1.21-.11,1.4a1.16,1.16,0,0,0,.05.45,3.63,3.63,0,0,0,1-.83c.1-.17.2-.26.32-.26a.29.29,0,0,1,.26.31,1.38,1.38,0,0,1-.06.32,4.14,4.14,0,0,1-1,1.17,1.43,1.43,0,0,1-.73.27q-.39,0-.52-.78c0-.24,0-.45,0-.67a12.31,12.31,0,0,1,.11-1.35,8.29,8.29,0,0,0,.13-1.4c0-.1,0-.19,0-.28a8,8,0,0,1-1.79,2,.33.33,0,0,1-.56-.25c0-.11.12-.28.36-.52A17.63,17.63,0,0,0,66,11l-.34.08-1.46.32a3.11,3.11,0,0,1-.52.1.3.3,0,0,1-.26-.15.46.46,0,0,1-.1-.25.87.87,0,0,1,0-.17c0-.1.06-.17.18-.24A5,5,0,0,1,65,10.24ZM65.89,8a.39.39,0,0,1,.36-.38L67.78,8c.17,0,.27.13.27.24s-.32.37-.84.37a6.48,6.48,0,0,1-1.12-.12C66,8.4,65.89,8.26,65.89,8Zm4.5,8.53A18.61,18.61,0,0,1,69,14.81a20,20,0,0,0-1.65-2,3.71,3.71,0,0,1-.26-.29.58.58,0,0,1-.09-.31.33.33,0,0,1,.12-.23.39.39,0,0,1,.27-.1.41.41,0,0,1,.33.19,1.93,1.93,0,0,0,.24.29c.24.25.55.6.94,1.06a6,6,0,0,0,.94-1.36.77.77,0,0,1,.19-.24.39.39,0,0,1,.23-.07h.1c.19,0,.3.19.31.45a.91.91,0,0,1-.19.39,5.29,5.29,0,0,1-1.17,1.3c.43.54.93,1.16,1.49,1.88a11.13,11.13,0,0,0,1.61,1.55.59.59,0,0,1,.25.42.29.29,0,0,1-.27.33A.77.77,0,0,1,72,17.9,9,9,0,0,1,70.39,16.56Z"/></g></g></svg>